{
.appVersion = "1176";
DisplayStrings = (
a,
"falgafel\012jesus",
SO,
Q,
C,
"/c_p/c_t/e_t/f_b/f_f/f_f_b/f_f_h/f_f_i/f_f_j/f_f_k/f_f_l/f_f_t/f_h/f_i/f_j/f_k/f_l/f_t/s_p/s_t"
);
classes = (
{
code = "Euro bar cent colon comma degree divide dollar eight equal five four greater less minus multiply nine numbersign one paragraph percent period periodcentered plus plusminus quotedbl quotesingle section semicolon seven six slash sterling three two underscore yen zero";
name = tnum1;
},
{
code = "Euro.tnum bar.tnum cent.tnum colon.tnum comma.tnum degree.tnum divide.tnum dollar.tnum eight.tnum equal.tnum five.tnum four.tnum greater.tnum less.tnum minus.tnum multiply.tnum nine.tnum numbersign.tnum one.tnum paragraph.tnum percent.tnum period.tnum periodcentered.tnum plus.tnum plusminus.tnum quotedbl.tnum quotesingle.tnum section.tnum semicolon.tnum seven.tnum six.tnum slash.tnum sterling.tnum three.tnum two.tnum underscore.tnum yen.tnum zero.tnum";
name = tnum2;
}
);
copyright = "Copyright 2012 The Libre Caslon Text Project Authors (https://github.com/thundernixon/Libre-Caslon)";
customParameters = (
{
name = macintoshFONDFamilyID;
value = 128;
},
{
name = macintoshFONDName;
value = "Libre Caslon Text";
},
{
name = openTypeHeadFlags;
value = (
);
},
{
name = description;
value = "Libre Caslon in Text is optimized for web body text";
},
{
name = openTypeNameSampleText;
value = "";
},
{
name = openTypeNameUniqueID;
value = "PabloImpallari,RodrigoFuenzalida: Libre Caslon Text Italic: 2012";
},
{
name = openTypeNameVersion;
value = "Version 1.002";
},
{
name = openTypeOS2FamilyClass;
value = (
0,
0
);
},
{
name = openTypeOS2Panose;
value = (
2,
2,
6,
2,
6,
3,
0,
0,
0,
4
);
},
{
name = openTypeOS2Selection;
value = (
);
},
{
name = openTypeOS2StrikeoutPosition;
value = 250;
},
{
name = openTypeOS2StrikeoutSize;
value = 50;
},
{
name = openTypeOS2SubscriptXOffset;
value = 0;
},
{
name = openTypeOS2SubscriptXSize;
value = 700;
},
{
name = openTypeOS2SubscriptYOffset;
value = 140;
},

glyphs = (
{
glyphname = A;
layers = (
{
anchors = (
{
name = bottom;
position = "{787, 0}";
},
{
name = topcap;
position = "{1065, 1461}";
}
);
layerId = master01;
paths = (
{
closed = 1;
nodes = (
"966 162 LINE SMOOTH",
"964 151 OFFCURVE",
"964 141 OFFCURVE",
"964 132 CURVE SMOOTH",
"966 70 OFFCURVE",
"1005 56 OFFCURVE",
"1114 49 CURVE",
"1089 0 LINE",
"547 0 LINE",
"572 49 LINE",
"706 51 OFFCURVE",
"762 76 OFFCURVE",
"778 185 CURVE SMOOTH",
"822 503 LINE",
"405 503 LINE",
"178 241 LINE SMOOTH",
"123 178 OFFCURVE",
"107 153 OFFCURVE",
"107 121 CURVE SMOOTH",
"109 84 OFFCURVE",
"153 63 OFFCURVE",
"257 49 CURVE",
"234 0 LINE",
"-255 0 LINE",
"-231 49 LINE",
"-63 74 OFFCURVE",
"-11 114 OFFCURVE",
"102 245 CURVE SMOOTH",
"917 1192 LINE",
"936 1355 LINE",
"1126 1396 LINE"
);
},
{
closed = 1;
nodes = (
"461 568 LINE",
"831 568 LINE",
"905 1081 LINE"
);
}
);
width = 1316;
},
{
anchors = (
{
name = bottom;
position = "{787, 0}";
},
{
name = topcap;
position = "{1065, 1461}";
}
);
layerId = "5CF0B95A-6341-4D13-90DE-0CF1719C21EC";
paths = (
{
closed = 1;
nodes = (
"966 162 LINE SMOOTH",
"964 151 OFFCURVE",
"964 141 OFFCURVE",
"964 132 CURVE SMOOTH",
"966 70 OFFCURVE",
"1005 56 OFFCURVE",
"1114 49 CURVE",
"1089 0 LINE",
"547 0 LINE",
"572 49 LINE",
"706 51 OFFCURVE",
"762 76 OFFCURVE",
"778 185 CURVE SMOOTH",
"822 503 LINE",
"405 503 LINE",
"178 241 LINE SMOOTH",
"123 178 OFFCURVE",
"107 153 OFFCURVE",
"107 121 CURVE SMOOTH",
"109 84 OFFCURVE",
"153 63 OFFCURVE",
"257 49 CURVE",
"234 0 LINE",
"-255 0 LINE",
"-231 49 LINE",
"-63 74 OFFCURVE",
"-11 114 OFFCURVE",
"102 245 CURVE SMOOTH",
"917 1192 LINE",
"936 1355 LINE",
"1126 1396 LINE"
);
},
{
closed = 1;
nodes = (
"461 568 LINE",
"831 568 LINE",
"905 1081 LINE"
);
}
);
width = 1316;
}
);
leftKerningGroup = A;
rightKerningGroup = A;
unicode = 0041;
},
{
glyphname = Aringacute;
layers = (
{
components = (
{
name = A;
},
{
name = ring.cap;
transform = "{1, 0, 0, 1, 913, 0}";
}
);
layerId = master01;
paths = (
{
closed = 1;
nodes = (
"1179 1661 OFFCURVE",
"1193 1665 OFFCURVE",
"1209 1665 CURVE SMOOTH",
"1262 1665 OFFCURVE",
"1287 1644 OFFCURVE",
"1287 1605 CURVE SMOOTH",
"1287 1566 OFFCURVE",
"1257 1542 OFFCURVE",
"1165 1542 CURVE SMOOTH",
"1162 1656 LINE"
);
},
{
closed = 1;
nodes = (
"869 1531 LINE",
"862 1573 LINE",
"973 1610 LINE",
"968 1528 LINE"
);
}
);
width = 1316;
},
{
components = (
{
name = A;
},
{
name = ring.cap;
transform = "{1, 0, 0, 1, 913, 0}";
}
);
layerId = "5CF0B95A-6341-4D13-90DE-0CF1719C21EC";
paths = (
{
closed = 1;
nodes = (
"1179 1661 OFFCURVE",
"1193 1665 OFFCURVE",
"1209 1665 CURVE SMOOTH",
"1262 1665 OFFCURVE",
"1287 1644 OFFCURVE",
"1287 1605 CURVE SMOOTH",
"1287 1566 OFFCURVE",
"1257 1542 OFFCURVE",
"1165 1542 CURVE SMOOTH",
"1162 1656 LINE"
);
},
{
closed = 1;
nodes = (
"869 1531 LINE",
"862 1573 LINE",
"973 1610 LINE",
"968 1528 LINE"
);
}
);
width = 1316;
}
);
leftKerningGroup = A;
rightKerningGroup = A;
unicode = 01FA;
},
{
glyphname = AE;
layers = (
{
layerId = master01;
paths = (
{
closed = 1;
nodes = (
"477 49 LINE",
"639 83 LINE",
"813 503 LINE",
"445 503 LINE",
"208 241 LINE SMOOTH",
"151 180 OFFCURVE",
"132 151 OFFCURVE",
"132 121 CURVE SMOOTH",
"132 84 OFFCURVE",
"176 63 OFFCURVE",
"278 49 CURVE",
"255 0 LINE",
"-239 0 LINE",
"-215 49 LINE",
"-46 74 OFFCURVE",
"7 114 OFFCURVE",
"125 245 CURVE SMOOTH",
"1060 1281 LINE",
"924 1315 LINE",
"942 1355 LINE",
"1860 1355 LINE",
"1874 968 LINE",
"1827 968 LINE",
"1806 1093 OFFCURVE",
"1776 1197 OFFCURVE",
"1725 1285 CURVE",
"1327 1285 LINE",
"1109 750 LINE",
"1404 750 LINE",
"1463 817 OFFCURVE",
"1512 884 OFFCURVE",
"1552 950 CURVE",
"1603 950 LINE",
"1404 468 LINE",
"1353 468 LINE",
"1373 539 OFFCURVE",
"1380 609 OFFCURVE",
"1383 679 CURVE",
"1077 679 LINE",
"827 70 LINE",
"1396 70 LINE",
"1491 181 OFFCURVE",
"1570 294 OFFCURVE",
"1637 405 CURVE",
"1688 405 LINE",
"1528 0 LINE",
"456 0 LINE"
);
},
{
closed = 1;
nodes = (
"1109 1236 LINE",
"503 568 LINE",
"840 568 LINE",
"1116 1236 LINE"
);
}
);
width = 1830;
},
{
layerId = "5CF0B95A-6341-4D13-90DE-0CF1719C21EC";
paths = (
{
closed = 1;
nodes = (
"477 49 LINE",
"639 83 LINE",
"813 503 LINE",
"445 503 LINE",
"208 241 LINE SMOOTH",
"151 180 OFFCURVE",
"132 151 OFFCURVE",
"132 121 CURVE SMOOTH",
"132 84 OFFCURVE",
"176 63 OFFCURVE",
"278 49 CURVE",
"255 0 LINE",
"-239 0 LINE",
"-215 49 LINE",
"-46 74 OFFCURVE",
"7 114 OFFCURVE",
"125 245 CURVE SMOOTH",
"1060 1281 LINE",
"924 1315 LINE",
"942 1355 LINE",
"1860 1355 LINE",
"1874 968 LINE",
"1827 968 LINE",
"1806 1093 OFFCURVE",
"1776 1197 OFFCURVE",
"1725 1285 CURVE",
"1327 1285 LINE",
"1109 750 LINE",
"1404 750 LINE",
"1463 817 OFFCURVE",
"1512 884 OFFCURVE",
"1552 950 CURVE",
"1603 950 LINE",
"1404 468 LINE",
"1353 468 LINE",
"1373 539 OFFCURVE",
"1380 609 OFFCURVE",
"1383 679 CURVE",
"1077 679 LINE",
"827 70 LINE",
"1396 70 LINE",
"1491 181 OFFCURVE",
"1570 294 OFFCURVE",
"1637 405 CURVE",
"1688 405 LINE",
"1528 0 LINE",
"456 0 LINE"
);
},
{
closed = 1;
nodes = (
"1109 1236 LINE",
"503 568 LINE",
"840 568 LINE",
"1116 1236 LINE"
);
}
);
width = 1830;
}
);
leftKerningGroup = AE;
rightKerningGroup = E;
unicode = 00C6;
},
{
glyphname = B;
layers = (
{
layerId = master01;
paths = (
{
closed = 1;
nodes = (
"736 67 OFFCURVE",
"899 201 OFFCURVE",
"899 442 CURVE SMOOTH",
"899 609 OFFCURVE",
"811 685 OFFCURVE",
"632 685 CURVE SMOOTH",
"505 685 LINE",
"322 238 LINE SMOOTH",
"301 187 OFFCURVE",
"292 153 OFFCURVE",
"292 130 CURVE SMOOTH",
"292 84 OFFCURVE",
"329 67 OFFCURVE",
"428 67 CURVE SMOOTH"
);
},
{
closed = 1;
nodes = (
"947 755 OFFCURVE",
"1091 876 OFFCURVE",
"1091 1077 CURVE SMOOTH",
"1091 1218 OFFCURVE",
"1014 1283 OFFCURVE",
"864 1283 CURVE SMOOTH",
"757 1283 LINE",
"535 755 LINE",
"699 755 LINE SMOOTH"
);
},
{
closed = 1;
nodes = (
"63 83 LINE",
"560 1272 LINE",
"422 1306 LINE",
"442 1355 LINE",
"864 1355 LINE SMOOTH",
"1114 1355 OFFCURVE",
"1274 1250 OFFCURVE",
"1274 1079 CURVE SMOOTH",
"1274 901 OFFCURVE",
"1102 741 OFFCURVE",
"869 706 CURVE",
"869 699 LINE",
"1010 664 OFFCURVE",
"1089 560 OFFCURVE",
"1089 412 CURVE SMOOTH",
"1089 164 OFFCURVE",
"862 0 OFFCURVE",
"521 0 CURVE SMOOTH",
"-111 0 LINE",
"-92 49 LINE"
);
}
);
width = 1258;
},
{
layerId = "5CF0B95A-6341-4D13-90DE-0CF1719C21EC";
paths = (
{
closed = 1;
nodes = (
"736 67 OFFCURVE",
"899 201 OFFCURVE",
"899 442 CURVE SMOOTH",
"899 609 OFFCURVE",
"811 685 OFFCURVE",
"632 685 CURVE SMOOTH",
"505 685 LINE",
"322 238 LINE SMOOTH",
"301 187 OFFCURVE",
"292 153 OFFCURVE",
"292 130 CURVE SMOOTH",
"292 84 OFFCURVE",
"329 67 OFFCURVE",
"428 67 CURVE SMOOTH"
);
},
{
closed = 1;
nodes = (
"947 755 OFFCURVE",
"1091 876 OFFCURVE",
"1091 1077 CURVE SMOOTH",
"1091 1218 OFFCURVE",
"1014 1283 OFFCURVE",
"864 1283 CURVE SMOOTH",
"757 1283 LINE",
"535 755 LINE",
"699 755 LINE SMOOTH"
);
},
{
closed = 1;
nodes = (
"63 83 LINE",
"560 1272 LINE",
"422 1306 LINE",
"442 1355 LINE",
"864 1355 LINE SMOOTH",
"1114 1355 OFFCURVE",
"1274 1250 OFFCURVE",
"1274 1079 CURVE SMOOTH",
"1274 901 OFFCURVE",
"1102 741 OFFCURVE",
"869 706 CURVE",
"869 699 LINE",
"1010 664 OFFCURVE",
"1089 560 OFFCURVE",
"1089 412 CURVE SMOOTH",
"1089 164 OFFCURVE",
"862 0 OFFCURVE",
"521 0 CURVE SMOOTH",
"-111 0 LINE",
"-92 49 LINE"
);
}
);
width = 1258;
}
);
leftKerningGroup = I;
unicode = 0042;
},
{
glyphname = C;
layers = (
{
anchors = (
{
name = bottom;
position = "{535, 0}";
},
{
name = topcap;
position = "{1162, 1461}";
}
);
layerId = master01;
paths = (
{
closed = 1;
nodes = (
"984 0 LINE",
"1179 516 LINE",
"1128 516 LINE",
"1008 236 OFFCURVE",
"799 65 OFFCURVE",
"572 65 CURVE SMOOTH",
"394 65 OFFCURVE",
"304 172 OFFCURVE",
"304 385 CURVE SMOOTH",
"304 840 OFFCURVE",
"699 1295 OFFCURVE",
"1095 1295 CURVE SMOOTH",
"1232 1295 OFFCURVE",
"1295 1241 OFFCURVE",
"1295 1116 CURVE SMOOTH",
"1295 1070 OFFCURVE",
"1287 1016 OFFCURVE",
"1269 950 CURVE",
"1320 950 LINE",
"1491 1355 LINE",
"1452 1355 LINE",
"1389 1297 LINE",
"1325 1345 OFFCURVE",
"1225 1373 OFFCURVE",
"1112 1373 CURVE SMOOTH",
"612 1373 OFFCURVE",
"111 873 OFFCURVE",
"111 375 CURVE SMOOTH",
"111 114 OFFCURVE",
"248 -18 OFFCURVE",
"524 -18 CURVE SMOOTH",
"683 -18 OFFCURVE",
"804 26 OFFCURVE",
"943 136 CURVE",
"950 136 LINE",
"936 0 LINE"
);
}
);
width = 1306;
},
{
anchors = (
{
name = bottom;
position = "{535, 0}";
},
{
name = topcap;
position = "{1162, 1461}";
}
);
layerId = "5CF0B95A-6341-4D13-90DE-0CF1719C21EC";
paths = (
{
closed = 1;
nodes = (
"984 0 LINE",
"1179 516 LINE",
"1128 516 LINE",
"1008 236 OFFCURVE",
"799 65 OFFCURVE",
"572 65 CURVE SMOOTH",
"394 65 OFFCURVE",
"304 172 OFFCURVE",
"304 385 CURVE SMOOTH",
"304 840 OFFCURVE",
"699 1295 OFFCURVE",
"1095 1295 CURVE SMOOTH",
"1232 1295 OFFCURVE",
"1295 1241 OFFCURVE",
"1295 1116 CURVE SMOOTH",
"1295 1070 OFFCURVE",
"1287 1016 OFFCURVE",
"1269 950 CURVE",
"1320 950 LINE",
"1491 1355 LINE",
"1452 1355 LINE",
"1389 1297 LINE",
"1325 1345 OFFCURVE",
"1225 1373 OFFCURVE",
"1112 1373 CURVE SMOOTH",
"612 1373 OFFCURVE",
"111 873 OFFCURVE",
"111 375 CURVE SMOOTH",
"111 114 OFFCURVE",
"248 -18 OFFCURVE",
"524 -18 CURVE SMOOTH",
"683 -18 OFFCURVE",
"804 26 OFFCURVE",
"943 136 CURVE",
"950 136 LINE",
"936 0 LINE"
);
}
);
width = 1306;
}
);
leftKerningGroup = C;
rightKerningGroup = C;
unicode = 0043;
},
{
glyphname = D;
layers = (
{
anchors = (
{
name = bottom;
position = "{408, 0}";
},
{
name = topcap;
position = "{1012, 1461}";
}
);
layerId = master01;
paths = (
{
closed = 1;
nodes = (
"60 74 LINE",
"560 1281 LINE",
"422 1315 LINE",
"440 1355 LINE",
"803 1355 LINE SMOOTH",
"1151 1355 OFFCURVE",
"1375 1149 OFFCURVE",
"1375 827 CURVE SMOOTH",
"1375 512 OFFCURVE",
"1181 213 OFFCURVE",
"889 83 CURVE SMOOTH",
"764 26 OFFCURVE",
"614 0 OFFCURVE",
"426 0 CURVE SMOOTH",
"-120 0 LINE",
"-102 40 LINE"
);
},
{
closed = 1;
nodes = (
"825 74 OFFCURVE",
"1181 368 OFFCURVE",
"1181 871 CURVE SMOOTH",
"1181 1133 OFFCURVE",
"1042 1285 OFFCURVE",
"801 1285 CURVE SMOOTH",
"753 1285 LINE",
"315 227 LINE SMOOTH",
"299 190 OFFCURVE",
"292 162 OFFCURVE",
"292 141 CURVE SMOOTH",
"292 92 OFFCURVE",
"326 74 OFFCURVE",
"415 74 CURVE SMOOTH"
);
}
);
width = 1417;
},
{
anchors = (
{
name = bottom;
position = "{408, 0}";
},
{
name = topcap;
position = "{1012, 1461}";
}
);
layerId = "5CF0B95A-6341-4D13-90DE-0CF1719C21EC";
paths = (
{
closed = 1;
nodes = (
"60 74 LINE",
"560 1281 LINE",
"422 1315 LINE",
"440 1355 LINE",
"803 1355 LINE SMOOTH",
"1151 1355 OFFCURVE",
"1375 1149 OFFCURVE",
"1375 827 CURVE SMOOTH",
"1375 512 OFFCURVE",
"1181 213 OFFCURVE",
"889 83 CURVE SMOOTH",
"764 26 OFFCURVE",
"614 0 OFFCURVE",
"426 0 CURVE SMOOTH",
"-120 0 LINE",
"-102 40 LINE"
);
},
{
closed = 1;
nodes = (
"825 74 OFFCURVE",
"1181 368 OFFCURVE",
"1181 871 CURVE SMOOTH",
"1181 1133 OFFCURVE",
"1042 1285 OFFCURVE",
"801 1285 CURVE SMOOTH",
"753 1285 LINE",
"315 227 LINE SMOOTH",
"299 190 OFFCURVE",
"292 162 OFFCURVE",
"292 141 CURVE SMOOTH",
"292 92 OFFCURVE",
"326 74 OFFCURVE",
"415 74 CURVE SMOOTH"
);
}
);
width = 1417;
}
);
leftKerningGroup = I;
rightKerningGroup = D;
unicode = 0044;
},
{
glyphname = Eth;
layers = (
{
components = (
{
name = D;
transform = "{1, 0, 0, 1, 5, 0}";
}
);
layerId = master01;
paths = (
{
closed = 1;
nodes = (
"169 739 LINE",
"797 739 LINE",
"764 662 LINE",
"137 662 LINE"
);
}
);
width = 1422;
},
{
components = (
{
name = D;
transform = "{1, 0, 0, 1, 5, 0}";
}
);
layerId = "5CF0B95A-6341-4D13-90DE-0CF1719C21EC";
paths = (
{
closed = 1;
nodes = (
"169 739 LINE",
"797 739 LINE",
"764 662 LINE",
"137 662 LINE"
);
}
);
width = 1422;
}
);
leftKerningGroup = I;
rightKerningGroup = D;
unicode = 00D0;
},
{
glyphname = Dcroat;
layers = (
{
components = (
{
name = D;
transform = "{1, 0, 0, 1, 5, 0}";
}
);
layerId = master01;
paths = (
{
closed = 1;
nodes = (
"169 739 LINE",
"797 739 LINE",
"764 662 LINE",
"137 662 LINE"
);
}
);
width = 1422;
},
{
components = (
{
name = D;
transform = "{1, 0, 0, 1, 5, 0}";
}
);
layerId = "5CF0B95A-6341-4D13-90DE-0CF1719C21EC";
paths = (
{
closed = 1;
nodes = (
"169 739 LINE",
"797 739 LINE",
"764 662 LINE",
"137 662 LINE"
);
}
);
width = 1422;
}
);
leftKerningGroup = I;
rightKerningGroup = D;
unicode = 0110;
},
{
glyphname = E;
layers = (
{
anchors = (
{
name = bottom;
position = "{424, 0}";
},
{
name = topcap;
position = "{982, 1461}";
}
);
layerId = master01;
paths = (
{
closed = 1;
nodes = (
"-102 40 LINE",
"60 74 LINE",
"560 1281 LINE",
"422 1315 LINE",
"440 1355 LINE",
"1285 1355 LINE",
"1299 968 LINE",
"1251 968 LINE",
"1230 1093 OFFCURVE",
"1200 1197 OFFCURVE",
"1149 1285 CURVE",
"752 1285 LINE",
"533 750 LINE",
"829 750 LINE",
"887 817 OFFCURVE",
"936 884 OFFCURVE",
"977 950 CURVE",
"1028 950 LINE",
"829 468 LINE",
"778 468 LINE",
"797 539 OFFCURVE",
"804 609 OFFCURVE",
"808 679 CURVE",
"502 679 LINE",
"252 70 LINE",
"820 70 LINE",
"915 181 OFFCURVE",
"994 294 OFFCURVE",
"1061 405 CURVE",
"1112 405 LINE",
"952 0 LINE",
"-120 0 LINE"
);
}
);
width = 1255;
},
{
anchors = (
{
name = bottom;
position = "{424, 0}";
},
{
name = topcap;
position = "{982, 1461}";
}
);
layerId = "5CF0B95A-6341-4D13-90DE-0CF1719C21EC";
paths = (
{
closed = 1;
nodes = (
"-102 40 LINE",
"60 74 LINE",
"560 1281 LINE",
"422 1315 LINE",
"440 1355 LINE",
"1285 1355 LINE",
"1299 968 LINE",
"1251 968 LINE",
"1230 1093 OFFCURVE",
"1200 1197 OFFCURVE",
"1149 1285 CURVE",
"752 1285 LINE",
"533 750 LINE",
"829 750 LINE",
"887 817 OFFCURVE",
"936 884 OFFCURVE",
"977 950 CURVE",
"1028 950 LINE",
"829 468 LINE",
"778 468 LINE",
"797 539 OFFCURVE",
"804 609 OFFCURVE",
"808 679 CURVE",
"502 679 LINE",
"252 70 LINE",
"820 70 LINE",
"915 181 OFFCURVE",
"994 294 OFFCURVE",
"1061 405 CURVE",
"1112 405 LINE",
"952 0 LINE",
"-120 0 LINE"
);
}
);
width = 1255;
}
);
leftKerningGroup = I;
rightKerningGroup = E;
unicode = 0045;
},
{
glyphname = F;
layers = (
{
layerId = master01;
paths = (
{
closed = 1;
nodes = (
"-102 40 LINE",
"60 74 LINE",
"560 1281 LINE",
"422 1315 LINE",
"440 1355 LINE",
"1299 1355 LINE",
"1299 968 LINE",
"1251 968 LINE",
"1234 1093 OFFCURVE",
"1204 1197 OFFCURVE",
"1163 1285 CURVE",
"752 1285 LINE",
"524 729 LINE",
"820 729 LINE",
"878 796 OFFCURVE",
"928 862 OFFCURVE",
"968 929 CURVE",
"1019 929 LINE",
"820 447 LINE",
"769 447 LINE",
"788 517 OFFCURVE",
"796 588 OFFCURVE",
"799 658 CURVE",
"493 658 LINE",
"252 70 LINE",
"458 40 LINE",
"440 0 LINE",
"-120 0 LINE"
);
}
);
width = 1133;
},
{
layerId = "5CF0B95A-6341-4D13-90DE-0CF1719C21EC";
paths = (
{
closed = 1;
nodes = (
"-102 40 LINE",
"60 74 LINE",
"560 1281 LINE",
"422 1315 LINE",
"440 1355 LINE",
"1299 1355 LINE",
"1299 968 LINE",
"1251 968 LINE",
"1234 1093 OFFCURVE",
"1204 1197 OFFCURVE",
"1163 1285 CURVE",
"752 1285 LINE",
"524 729 LINE",
"820 729 LINE",
"878 796 OFFCURVE",
"928 862 OFFCURVE",
"968 929 CURVE",
"1019 929 LINE",
"820 447 LINE",
"769 447 LINE",
"788 517 OFFCURVE",
"796 588 OFFCURVE",
"799 658 CURVE",
"493 658 LINE",
"252 70 LINE",
"458 40 LINE",
"440 0 LINE",
"-120 0 LINE"
);
}
);
width = 1133;
}
);
leftKerningGroup = I;
unicode = 0046;
},
{
glyphname = G;
layers = (
{
anchors = (
{
name = bottom;
position = "{546, 0}";
},
{
name = topcap;
position = "{1162, 1461}";
}
);
layerId = master01;
paths = (
{
closed = 1;
nodes = (
"906 639 LINE",
"924 679 LINE",
"1424 679 LINE",
"1406 639 LINE",
"1237 605 LINE",
"1030 104 LINE",
"887 25 OFFCURVE",
"720 -18 OFFCURVE",
"574 -18 CURVE SMOOTH",
"289 -18 OFFCURVE",
"125 141 OFFCURVE",
"125 417 CURVE SMOOTH",
"125 896 OFFCURVE",
"604 1373 OFFCURVE",
"1084 1373 CURVE SMOOTH",
"1207 1373 OFFCURVE",
"1295 1343 OFFCURVE",
"1373 1276 CURVE",
"1463 1355 LINE",
"1505 1355 LINE",
"1332 933 LINE",
"1280 933 LINE",
"1295 996 OFFCURVE",
"1304 1047 OFFCURVE",
"1304 1093 CURVE SMOOTH",
"1304 1230 OFFCURVE",
"1230 1295 OFFCURVE",
"1077 1295 CURVE SMOOTH",
"688 1295 OFFCURVE",
"324 868 OFFCURVE",
"324 410 CURVE SMOOTH",
"324 176 OFFCURVE",
"419 60 OFFCURVE",
"612 60 CURVE SMOOTH",
"762 60 OFFCURVE",
"854 127 OFFCURVE",
"917 280 CURVE SMOOTH",
"1052 605 LINE"
);
}
);
width = 1404;
},
{
anchors = (
{
name = bottom;
position = "{546, 0}";
},
{
name = topcap;
position = "{1162, 1461}";
}
);
layerId = "5CF0B95A-6341-4D13-90DE-0CF1719C21EC";
paths = (
{
closed = 1;
nodes = (
"906 639 LINE",
"924 679 LINE",
"1424 679 LINE",
"1406 639 LINE",
"1237 605 LINE",
"1030 104 LINE",
"887 25 OFFCURVE",
"720 -18 OFFCURVE",
"574 -18 CURVE SMOOTH",
"289 -18 OFFCURVE",
"125 141 OFFCURVE",
"125 417 CURVE SMOOTH",
"125 896 OFFCURVE",
"604 1373 OFFCURVE",
"1084 1373 CURVE SMOOTH",
"1207 1373 OFFCURVE",
"1295 1343 OFFCURVE",
"1373 1276 CURVE",
"1463 1355 LINE",
"1505 1355 LINE",
"1332 933 LINE",
"1280 933 LINE",
"1295 996 OFFCURVE",
"1304 1047 OFFCURVE",
"1304 1093 CURVE SMOOTH",
"1304 1230 OFFCURVE",
"1230 1295 OFFCURVE",
"1077 1295 CURVE SMOOTH",
"688 1295 OFFCURVE",
"324 868 OFFCURVE",
"324 410 CURVE SMOOTH",
"324 176 OFFCURVE",
"419 60 OFFCURVE",
"612 60 CURVE SMOOTH",
"762 60 OFFCURVE",
"854 127 OFFCURVE",
"917 280 CURVE SMOOTH",
"1052 605 LINE"
);
}
);
width = 1404;
}
);
leftKerningGroup = G;
rightKerningGroup = G;
unicode = 0047;
},
{
glyphname = H;
layers = (
{
anchors = (
{
name = bottom;
position = "{532, 0}";
},
{
name = topcap;
position = "{1135, 1461}";
}
);
layerId = master01;
paths = (
{
closed = 1;
nodes = (
"711 40 LINE",
"693 0 LINE",
"1204 0 LINE",
"1220 37 LINE",
"1077 74 LINE",
"1579 1281 LINE",
"1748 1311 LINE",
"1765 1355 LINE",
"1255 1355 LINE",
"1237 1315 LINE",
"1383 1281 LINE",
"1162 748 LINE",
"535 748 LINE",
"757 1281 LINE",
"926 1315 LINE",
"943 1355 LINE",
"433 1355 LINE",
"415 1315 LINE",
"561 1281 LINE",
"62 74 LINE",
"-109 40 LINE",
"-127 0 LINE",
"382 0 LINE",
"400 40 LINE",
"255 74 LINE",
"505 678 LINE",
"1132 678 LINE",
"882 74 LINE"
);
}
);
width = 1512;
},
{
anchors = (
{
name = bottom;
position = "{532, 0}";
},
{
name = topcap;
position = "{1135, 1461}";
}
);
layerId = "5CF0B95A-6341-4D13-90DE-0CF1719C21EC";
paths = (
{
closed = 1;
nodes = (
"711 40 LINE",
"693 0 LINE",
"1204 0 LINE",
"1220 37 LINE",
"1077 74 LINE",
"1579 1281 LINE",
"1748 1311 LINE",
"1765 1355 LINE",
"1255 1355 LINE",
"1237 1315 LINE",
"1383 1281 LINE",
"1162 748 LINE",
"535 748 LINE",
"757 1281 LINE",
"926 1315 LINE",
"943 1355 LINE",
"433 1355 LINE",
"415 1315 LINE",
"561 1281 LINE",
"62 74 LINE",
"-109 40 LINE",
"-127 0 LINE",
"382 0 LINE",
"400 40 LINE",
"255 74 LINE",
"505 678 LINE",
"1132 678 LINE",
"882 74 LINE"
);
}
);
width = 1512;
}
);
leftKerningGroup = I;
rightKerningGroup = I;
unicode = 0048;
},
{
glyphname = Hbar;
layers = (
{
components = (
{
name = H;
transform = "{1, 0, 0, 1, 2, 0}";
}
);
layerId = master01;
paths = (
{
closed = 1;
nodes = (
"1658 1045 LINE",
"326 1045 LINE",
"294 968 LINE",
"1624 968 LINE"
);
}
);
width = 1514;
},
{
components = (
{
name = H;
transform = "{1, 0, 0, 1, 2, 0}";
}
);
layerId = "5CF0B95A-6341-4D13-90DE-0CF1719C21EC";
paths = (
{
closed = 1;
nodes = (
"1658 1045 LINE",
"326 1045 LINE",
"294 968 LINE",
"1624 968 LINE"
);
}
);
width = 1514;
}
);
leftKerningGroup = I;
rightKerningGroup = I;
unicode = 0126;
},
{
glyphname = I;
layers = (
{
anchors = (
{
name = bottom;
position = "{132, 0}";
},
{
name = topcap;
position = "{739, 1461}";
}
);
layerId = master01;
paths = (
{
closed = 1;
nodes = (
"415 1315 LINE",
"433 1355 LINE",
"943 1355 LINE",
"926 1315 LINE",
"757 1281 LINE",
"255 74 LINE",
"400 40 LINE",
"382 0 LINE",
"-127 0 LINE",
"-109 40 LINE",
"62 74 LINE",
"561 1281 LINE"
);
}
);
width = 690;
},
{
anchors = (
{
name = bottom;
position = "{132, 0}";
},
{
name = topcap;
position = "{739, 1461}";
}
);
layerId = "5CF0B95A-6341-4D13-90DE-0CF1719C21EC";
paths = (
{
closed = 1;
nodes = (
"415 1315 LINE",
"433 1355 LINE",
"943 1355 LINE",
"926 1315 LINE",
"757 1281 LINE",
"255 74 LINE",
"400 40 LINE",
"382 0 LINE",
"-127 0 LINE",
"-109 40 LINE",
"62 74 LINE",
"561 1281 LINE"
);
}
);
width = 690;
}
);
leftKerningGroup = I;
rightKerningGroup = I;
unicode = 0049;
},
{
glyphname = J;
layers = (
{
anchors = (
{
name = topcap;
position = "{739, 1461}";
}
);
layerId = master01;
paths = (
{
closed = 1;
nodes = (
"924 1315 LINE",
"942 1355 LINE",
"431 1355 LINE",
"414 1315 LINE",
"560 1281 LINE",
"5 -48 LINE SMOOTH",
"-102 -303 OFFCURVE",
"-150 -380 OFFCURVE",
"-225 -380 CURVE SMOOTH",
"-331 -380 OFFCURVE",
"-282 -224 OFFCURVE",
"-396 -224 CURVE SMOOTH",
"-442 -224 OFFCURVE",
"-486 -255 OFFCURVE",
"-486 -312 CURVE SMOOTH",
"-486 -387 OFFCURVE",
"-405 -451 OFFCURVE",
"-276 -451 CURVE SMOOTH",
"-84 -451 OFFCURVE",
"99 -297 OFFCURVE",
"202 -48 CURVE SMOOTH",
"755 1281 LINE"
);
}
);
width = 669;
},
{
anchors = (
{
name = topcap;
position = "{739, 1461}";
}
);
layerId = "5CF0B95A-6341-4D13-90DE-0CF1719C21EC";
paths = (
{
closed = 1;
nodes = (
"924 1315 LINE",
"942 1355 LINE",
"431 1355 LINE",
"414 1315 LINE",
"560 1281 LINE",
"5 -48 LINE SMOOTH",
"-102 -303 OFFCURVE",
"-150 -380 OFFCURVE",
"-225 -380 CURVE SMOOTH",
"-331 -380 OFFCURVE",
"-282 -224 OFFCURVE",
"-396 -224 CURVE SMOOTH",
"-442 -224 OFFCURVE",
"-486 -255 OFFCURVE",
"-486 -312 CURVE SMOOTH",
"-486 -387 OFFCURVE",
"-405 -451 OFFCURVE",
"-276 -451 CURVE SMOOTH",
"-84 -451 OFFCURVE",
"99 -297 OFFCURVE",
"202 -48 CURVE SMOOTH",
"755 1281 LINE"
);
}
);
width = 669;
}
);
leftKerningGroup = J;
rightKerningGroup = J;
unicode = 004A;
},
{
glyphname = K;
layers = (
{
anchors = (
{
name = bottom;
position = "{495, 0}";
}
);
layerId = master01;
paths = (
{
closed = 1;
nodes = (
"519 716 LINE",
"1074 1153 LINE SMOOTH",
"1126 1195 OFFCURVE",
"1153 1225 OFFCURVE",
"1153 1250 CURVE SMOOTH",
"1153 1285 OFFCURVE",
"1116 1311 OFFCURVE",
"1031 1315 CURVE",
"1047 1355 LINE",
"1503 1355 LINE",
"1478 1306 LINE",
"1375 1299 OFFCURVE",
"1322 1274 OFFCURVE",
"1244 1213 CURVE SMOOTH",
"734 806 LINE",
"1010 74 LINE",
"1165 40 LINE",
"1153 0 LINE",
"834 0 LINE",
"590 690 LINE",
"468 595 LINE",
"252 74 LINE",
"461 40 LINE",
"444 0 LINE",
"-113 0 LINE",
"-97 40 LINE",
"58 74 LINE",
"561 1281 LINE",
"424 1315 LINE",
"440 1355 LINE",
"915 1355 LINE",
"898 1315 LINE",
"755 1283 LINE"
);
}
);
width = 1308;
},
{
anchors = (
{
name = bottom;
position = "{495, 0}";
}
);
layerId = "5CF0B95A-6341-4D13-90DE-0CF1719C21EC";
paths = (
{
closed = 1;
nodes = (
"519 716 LINE",
"1074 1153 LINE SMOOTH",
"1126 1195 OFFCURVE",
"1153 1225 OFFCURVE",
"1153 1250 CURVE SMOOTH",
"1153 1285 OFFCURVE",
"1116 1311 OFFCURVE",
"1031 1315 CURVE",
"1047 1355 LINE",
"1503 1355 LINE",
"1478 1306 LINE",
"1375 1299 OFFCURVE",
"1322 1274 OFFCURVE",
"1244 1213 CURVE SMOOTH",
"734 806 LINE",
"1010 74 LINE",
"1165 40 LINE",
"1153 0 LINE",
"834 0 LINE",
"590 690 LINE",
"468 595 LINE",
"252 74 LINE",
"461 40 LINE",
"444 0 LINE",
"-113 0 LINE",
"-97 40 LINE",
"58 74 LINE",
"561 1281 LINE",
"424 1315 LINE",
"440 1355 LINE",
"915 1355 LINE",
"898 1315 LINE",
"755 1283 LINE"
);
}
);
width = 1308;
}
);
leftKerningGroup = I;
rightKerningGroup = K;
unicode = 004B;
},
{
glyphname = L;
layers = (
{
anchors = (
{
name = bottom;
position = "{466, 0}";
}
);
layerId = master01;
paths = (
{
closed = 1;
nodes = (
"-102 40 LINE",
"60 74 LINE",
"560 1281 LINE",
"422 1315 LINE",
"440 1355 LINE",
"943 1355 LINE",
"926 1315 LINE",
"748 1276 LINE",
"252 70 LINE",
"811 70 LINE",
"906 181 OFFCURVE",
"994 315 OFFCURVE",
"1061 426 CURVE",
"1121 426 LINE",
"952 0 LINE",
"-120 0 LINE"
);
}
);
width = 1223;
},
{
anchors = (
{
name = bottom;
position = "{466, 0}";
}
);
layerId = "5CF0B95A-6341-4D13-90DE-0CF1719C21EC";
paths = (
{
closed = 1;
nodes = (
"-102 40 LINE",
"60 74 LINE",
"560 1281 LINE",
"422 1315 LINE",
"440 1355 LINE",
"943 1355 LINE",
"926 1315 LINE",
"748 1276 LINE",
"252 70 LINE",
"811 70 LINE",
"906 181 OFFCURVE",
"994 315 OFFCURVE",
"1061 426 CURVE",
"1121 426 LINE",
"952 0 LINE",
"-120 0 LINE"
);
}
);
width = 1223;
}
);
leftKerningGroup = I;
rightKerningGroup = L;
unicode = 004C;
},
{
glyphname = Lslash;
layers = (
{
components = (
{
name = L;
transform = "{1, 0, 0, 1, 4, 0}";
}
);
layerId = master01;
paths = (
{
closed = 1;
nodes = (
"76 567 LINE",
"773 898 LINE",
"769 811 LINE",
"76 482 LINE"
);
}
);
width = 1227;
},
{
components = (
{
name = L;
transform = "{1, 0, 0, 1, 4, 0}";
}
);
layerId = "5CF0B95A-6341-4D13-90DE-0CF1719C21EC";
paths = (
{
closed = 1;
nodes = (
"76 567 LINE",
"773 898 LINE",
"769 811 LINE",
"76 482 LINE"
);
}
);
width = 1227;
}
);
leftKerningGroup = I;
rightKerningGroup = L;
unicode = 0141;
},
{
glyphname = M;
layers = (
{
layerId = master01;
paths = (
{
closed = 1;
nodes = (
"12 74 LINE",
"630 1281 LINE",
"472 1315 LINE",
"488 1355 LINE",
"899 1355 LINE",
"773 297 LINE",
"780 297 LINE",
"1591 1355 LINE",
"2003 1355 LINE",
"1987 1315 LINE",
"1816 1281 LINE",
"1315 74 LINE",
"1459 40 LINE",
"1441 0 LINE",
"942 0 LINE",
"959 40 LINE",
"1130 74 LINE",
"1621 1250 LINE",
"1614 1250 LINE",
"632 -18 LINE",
"539 -18 LINE",
"692 1214 LINE",
"685 1214 LINE",
"97 74 LINE",
"241 40 LINE",
"224 0 LINE",
"-176 0 LINE",
"-158 40 LINE"
);
}
);
width = 1749;
},
{
layerId = "5CF0B95A-6341-4D13-90DE-0CF1719C21EC";
paths = (
{
closed = 1;
nodes = (
"12 74 LINE",
"630 1281 LINE",
"472 1315 LINE",
"488 1355 LINE",
"899 1355 LINE",
"773 297 LINE",
"780 297 LINE",
"1591 1355 LINE",
"2003 1355 LINE",
"1987 1315 LINE",
"1816 1281 LINE",
"1315 74 LINE",
"1459 40 LINE",
"1441 0 LINE",
"942 0 LINE",
"959 40 LINE",
"1130 74 LINE",
"1621 1250 LINE",
"1614 1250 LINE",
"632 -18 LINE",
"539 -18 LINE",
"692 1214 LINE",
"685 1214 LINE",
"97 74 LINE",
"241 40 LINE",
"224 0 LINE",
"-176 0 LINE",
"-158 40 LINE"
);
}
);
width = 1749;
}
);
rightKerningGroup = I;
unicode = 004D;
userData = {
com.typemytype.robofont.guides = (
{
angle = 0;
isGlobal = 0;
magnetic = 5;
x = 0;
y = 23;
},
{
angle = 0;
isGlobal = 0;
magnetic = 5;
x = 0;
y = 728;
}
);
};
},
{
glyphname = N;
layers = (
{
anchors = (
{
name = bottom;
position = "{512, -18}";
},
{
name = topcap;
position = "{1140, 1461}";
}
);
layerId = master01;
paths = (
{
closed = 1;
nodes = (
"979 -18 LINE",
"1519 1281 LINE",
"1688 1315 LINE",
"1705 1355 LINE",
"1304 1355 LINE",
"1287 1315 LINE",
"1433 1281 LINE",
"1026 301 LINE",
"1019 301 LINE",
"801 1355 LINE",
"428 1355 LINE",
"410 1315 LINE",
"556 1281 LINE",
"56 74 LINE",
"-114 40 LINE",
"-132 0 LINE",
"268 0 LINE",
"285 40 LINE",
"141 74 LINE",
"614 1214 LINE",
"621 1214 LINE",
"876 -18 LINE"
);
}
);
width = 1434;
},
{
anchors = (
{
name = bottom;
position = "{512, -18}";
},
{
name = topcap;
position = "{1140, 1461}";
}
);
layerId = "5CF0B95A-6341-4D13-90DE-0CF1719C21EC";
paths = (
{
closed = 1;
nodes = (
"979 -18 LINE",
"1519 1281 LINE",
"1688 1315 LINE",
"1705 1355 LINE",
"1304 1355 LINE",
"1287 1315 LINE",
"1433 1281 LINE",
"1026 301 LINE",
"1019 301 LINE",
"801 1355 LINE",
"428 1355 LINE",
"410 1315 LINE",
"556 1281 LINE",
"56 74 LINE",
"-114 40 LINE",
"-132 0 LINE",
"268 0 LINE",
"285 40 LINE",
"141 74 LINE",
"614 1214 LINE",
"621 1214 LINE",
"876 -18 LINE"
);
}
);
width = 1434;
}
);
leftKerningGroup = N;
rightKerningGroup = N;
unicode = 004E;
},
{
glyphname = Eng;
layers = (
{
components = (
{
name = N;
}
);
layerId = master01;
paths = (
{
closed = 1;
nodes = (
"901 225 LINE",
"787 -48 LINE SMOOTH",
"678 -308 OFFCURVE",
"620 -380 OFFCURVE",
"539 -380 CURVE SMOOTH",
"433 -380 OFFCURVE",
"482 -224 OFFCURVE",
"368 -224 CURVE SMOOTH",
"322 -224 OFFCURVE",
"278 -255 OFFCURVE",
"278 -312 CURVE SMOOTH",
"278 -387 OFFCURVE",
"359 -451 OFFCURVE",
"488 -451 CURVE SMOOTH",
"679 -451 OFFCURVE",
"862 -297 OFFCURVE",
"966 -48 CURVE SMOOTH",
"1079 225 LINE"
);
}
);
width = 1434;
},
{
components = (
{
name = N;
}
);
layerId = "5CF0B95A-6341-4D13-90DE-0CF1719C21EC";
paths = (
{
closed = 1;
nodes = (
"901 225 LINE",
"787 -48 LINE SMOOTH",
"678 -308 OFFCURVE",
"620 -380 OFFCURVE",
"539 -380 CURVE SMOOTH",
"433 -380 OFFCURVE",
"482 -224 OFFCURVE",
"368 -224 CURVE SMOOTH",
"322 -224 OFFCURVE",
"278 -255 OFFCURVE",
"278 -312 CURVE SMOOTH",
"278 -387 OFFCURVE",
"359 -451 OFFCURVE",
"488 -451 CURVE SMOOTH",
"679 -451 OFFCURVE",
"862 -297 OFFCURVE",
"966 -48 CURVE SMOOTH",
"1079 225 LINE"
);
}
);
width = 1434;
}
);
leftKerningGroup = N;
rightKerningGroup = N;
unicode = 014A;
},
{
glyphname = O;
layers = (
{
anchors = (
{
name = bottom;
position = "{503, 0}";
},
{
name = topcap;
position = "{1107, 1461}";
}
);
layerId = master01;
paths = (
{
closed = 1;
nodes = (
"280 -18 OFFCURVE",
"132 141 OFFCURVE",
"132 415 CURVE SMOOTH",
"132 894 OFFCURVE",
"568 1373 OFFCURVE",
"1005 1373 CURVE SMOOTH",
"1262 1373 OFFCURVE",
"1410 1213 OFFCURVE",
"1410 935 CURVE SMOOTH",
"1410 456 OFFCURVE",
"975 -18 OFFCURVE",
"535 -18 CURVE SMOOTH"
);
},
{
closed = 1;
nodes = (
"884 65 OFFCURVE",
"1214 537 OFFCURVE",
"1214 994 CURVE SMOOTH",
"1214 1197 OFFCURVE",
"1142 1295 OFFCURVE",
"994 1295 CURVE SMOOTH",
"672 1295 OFFCURVE",
"336 822 OFFCURVE",
"336 370 CURVE SMOOTH",
"336 164 OFFCURVE",
"408 65 OFFCURVE",
"561 65 CURVE SMOOTH"
);
}
);
width = 1415;
},
{
anchors = (
{
name = bottom;
position = "{503, 0}";
},
{
name = topcap;
position = "{1107, 1461}";
}
);
layerId = "5CF0B95A-6341-4D13-90DE-0CF1719C21EC";
paths = (
{
closed = 1;
nodes = (
"280 -18 OFFCURVE",
"132 141 OFFCURVE",
"132 415 CURVE SMOOTH",
"132 894 OFFCURVE",
"568 1373 OFFCURVE",
"1005 1373 CURVE SMOOTH",
"1262 1373 OFFCURVE",
"1410 1213 OFFCURVE",
"1410 935 CURVE SMOOTH",
"1410 456 OFFCURVE",
"975 -18 OFFCURVE",
"535 -18 CURVE SMOOTH"
);
},
{
closed = 1;
nodes = (
"884 65 OFFCURVE",
"1214 537 OFFCURVE",
"1214 994 CURVE SMOOTH",
"1214 1197 OFFCURVE",
"1142 1295 OFFCURVE",
"994 1295 CURVE SMOOTH",
"672 1295 OFFCURVE",
"336 822 OFFCURVE",
"336 370 CURVE SMOOTH",
"336 164 OFFCURVE",
"408 65 OFFCURVE",
"561 65 CURVE SMOOTH"
);
}
);
width = 1415;
}
);
leftKerningGroup = O;
rightKerningGroup = O;
unicode = 004F;
},
{
glyphname = Oslash;
layers = (
{
components = (
{
name = O;
}
);
layerId = master01;
paths = (
{
closed = 1;
nodes = (
"1387 1565 LINE",
"1484 1565 LINE",
"185 -262 LINE",
"92 -262 LINE"
);
}
);
width = 1415;
},
{
components = (
{
name = O;
}
);
layerId = "5CF0B95A-6341-4D13-90DE-0CF1719C21EC";
paths = (
{
closed = 1;
nodes = (
"1387 1565 LINE",
"1484 1565 LINE",
"185 -262 LINE",
"92 -262 LINE"
);
}
);
width = 1415;
}
);
leftKerningGroup = O;
rightKerningGroup = O;
unicode = 00D8;
},
{
glyphname = Oslashacute;
layers = (
{
components = (
{
name = O;
}
);
layerId = master01;
paths = (
{
closed = 1;
nodes = (
"1387 1565 LINE",
"1484 1565 LINE",
"185 -262 LINE",
"92 -262 LINE"
);
},
{
closed = 1;
nodes = (
"1160 1661 LINE SMOOTH",
"1186 1681 OFFCURVE",
"1209 1690 OFFCURVE",
"1237 1690 CURVE SMOOTH",
"1276 1690 OFFCURVE",
"1313 1658 OFFCURVE",
"1313 1614 CURVE SMOOTH",
"1313 1573 OFFCURVE",
"1285 1540 OFFCURVE",
"1193 1514 CURVE SMOOTH",
"926 1436 LINE",
"906 1473 LINE"
);
}
);
width = 1415;
},
{
components = (
{
name = O;
}
);
layerId = "5CF0B95A-6341-4D13-90DE-0CF1719C21EC";
paths = (
{
closed = 1;
nodes = (
"1387 1565 LINE",
"1484 1565 LINE",
"185 -262 LINE",
"92 -262 LINE"
);
},
{
closed = 1;
nodes = (
"1160 1661 LINE SMOOTH",
"1186 1681 OFFCURVE",
"1209 1690 OFFCURVE",
"1237 1690 CURVE SMOOTH",
"1276 1690 OFFCURVE",
"1313 1658 OFFCURVE",
"1313 1614 CURVE SMOOTH",
"1313 1573 OFFCURVE",
"1285 1540 OFFCURVE",
"1193 1514 CURVE SMOOTH",
"926 1436 LINE",
"906 1473 LINE"
);
}
);
width = 1415;
}
);
leftKerningGroup = O;
rightKerningGroup = O;
unicode = 01FE;
},
{
glyphname = OE;
layers = (
{
layerId = master01;
paths = (
{
closed = 1;
nodes = (
"2019 968 LINE",
"1971 968 LINE",
"1947 1104 OFFCURVE",
"1915 1202 OFFCURVE",
"1869 1285 CURVE",
"1471 1285 LINE",
"1253 750 LINE",
"1549 750 LINE",
"1607 817 OFFCURVE",
"1656 884 OFFCURVE",
"1697 950 CURVE",
"1748 950 LINE",
"1549 468 LINE",
"1498 468 LINE",
"1515 526 OFFCURVE",
"1524 591 OFFCURVE",
"1528 679 CURVE",
"1221 679 LINE",
"972 70 LINE",
"1540 70 LINE",
"1628 174 OFFCURVE",
"1709 285 OFFCURVE",
"1781 405 CURVE",
"1832 405 LINE",
"1672 0 LINE",
"734 0 LINE",
"676 -12 OFFCURVE",
"620 -18 OFFCURVE",
"565 -18 CURVE SMOOTH",
"289 -18 OFFCURVE",
"128 143 OFFCURVE",
"128 419 CURVE SMOOTH",
"128 908 OFFCURVE",
"593 1373 OFFCURVE",
"1082 1373 CURVE SMOOTH",
"1142 1373 OFFCURVE",
"1192 1366 OFFCURVE",
"1237 1355 CURVE",
"2005 1355 LINE"
);
},
{
closed = 1;
nodes = (
"688 1295 OFFCURVE",
"333 822 OFFCURVE",
"333 373 CURVE SMOOTH",
"333 165 OFFCURVE",
"415 65 OFFCURVE",
"588 65 CURVE SMOOTH",
"655 65 OFFCURVE",
"713 81 OFFCURVE",
"764 114 CURVE",
"1239 1193 LINE",
"1195 1262 OFFCURVE",
"1126 1295 OFFCURVE",
"1026 1295 CURVE SMOOTH"
);
}
);
width = 1975;
},
{
layerId = "5CF0B95A-6341-4D13-90DE-0CF1719C21EC";
paths = (
{
closed = 1;
nodes = (
"2019 968 LINE",
"1971 968 LINE",
"1947 1104 OFFCURVE",
"1915 1202 OFFCURVE",
"1869 1285 CURVE",
"1471 1285 LINE",
"1253 750 LINE",
"1549 750 LINE",
"1607 817 OFFCURVE",
"1656 884 OFFCURVE",
"1697 950 CURVE",
"1748 950 LINE",
"1549 468 LINE",
"1498 468 LINE",
"1515 526 OFFCURVE",
"1524 591 OFFCURVE",
"1528 679 CURVE",
"1221 679 LINE",
"972 70 LINE",
"1540 70 LINE",
"1628 174 OFFCURVE",
"1709 285 OFFCURVE",
"1781 405 CURVE",
"1832 405 LINE",
"1672 0 LINE",
"734 0 LINE",
"676 -12 OFFCURVE",
"620 -18 OFFCURVE",
"565 -18 CURVE SMOOTH",
"289 -18 OFFCURVE",
"128 143 OFFCURVE",
"128 419 CURVE SMOOTH",
"128 908 OFFCURVE",
"593 1373 OFFCURVE",
"1082 1373 CURVE SMOOTH",
"1142 1373 OFFCURVE",
"1192 1366 OFFCURVE",
"1237 1355 CURVE",
"2005 1355 LINE"
);
},
{
closed = 1;
nodes = (
"688 1295 OFFCURVE",
"333 822 OFFCURVE",
"333 373 CURVE SMOOTH",
"333 165 OFFCURVE",
"415 65 OFFCURVE",
"588 65 CURVE SMOOTH",
"655 65 OFFCURVE",
"713 81 OFFCURVE",
"764 114 CURVE",
"1239 1193 LINE",
"1195 1262 OFFCURVE",
"1126 1295 OFFCURVE",
"1026 1295 CURVE SMOOTH"
);
}
);
width = 1975;
}
);
leftKerningGroup = O;
rightKerningGroup = E;
unicode = 0152;
},
{
glyphname = P;
layers = (
{
layerId = master01;
paths = (
{
closed = 1;
nodes = (
"252 74 LINE",
"461 40 LINE",
"444 0 LINE",
"-113 0 LINE",
"-97 40 LINE",
"58 74 LINE",
"561 1281 LINE",
"424 1315 LINE",
"440 1355 LINE",
"862 1355 LINE SMOOTH",
"1118 1355 OFFCURVE",
"1267 1241 OFFCURVE",
"1267 1045 CURVE SMOOTH",
"1267 778 OFFCURVE",
"1016 600 OFFCURVE",
"639 600 CURVE SMOOTH",
"466 600 LINE"
);
},
{
closed = 1;
nodes = (
"896 678 OFFCURVE",
"1084 854 OFFCURVE",
"1084 1070 CURVE SMOOTH",
"1084 1207 OFFCURVE",
"1007 1283 OFFCURVE",
"862 1283 CURVE SMOOTH",
"755 1283 LINE",
"500 678 LINE",
"664 678 LINE SMOOTH"
);
}
);
width = 1149;
},
{
layerId = "5CF0B95A-6341-4D13-90DE-0CF1719C21EC";
paths = (
{
closed = 1;
nodes = (
"252 74 LINE",
"461 40 LINE",
"444 0 LINE",
"-113 0 LINE",
"-97 40 LINE",
"58 74 LINE",
"561 1281 LINE",
"424 1315 LINE",
"440 1355 LINE",
"862 1355 LINE SMOOTH",
"1118 1355 OFFCURVE",
"1267 1241 OFFCURVE",
"1267 1045 CURVE SMOOTH",
"1267 778 OFFCURVE",
"1016 600 OFFCURVE",
"639 600 CURVE SMOOTH",
"466 600 LINE"
);
},
{
closed = 1;
nodes = (
"896 678 OFFCURVE",
"1084 854 OFFCURVE",
"1084 1070 CURVE SMOOTH",
"1084 1207 OFFCURVE",
"1007 1283 OFFCURVE",
"862 1283 CURVE SMOOTH",
"755 1283 LINE",
"500 678 LINE",
"664 678 LINE SMOOTH"
);
}
);
width = 1149;
}
);
leftKerningGroup = I;
unicode = 0050;
},
{
glyphname = Thorn;
layers = (
{
layerId = master01;
paths = (
{
closed = 1;
nodes = (
"364 1315 LINE",
"382 1355 LINE",
"938 1355 LINE",
"922 1315 LINE",
"767 1281 LINE",
"669 1049 LINE",
"746 1049 LINE SMOOTH",
"1001 1049 OFFCURVE",
"1151 935 OFFCURVE",
"1151 739 CURVE SMOOTH",
"1151 472 OFFCURVE",
"899 294 OFFCURVE",
"523 294 CURVE SMOOTH",
"350 294 LINE",
"257 74 LINE",
"466 40 LINE",
"449 0 LINE",
"-107 0 LINE",
"-92 40 LINE",
"63 74 LINE",
"574 1281 LINE"
);
},
{
closed = 1;
nodes = (
"780 371 OFFCURVE",
"968 547 OFFCURVE",
"968 764 CURVE SMOOTH",
"968 901 OFFCURVE",
"891 977 OFFCURVE",
"746 977 CURVE SMOOTH",
"639 977 LINE",
"384 371 LINE",
"547 371 LINE SMOOTH"
);
}
);
width = 1158;
},
{
layerId = "5CF0B95A-6341-4D13-90DE-0CF1719C21EC";
paths = (
{
closed = 1;
nodes = (
"364 1315 LINE",
"382 1355 LINE",
"938 1355 LINE",
"922 1315 LINE",
"767 1281 LINE",
"669 1049 LINE",
"746 1049 LINE SMOOTH",
"1001 1049 OFFCURVE",
"1151 935 OFFCURVE",
"1151 739 CURVE SMOOTH",
"1151 472 OFFCURVE",
"899 294 OFFCURVE",
"523 294 CURVE SMOOTH",
"350 294 LINE",
"257 74 LINE",
"466 40 LINE",
"449 0 LINE",
"-107 0 LINE",
"-92 40 LINE",
"63 74 LINE",
"574 1281 LINE"
);
},
{
closed = 1;
nodes = (
"780 371 OFFCURVE",
"968 547 OFFCURVE",
"968 764 CURVE SMOOTH",
"968 901 OFFCURVE",
"891 977 OFFCURVE",
"746 977 CURVE SMOOTH",
"639 977 LINE",
"384 371 LINE",
"547 371 LINE SMOOTH"
);
}
);
width = 1158;
}
);
leftKerningGroup = I;
unicode = 00DE;
},
{
glyphname = Q;
layers = (
{
layerId = master01;
paths = (
{
closed = 1;
nodes = (
"260 11 OFFCURVE",
"134 160 OFFCURVE",
"134 417 CURVE SMOOTH",
"134 894 OFFCURVE",
"570 1373 OFFCURVE",
"1010 1373 CURVE SMOOTH",
"1264 1373 OFFCURVE",
"1412 1213 OFFCURVE",
"1412 933 CURVE SMOOTH",
"1412 526 OFFCURVE",
"1098 155 OFFCURVE",
"748 14 CURVE SMOOTH",
"334 -153 LINE",
"400 -202 OFFCURVE",
"468 -224 OFFCURVE",
"572 -224 CURVE SMOOTH",
"727 -224 OFFCURVE",
"847 -176 OFFCURVE",
"894 -111 CURVE",
"954 -111 LINE",
"933 -192 OFFCURVE",
"804 -400 OFFCURVE",
"572 -400 CURVE SMOOTH",
"356 -400 OFFCURVE",
"336 -222 OFFCURVE",
"190 -222 CURVE SMOOTH",
"158 -222 OFFCURVE",
"151 -231 OFFCURVE",
"151 -246 CURVE SMOOTH",
"151 -260 OFFCURVE",
"158 -276 OFFCURVE",
"158 -292 CURVE SMOOTH",
"158 -326 OFFCURVE",
"128 -354 OFFCURVE",
"88 -354 CURVE SMOOTH",
"40 -354 OFFCURVE",
"21 -317 OFFCURVE",
"21 -280 CURVE SMOOTH",
"21 -227 OFFCURVE",
"60 -190 OFFCURVE",
"139 -158 CURVE SMOOTH",
"475 -21 LINE",
"475 -14 LINE"
);
},
{
closed = 1;
nodes = (
"885 65 OFFCURVE",
"1216 537 OFFCURVE",
"1216 989 CURVE SMOOTH",
"1216 1197 OFFCURVE",
"1146 1295 OFFCURVE",
"998 1295 CURVE SMOOTH",
"674 1295 OFFCURVE",
"338 822 OFFCURVE",
"338 373 CURVE SMOOTH",
"338 165 OFFCURVE",
"410 65 OFFCURVE",
"560 65 CURVE SMOOTH"
);
}
);
width = 1415;
},
{
layerId = "5CF0B95A-6341-4D13-90DE-0CF1719C21EC";
paths = (
{
closed = 1;
nodes = (
"260 11 OFFCURVE",
"134 160 OFFCURVE",
"134 417 CURVE SMOOTH",
"134 894 OFFCURVE",
"570 1373 OFFCURVE",
"1010 1373 CURVE SMOOTH",
"1264 1373 OFFCURVE",
"1412 1213 OFFCURVE",
"1412 933 CURVE SMOOTH",
"1412 526 OFFCURVE",
"1098 155 OFFCURVE",
"748 14 CURVE SMOOTH",
"334 -153 LINE",
"400 -202 OFFCURVE",
"468 -224 OFFCURVE",
"572 -224 CURVE SMOOTH",
"727 -224 OFFCURVE",
"847 -176 OFFCURVE",
"894 -111 CURVE",
"954 -111 LINE",
"933 -192 OFFCURVE",
"804 -400 OFFCURVE",
"572 -400 CURVE SMOOTH",
"356 -400 OFFCURVE",
"336 -222 OFFCURVE",
"190 -222 CURVE SMOOTH",
"158 -222 OFFCURVE",
"151 -231 OFFCURVE",
"151 -246 CURVE SMOOTH",
"151 -260 OFFCURVE",
"158 -276 OFFCURVE",
"158 -292 CURVE SMOOTH",
"158 -326 OFFCURVE",
"128 -354 OFFCURVE",
"88 -354 CURVE SMOOTH",
"40 -354 OFFCURVE",
"21 -317 OFFCURVE",
"21 -280 CURVE SMOOTH",
"21 -227 OFFCURVE",
"60 -190 OFFCURVE",
"139 -158 CURVE SMOOTH",
"475 -21 LINE",
"475 -14 LINE"
);
},
{
closed = 1;
nodes = (
"885 65 OFFCURVE",
"1216 537 OFFCURVE",
"1216 989 CURVE SMOOTH",
"1216 1197 OFFCURVE",
"1146 1295 OFFCURVE",
"998 1295 CURVE SMOOTH",
"674 1295 OFFCURVE",
"338 822 OFFCURVE",
"338 373 CURVE SMOOTH",
"338 165 OFFCURVE",
"410 65 OFFCURVE",
"560 65 CURVE SMOOTH"
);
}
);
width = 1415;
}
);
rightKerningGroup = O;
unicode = 0051;
},
{
glyphname = R;
layers = (
{
anchors = (
{
name = bottom;
position = "{477, -18}";
},
{
name = topcap;
position = "{903, 1461}";
}
);
layerId = master01;
paths = (
{
closed = 1;
nodes = (
"252 74 LINE",
"461 40 LINE",
"444 0 LINE",
"-113 0 LINE",
"-97 40 LINE",
"58 74 LINE",
"561 1281 LINE",
"424 1315 LINE",
"440 1355 LINE",
"862 1355 LINE SMOOTH",
"1135 1355 OFFCURVE",
"1262 1253 OFFCURVE",
"1262 1068 CURVE SMOOTH",
"1262 838 OFFCURVE",
"1079 674 OFFCURVE",
"792 632 CURVE",
"993 74 LINE",
"1183 40 LINE",
"1170 0 LINE",
"817 0 LINE",
"611 623 LINE",
"475 623 LINE"
);
},
{
closed = 1;
nodes = (
"896 700 OFFCURVE",
"1084 869 OFFCURVE",
"1084 1070 CURVE SMOOTH",
"1084 1207 OFFCURVE",
"1007 1283 OFFCURVE",
"862 1283 CURVE SMOOTH",
"755 1283 LINE",
"509 700 LINE",
"672 700 LINE SMOOTH"
);
}
);
width = 1302;
},
{
anchors = (
{
name = bottom;
position = "{477, -18}";
},
{
name = topcap;
position = "{903, 1461}";
}
);
layerId = "5CF0B95A-6341-4D13-90DE-0CF1719C21EC";
paths = (
{
closed = 1;
nodes = (
"252 74 LINE",
"461 40 LINE",
"444 0 LINE",
"-113 0 LINE",
"-97 40 LINE",
"58 74 LINE",
"561 1281 LINE",
"424 1315 LINE",
"440 1355 LINE",
"862 1355 LINE SMOOTH",
"1135 1355 OFFCURVE",
"1262 1253 OFFCURVE",
"1262 1068 CURVE SMOOTH",
"1262 838 OFFCURVE",
"1079 674 OFFCURVE",
"792 632 CURVE",
"993 74 LINE",
"1183 40 LINE",
"1170 0 LINE",
"817 0 LINE",
"611 623 LINE",
"475 623 LINE"
);
},
{
closed = 1;
nodes = (
"896 700 OFFCURVE",
"1084 869 OFFCURVE",
"1084 1070 CURVE SMOOTH",
"1084 1207 OFFCURVE",
"1007 1283 OFFCURVE",
"862 1283 CURVE SMOOTH",
"755 1283 LINE",
"509 700 LINE",
"672 700 LINE SMOOTH"
);
}
);
width = 1302;
}
);
leftKerningGroup = I;
rightKerningGroup = R;
unicode = 0052;
},
{
glyphname = S;
layers = (
{
anchors = (
{
name = bottom;
position = "{338, 0}";
},
{
name = topcap;
position = "{857, 1461}";
}
);
layerId = master01;
paths = (
{
closed = 1;
nodes = (
"-11 0 LINE",
"79 127 LINE",
"128 32 OFFCURVE",
"231 -18 OFFCURVE",
"380 -18 CURVE SMOOTH",
"660 -18 OFFCURVE",
"869 155 OFFCURVE",
"869 385 CURVE SMOOTH",
"869 503 OFFCURVE",
"825 586 OFFCURVE",
"667 771 CURVE SMOOTH",
"553 901 OFFCURVE",
"532 943 OFFCURVE",
"532 1040 CURVE SMOOTH",
"532 1209 OFFCURVE",
"623 1302 OFFCURVE",
"792 1302 CURVE SMOOTH",
"931 1302 OFFCURVE",
"1007 1237 OFFCURVE",
"1007 1121 CURVE SMOOTH",
"1007 1079 OFFCURVE",
"996 1012 OFFCURVE",
"984 968 CURVE",
"1037 968 LINE",
"1188 1355 LINE",
"1132 1355 LINE",
"1051 1264 LINE",
"982 1339 OFFCURVE",
"899 1373 OFFCURVE",
"785 1373 CURVE SMOOTH",
"528 1373 OFFCURVE",
"347 1206 OFFCURVE",
"347 972 CURVE SMOOTH",
"347 655 OFFCURVE",
"679 595 OFFCURVE",
"679 312 CURVE SMOOTH",
"679 151 OFFCURVE",
"570 53 OFFCURVE",
"391 53 CURVE SMOOTH",
"229 53 OFFCURVE",
"150 132 OFFCURVE",
"150 290 CURVE SMOOTH",
"150 340 OFFCURVE",
"157 396 OFFCURVE",
"172 459 CURVE",
"121 459 LINE",
"-65 0 LINE"
);
}
);
width = 1037;
},
{
anchors = (
{
name = bottom;
position = "{338, 0}";
},
{
name = topcap;
position = "{857, 1461}";
}
);
layerId = "5CF0B95A-6341-4D13-90DE-0CF1719C21EC";
paths = (
{
closed = 1;
nodes = (
"-11 0 LINE",
"79 127 LINE",
"128 32 OFFCURVE",
"231 -18 OFFCURVE",
"380 -18 CURVE SMOOTH",
"660 -18 OFFCURVE",
"869 155 OFFCURVE",
"869 385 CURVE SMOOTH",
"869 503 OFFCURVE",
"825 586 OFFCURVE",
"667 771 CURVE SMOOTH",
"553 901 OFFCURVE",
"532 943 OFFCURVE",
"532 1040 CURVE SMOOTH",
"532 1209 OFFCURVE",
"623 1302 OFFCURVE",
"792 1302 CURVE SMOOTH",
"931 1302 OFFCURVE",
"1007 1237 OFFCURVE",
"1007 1121 CURVE SMOOTH",
"1007 1079 OFFCURVE",
"996 1012 OFFCURVE",
"984 968 CURVE",
"1037 968 LINE",
"1188 1355 LINE",
"1132 1355 LINE",
"1051 1264 LINE",
"982 1339 OFFCURVE",
"899 1373 OFFCURVE",
"785 1373 CURVE SMOOTH",
"528 1373 OFFCURVE",
"347 1206 OFFCURVE",
"347 972 CURVE SMOOTH",
"347 655 OFFCURVE",
"679 595 OFFCURVE",
"679 312 CURVE SMOOTH",
"679 151 OFFCURVE",
"570 53 OFFCURVE",
"391 53 CURVE SMOOTH",
"229 53 OFFCURVE",
"150 132 OFFCURVE",
"150 290 CURVE SMOOTH",
"150 340 OFFCURVE",
"157 396 OFFCURVE",
"172 459 CURVE",
"121 459 LINE",
"-65 0 LINE"
);
}
);
width = 1037;
}
);
leftKerningGroup = S;
rightKerningGroup = S;
unicode = 0053;
},
{
glyphname = Schwa;
layers = (
{
layerId = master01;
paths = (
{
closed = 1;
nodes = (
"79 -18 OFFCURVE",
"-14 48 OFFCURVE",
"-14 155 CURVE SMOOTH",
"-14 370 OFFCURVE",
"378 579 OFFCURVE",
"950 667 CURVE",
"1017 832 OFFCURVE",
"1060 998 OFFCURVE",
"1060 1102 CURVE SMOOTH",
"1060 1223 OFFCURVE",
"996 1285 OFFCURVE",
"866 1285 CURVE SMOOTH",
"683 1285 OFFCURVE",
"496 1162 OFFCURVE",
"331 942 CURVE",
"266 980 LINE",
"472 1239 OFFCURVE",
"688 1371 OFFCURVE",
"905 1371 CURVE SMOOTH",
"1114 1371 OFFCURVE",
"1234 1246 OFFCURVE",
"1234 1031 CURVE SMOOTH",
"1234 565 OFFCURVE",
"674 -18 OFFCURVE",
"229 -18 CURVE SMOOTH"
);
},
{
closed = 1;
nodes = (
"535 519 OFFCURVE",
"215 317 OFFCURVE",
"215 146 CURVE SMOOTH",
"215 95 OFFCURVE",
"241 72 OFFCURVE",
"304 72 CURVE SMOOTH",
"479 72 OFFCURVE",
"706 239 OFFCURVE",
"813 435 CURVE SMOOTH",
"894 584 LINE"
);
}
);
width = 1186;
},
{
layerId = "5CF0B95A-6341-4D13-90DE-0CF1719C21EC";
paths = (
{
closed = 1;
nodes = (
"79 -18 OFFCURVE",
"-14 48 OFFCURVE",
"-14 155 CURVE SMOOTH",
"-14 370 OFFCURVE",
"378 579 OFFCURVE",
"950 667 CURVE",
"1017 832 OFFCURVE",
"1060 998 OFFCURVE",
"1060 1102 CURVE SMOOTH",
"1060 1223 OFFCURVE",
"996 1285 OFFCURVE",
"866 1285 CURVE SMOOTH",
"683 1285 OFFCURVE",
"496 1162 OFFCURVE",
"331 942 CURVE",
"266 980 LINE",
"472 1239 OFFCURVE",
"688 1371 OFFCURVE",
"905 1371 CURVE SMOOTH",
"1114 1371 OFFCURVE",
"1234 1246 OFFCURVE",
"1234 1031 CURVE SMOOTH",
"1234 565 OFFCURVE",
"674 -18 OFFCURVE",
"229 -18 CURVE SMOOTH"
);
},
{
closed = 1;
nodes = (
"535 519 OFFCURVE",
"215 317 OFFCURVE",
"215 146 CURVE SMOOTH",
"215 95 OFFCURVE",
"241 72 OFFCURVE",
"304 72 CURVE SMOOTH",
"479 72 OFFCURVE",
"706 239 OFFCURVE",
"813 435 CURVE SMOOTH",
"894 584 LINE"
);
}
);
width = 1186;
}
);
unicode = 018F;
},
{
glyphname = T;
layers = (
{
anchors = (
{
name = bottom;
position = "{421, 0}";
},
{
name = topcap;
position = "{1037, 1461}";
}
);
layerId = master01;
paths = (
{
closed = 1;
nodes = (
"172 40 LINE",
"155 0 LINE",
"715 0 LINE",
"732 40 LINE",
"553 74 LINE",
"1054 1285 LINE",
"1368 1285 LINE",
"1394 1209 OFFCURVE",
"1401 1126 OFFCURVE",
"1401 1047 CURVE SMOOTH",
"1401 1021 OFFCURVE",
"1401 993 OFFCURVE",
"1399 968 CURVE",
"1441 968 LINE",
"1536 1355 LINE",
"435 1355 LINE",
"209 968 LINE",
"252 968 LINE",
"327 1068 OFFCURVE",
"433 1184 OFFCURVE",
"549 1285 CURVE",
"862 1285 LINE",
"361 74 LINE"
);
}
);
width = 1294;
},
{
anchors = (
{
name = bottom;
position = "{421, 0}";
},
{
name = topcap;
position = "{1037, 1461}";
}
);
layerId = "5CF0B95A-6341-4D13-90DE-0CF1719C21EC";
paths = (
{
closed = 1;
nodes = (
"172 40 LINE",
"155 0 LINE",
"715 0 LINE",
"732 40 LINE",
"553 74 LINE",
"1054 1285 LINE",
"1368 1285 LINE",
"1394 1209 OFFCURVE",
"1401 1126 OFFCURVE",
"1401 1047 CURVE SMOOTH",
"1401 1021 OFFCURVE",
"1401 993 OFFCURVE",
"1399 968 CURVE",
"1441 968 LINE",
"1536 1355 LINE",
"435 1355 LINE",
"209 968 LINE",
"252 968 LINE",
"327 1068 OFFCURVE",
"433 1184 OFFCURVE",
"549 1285 CURVE",
"862 1285 LINE",
"361 74 LINE"
);
}
);
width = 1294;
}
);
leftKerningGroup = T;
rightKerningGroup = T;
unicode = 0054;
},
{
glyphname = Tbar;
layers = (
{
components = (
{
name = T;
}
);
layerId = master01;
paths = (
{
closed = 1;
nodes = (
"1264 817 LINE",
"336 817 LINE",
"304 739 LINE",
"1230 739 LINE"
);
}
);
width = 1308;
},
{
components = (
{
name = T;
}
);
layerId = "5CF0B95A-6341-4D13-90DE-0CF1719C21EC";
paths = (
{
closed = 1;
nodes = (
"1264 817 LINE",
"336 817 LINE",
"304 739 LINE",
"1230 739 LINE"
);
}
);
width = 1308;
}
);
leftKerningGroup = T;
rightKerningGroup = T;
unicode = 0166;
},
{
glyphname = U;
layers = (
{
anchors = (
{
name = bottom;
position = "{544, 0}";
},
{
name = topcap;
position = "{1148, 1461}";
}
);
layerId = master01;
paths = (
{
closed = 1;
nodes = (
"401 1315 LINE",
"417 1355 LINE",
"919 1355 LINE",
"901 1315 LINE",
"732 1280 LINE",
"396 473 LINE SMOOTH",
"364 400 OFFCURVE",
"345 315 OFFCURVE",
"345 253 CURVE SMOOTH",
"345 127 OFFCURVE",
"428 65 OFFCURVE",
"598 65 CURVE SMOOTH",
"787 65 OFFCURVE",
"905 158 OFFCURVE",
"1033 456 CURVE SMOOTH",
"1390 1281 LINE",
"1243 1315 LINE",
"1262 1355 LINE",
"1651 1355 LINE",
"1635 1315 LINE",
"1468 1281 LINE",
"1096 405 LINE SMOOTH",
"952 63 OFFCURVE",
"760 -18 OFFCURVE",
"546 -18 CURVE SMOOTH",
"297 -18 OFFCURVE",
"165 81 OFFCURVE",
"165 264 CURVE SMOOTH",
"165 343 OFFCURVE",
"190 444 OFFCURVE",
"241 563 CURVE SMOOTH",
"546 1281 LINE"
);
}
);
width = 1369;
},
{
anchors = (
{
name = bottom;
position = "{544, 0}";
},
{
name = topcap;
position = "{1148, 1461}";
}
);
layerId = "5CF0B95A-6341-4D13-90DE-0CF1719C21EC";
paths = (
{
closed = 1;
nodes = (
"401 1315 LINE",
"417 1355 LINE",
"919 1355 LINE",
"901 1315 LINE",
"732 1280 LINE",
"396 473 LINE SMOOTH",
"364 400 OFFCURVE",
"345 315 OFFCURVE",
"345 253 CURVE SMOOTH",
"345 127 OFFCURVE",
"428 65 OFFCURVE",
"598 65 CURVE SMOOTH",
"787 65 OFFCURVE",
"905 158 OFFCURVE",
"1033 456 CURVE SMOOTH",
"1390 1281 LINE",
"1243 1315 LINE",
"1262 1355 LINE",
"1651 1355 LINE",
"1635 1315 LINE",
"1468 1281 LINE",
"1096 405 LINE SMOOTH",
"952 63 OFFCURVE",
"760 -18 OFFCURVE",
"546 -18 CURVE SMOOTH",
"297 -18 OFFCURVE",
"165 81 OFFCURVE",
"165 264 CURVE SMOOTH",
"165 343 OFFCURVE",
"190 444 OFFCURVE",
"241 563 CURVE SMOOTH",
"546 1281 LINE"
);
}
);
width = 1369;
}
);
leftKerningGroup = U;
rightKerningGroup = U;
unicode = 0055;
},
{
glyphname = V;
layers = (
{
layerId = master01;
paths = (
{
closed = 1;
nodes = (
"1311 1111 LINE SMOOTH",
"1417 1246 OFFCURVE",
"1477 1281 OFFCURVE",
"1644 1306 CURVE",
"1668 1355 LINE",
"1160 1355 LINE",
"1137 1306 LINE",
"1241 1292 OFFCURVE",
"1285 1271 OFFCURVE",
"1287 1234 CURVE SMOOTH",
"1287 1202 OFFCURVE",
"1278 1179 OFFCURVE",
"1227 1114 CURVE SMOOTH",
"540 234 LINE",
"533 234 LINE",
"662 1170 LINE SMOOTH",
"678 1280 OFFCURVE",
"734 1304 OFFCURVE",
"868 1306 CURVE",
"892 1355 LINE",
"350 1355 LINE",
"326 1306 LINE",
"435 1299 OFFCURVE",
"473 1285 OFFCURVE",
"475 1223 CURVE SMOOTH",
"475 1214 OFFCURVE",
"475 1204 OFFCURVE",
"473 1193 CURVE SMOOTH",
"317 -18 LINE",
"421 -18 LINE"
);
}
);
width = 1292;
},
{
layerId = "5CF0B95A-6341-4D13-90DE-0CF1719C21EC";
paths = (
{
closed = 1;
nodes = (
"1311 1111 LINE SMOOTH",
"1417 1246 OFFCURVE",
"1477 1281 OFFCURVE",
"1644 1306 CURVE",
"1668 1355 LINE",
"1160 1355 LINE",
"1137 1306 LINE",
"1241 1292 OFFCURVE",
"1285 1271 OFFCURVE",
"1287 1234 CURVE SMOOTH",
"1287 1202 OFFCURVE",
"1278 1179 OFFCURVE",
"1227 1114 CURVE SMOOTH",
"540 234 LINE",
"533 234 LINE",
"662 1170 LINE SMOOTH",
"678 1280 OFFCURVE",
"734 1304 OFFCURVE",
"868 1306 CURVE",
"892 1355 LINE",
"350 1355 LINE",
"326 1306 LINE",
"435 1299 OFFCURVE",
"473 1285 OFFCURVE",
"475 1223 CURVE SMOOTH",
"475 1214 OFFCURVE",
"475 1204 OFFCURVE",
"473 1193 CURVE SMOOTH",
"317 -18 LINE",
"421 -18 LINE"
);
}
);
width = 1292;
}
);
unicode = 0056;
},
{
glyphname = W;
layers = (
{
anchors = (
{
name = topcap;
position = "{1308, 1461}";
}
);
layerId = master01;
paths = (
{
closed = 1;
nodes = (
"1010 787 LINE",
"906 -18 LINE",
"1010 -18 LINE",
"1848 1111 LINE SMOOTH",
"1947 1243 OFFCURVE",
"1996 1281 OFFCURVE",
"2145 1306 CURVE",
"2170 1355 LINE",
"1697 1355 LINE",
"1674 1306 LINE",
"1778 1292 OFFCURVE",
"1822 1271 OFFCURVE",
"1823 1234 CURVE SMOOTH",
"1823 1202 OFFCURVE",
"1811 1179 OFFCURVE",
"1764 1114 CURVE SMOOTH",
"1123 236 LINE",
"1251 1170 LINE SMOOTH",
"1267 1280 OFFCURVE",
"1325 1304 OFFCURVE",
"1457 1306 CURVE",
"1482 1355 LINE",
"993 1355 LINE",
"968 1306 LINE",
"1040 1299 OFFCURVE",
"1063 1285 OFFCURVE",
"1065 1223 CURVE SMOOTH",
"1065 1214 OFFCURVE",
"1065 1204 OFFCURVE",
"1063 1193 CURVE SMOOTH",
"1028 926 LINE",
"524 236 LINE",
"653 1170 LINE SMOOTH",
"667 1280 OFFCURVE",
"713 1304 OFFCURVE",
"824 1306 CURVE",
"848 1355 LINE",
"341 1355 LINE",
"317 1306 LINE",
"426 1299 OFFCURVE",
"465 1285 OFFCURVE",
"466 1223 CURVE SMOOTH",
"466 1214 OFFCURVE",
"466 1204 OFFCURVE",
"465 1193 CURVE SMOOTH",
"308 -18 LINE",
"412 -18 LINE"
);
}
);
width = 1811;
},
{
anchors = (
{
name = topcap;
position = "{1308, 1461}";
}
);
layerId = "5CF0B95A-6341-4D13-90DE-0CF1719C21EC";
paths = (
{
closed = 1;
nodes = (
"1010 787 LINE",
"906 -18 LINE",
"1010 -18 LINE",
"1848 1111 LINE SMOOTH",
"1947 1243 OFFCURVE",
"1996 1281 OFFCURVE",
"2145 1306 CURVE",
"2170 1355 LINE",
"1697 1355 LINE",
"1674 1306 LINE",
"1778 1292 OFFCURVE",
"1822 1271 OFFCURVE",
"1823 1234 CURVE SMOOTH",
"1823 1202 OFFCURVE",
"1811 1179 OFFCURVE",
"1764 1114 CURVE SMOOTH",
"1123 236 LINE",
"1251 1170 LINE SMOOTH",
"1267 1280 OFFCURVE",
"1325 1304 OFFCURVE",
"1457 1306 CURVE",
"1482 1355 LINE",
"993 1355 LINE",
"968 1306 LINE",
"1040 1299 OFFCURVE",
"1063 1285 OFFCURVE",
"1065 1223 CURVE SMOOTH",
"1065 1214 OFFCURVE",
"1065 1204 OFFCURVE",
"1063 1193 CURVE SMOOTH",
"1028 926 LINE",
"524 236 LINE",
"653 1170 LINE SMOOTH",
"667 1280 OFFCURVE",
"713 1304 OFFCURVE",
"824 1306 CURVE",
"848 1355 LINE",
"341 1355 LINE",
"317 1306 LINE",
"426 1299 OFFCURVE",
"465 1285 OFFCURVE",
"466 1223 CURVE SMOOTH",
"466 1214 OFFCURVE",
"466 1204 OFFCURVE",
"465 1193 CURVE SMOOTH",
"308 -18 LINE",
"412 -18 LINE"
);
}
);
width = 1811;
}
);
leftKerningGroup = W;
rightKerningGroup = W;
unicode = 0057;
},
{
glyphname = X;
layers = (
{
layerId = master01;
paths = (
{
closed = 1;
nodes = (
"-172 40 LINE",
"-44 46 OFFCURVE",
"30 76 OFFCURVE",
"259 294 CURVE SMOOTH",
"637 656 LINE",
"514 1167 LINE SMOOTH",
"491 1264 OFFCURVE",
"459 1297 OFFCURVE",
"320 1313 CURVE",
"340 1355 LINE",
"857 1355 LINE",
"841 1315 LINE",
"743 1306 OFFCURVE",
"708 1280 OFFCURVE",
"708 1220 CURVE SMOOTH",
"708 1200 OFFCURVE",
"711 1179 OFFCURVE",
"718 1153 CURVE SMOOTH",
"804 788 LINE",
"1179 1146 LINE SMOOTH",
"1243 1206 OFFCURVE",
"1271 1248 OFFCURVE",
"1271 1274 CURVE SMOOTH",
"1271 1302 OFFCURVE",
"1237 1315 OFFCURVE",
"1177 1315 CURVE",
"1193 1355 LINE",
"1612 1355 LINE",
"1595 1315 LINE",
"1463 1297 OFFCURVE",
"1390 1264 OFFCURVE",
"1278 1155 CURVE SMOOTH",
"822 716 LINE",
"947 204 LINE SMOOTH",
"975 90 OFFCURVE",
"1012 60 OFFCURVE",
"1125 40 CURVE",
"1107 0 LINE",
"581 0 LINE",
"597 40 LINE",
"711 56 OFFCURVE",
"753 79 OFFCURVE",
"753 141 CURVE SMOOTH",
"753 158 OFFCURVE",
"750 178 OFFCURVE",
"744 202 CURVE SMOOTH",
"658 581 LINE",
"324 257 LINE SMOOTH",
"268 202 OFFCURVE",
"236 158 OFFCURVE",
"236 123 CURVE SMOOTH",
"236 83 OFFCURVE",
"280 55 OFFCURVE",
"373 40 CURVE",
"354 0 LINE",
"-190 0 LINE"
);
}
);
width = 1309;
},
{
layerId = "5CF0B95A-6341-4D13-90DE-0CF1719C21EC";
paths = (
{
closed = 1;
nodes = (
"-172 40 LINE",
"-44 46 OFFCURVE",
"30 76 OFFCURVE",
"259 294 CURVE SMOOTH",
"637 656 LINE",
"514 1167 LINE SMOOTH",
"491 1264 OFFCURVE",
"459 1297 OFFCURVE",
"320 1313 CURVE",
"340 1355 LINE",
"857 1355 LINE",
"841 1315 LINE",
"743 1306 OFFCURVE",
"708 1280 OFFCURVE",
"708 1220 CURVE SMOOTH",
"708 1200 OFFCURVE",
"711 1179 OFFCURVE",
"718 1153 CURVE SMOOTH",
"804 788 LINE",
"1179 1146 LINE SMOOTH",
"1243 1206 OFFCURVE",
"1271 1248 OFFCURVE",
"1271 1274 CURVE SMOOTH",
"1271 1302 OFFCURVE",
"1237 1315 OFFCURVE",
"1177 1315 CURVE",
"1193 1355 LINE",
"1612 1355 LINE",
"1595 1315 LINE",
"1463 1297 OFFCURVE",
"1390 1264 OFFCURVE",
"1278 1155 CURVE SMOOTH",
"822 716 LINE",
"947 204 LINE SMOOTH",
"975 90 OFFCURVE",
"1012 60 OFFCURVE",
"1125 40 CURVE",
"1107 0 LINE",
"581 0 LINE",
"597 40 LINE",
"711 56 OFFCURVE",
"753 79 OFFCURVE",
"753 141 CURVE SMOOTH",
"753 158 OFFCURVE",
"750 178 OFFCURVE",
"744 202 CURVE SMOOTH",
"658 581 LINE",
"324 257 LINE SMOOTH",
"268 202 OFFCURVE",
"236 158 OFFCURVE",
"236 123 CURVE SMOOTH",
"236 83 OFFCURVE",
"280 55 OFFCURVE",
"373 40 CURVE",
"354 0 LINE",
"-190 0 LINE"
);
}
);
width = 1309;
}
);
unicode = 0058;
},
{
glyphname = Y;
layers = (
{
anchors = (
{
name = topcap;
position = "{1049, 1461}";
}
);
layerId = master01;
paths = (
{
closed = 1;
nodes = (
"172 40 LINE",
"343 74 LINE",
"561 598 LINE",
"475 1169 LINE SMOOTH",
"458 1287 OFFCURVE",
"440 1315 OFFCURVE",
"317 1315 CURVE",
"334 1355 LINE",
"831 1355 LINE",
"813 1315 LINE",
"715 1311 OFFCURVE",
"676 1287 OFFCURVE",
"676 1192 CURVE SMOOTH",
"676 1174 OFFCURVE",
"678 1151 OFFCURVE",
"681 1126 CURVE SMOOTH",
"734 693 LINE",
"1207 1169 LINE SMOOTH",
"1246 1207 OFFCURVE",
"1265 1237 OFFCURVE",
"1265 1260 CURVE SMOOTH",
"1265 1295 OFFCURVE",
"1220 1315 OFFCURVE",
"1119 1315 CURVE",
"1135 1355 LINE",
"1621 1355 LINE",
"1598 1315 LINE",
"1452 1306 OFFCURVE",
"1397 1276 OFFCURVE",
"1246 1123 CURVE SMOOTH",
"773 639 LINE",
"535 74 LINE",
"708 40 LINE",
"690 0 LINE",
"155 0 LINE"
);
}
);
width = 1260;
},
{
anchors = (
{
name = topcap;
position = "{1049, 1461}";
}
);
layerId = "5CF0B95A-6341-4D13-90DE-0CF1719C21EC";
paths = (
{
closed = 1;
nodes = (
"172 40 LINE",
"343 74 LINE",
"561 598 LINE",
"475 1169 LINE SMOOTH",
"458 1287 OFFCURVE",
"440 1315 OFFCURVE",
"317 1315 CURVE",
"334 1355 LINE",
"831 1355 LINE",
"813 1315 LINE",
"715 1311 OFFCURVE",
"676 1287 OFFCURVE",
"676 1192 CURVE SMOOTH",
"676 1174 OFFCURVE",
"678 1151 OFFCURVE",
"681 1126 CURVE SMOOTH",
"734 693 LINE",
"1207 1169 LINE SMOOTH",
"1246 1207 OFFCURVE",
"1265 1237 OFFCURVE",
"1265 1260 CURVE SMOOTH",
"1265 1295 OFFCURVE",
"1220 1315 OFFCURVE",
"1119 1315 CURVE",
"1135 1355 LINE",
"1621 1355 LINE",
"1598 1315 LINE",
"1452 1306 OFFCURVE",
"1397 1276 OFFCURVE",
"1246 1123 CURVE SMOOTH",
"773 639 LINE",
"535 74 LINE",
"708 40 LINE",
"690 0 LINE",
"155 0 LINE"
);
}
);
width = 1260;
}
);
leftKerningGroup = Y;
rightKerningGroup = Y;
unicode = 0059;
},
{
glyphname = Z;
layers = (
{
anchors = (
{
name = bottom;
position = "{426, 0}";
},
{
name = topcap;
position = "{963, 1461}";
}
);
layerId = master01;
paths = (
{
closed = 1;
nodes = (
"-12 90 LINE",
"1088 1285 LINE",
"614 1285 LINE",
"500 1190 OFFCURVE",
"391 1075 OFFCURVE",
"312 973 CURVE",
"264 973 LINE",
"475 1355 LINE",
"1348 1355 LINE",
"1309 1264 LINE",
"215 74 LINE",
"764 74 LINE",
"887 190 OFFCURVE",
"994 312 OFFCURVE",
"1077 429 CURVE",
"1137 429 LINE",
"920 0 LINE",
"-51 0 LINE"
);
}
);
width = 1227;
},
{
anchors = (
{
name = bottom;
position = "{426, 0}";
},
{
name = topcap;
position = "{963, 1461}";
}
);
layerId = "5CF0B95A-6341-4D13-90DE-0CF1719C21EC";
paths = (
{
closed = 1;
nodes = (
"-12 90 LINE",
"1088 1285 LINE",
"614 1285 LINE",
"500 1190 OFFCURVE",
"391 1075 OFFCURVE",
"312 973 CURVE",
"264 973 LINE",
"475 1355 LINE",
"1348 1355 LINE",
"1309 1264 LINE",
"215 74 LINE",
"764 74 LINE",
"887 190 OFFCURVE",
"994 312 OFFCURVE",
"1077 429 CURVE",
"1137 429 LINE",
"920 0 LINE",
"-51 0 LINE"
);
}
);
width = 1227;
}
);
leftKerningGroup = Z;
rightKerningGroup = Z;
unicode = 005A;
},
{
glyphname = a;
layers = (
{
anchors = (
{
name = bottom;
position = "{611, 0}";
},
{
name = top;
position = "{759, 1146}";
}
);
layerId = master01;
paths = (
{
closed = 1;
nodes = (
"718 950 OFFCURVE",
"757 928 OFFCURVE",
"799 868 CURVE",
"827 933 LINE",
"1007 933 LINE",
"704 192 LINE",
"690 148 OFFCURVE",
"686 134 OFFCURVE",
"686 120 CURVE SMOOTH",
"686 99 OFFCURVE",
"697 86 OFFCURVE",
"715 86 CURVE SMOOTH",
"750 86 OFFCURVE",
"811 134 OFFCURVE",
"910 243 CURVE",
"945 218 LINE",
"822 63 OFFCURVE",
"709 -18 OFFCURVE",
"611 -18 CURVE SMOOTH",
"546 -18 OFFCURVE",
"507 16 OFFCURVE",
"507 84 CURVE SMOOTH",
"507 136 OFFCURVE",
"519 187 OFFCURVE",
"567 262 CURVE",
"556 268 LINE",
"419 67 OFFCURVE",
"312 -18 OFFCURVE",
"194 -18 CURVE SMOOTH",
"74 -18 OFFCURVE",
"0 69 OFFCURVE",
"0 215 CURVE SMOOTH",
"0 533 OFFCURVE",
"363 950 OFFCURVE",
"653 950 CURVE SMOOTH"
);
},
{
closed = 1;
nodes = (
"347 44 OFFCURVE",
"572 322 OFFCURVE",
"715 655 CURVE SMOOTH",
"750 736 OFFCURVE",
"753 773 OFFCURVE",
"753 806 CURVE SMOOTH",
"753 861 OFFCURVE",
"718 894 OFFCURVE",
"672 894 CURVE SMOOTH",
"496 894 OFFCURVE",
"162 401 OFFCURVE",
"162 146 CURVE SMOOTH",
"162 76 OFFCURVE",
"180 44 OFFCURVE",
"227 44 CURVE SMOOTH"
);
}
);
width = 1063;
},
{
anchors = (
{
name = bottom;
position = "{611, 0}";
},
{
name = top;
position = "{759, 1146}";
}
);
layerId = "5CF0B95A-6341-4D13-90DE-0CF1719C21EC";
paths = (
{
closed = 1;
nodes = (
"718 950 OFFCURVE",
"757 928 OFFCURVE",
"799 868 CURVE",
"827 933 LINE",
"1007 933 LINE",
"704 192 LINE",
"690 148 OFFCURVE",
"686 134 OFFCURVE",
"686 120 CURVE SMOOTH",
"686 99 OFFCURVE",
"697 86 OFFCURVE",
"715 86 CURVE SMOOTH",
"750 86 OFFCURVE",
"811 134 OFFCURVE",
"910 243 CURVE",
"945 218 LINE",
"822 63 OFFCURVE",
"709 -18 OFFCURVE",
"611 -18 CURVE SMOOTH",
"546 -18 OFFCURVE",
"507 16 OFFCURVE",
"507 84 CURVE SMOOTH",
"507 136 OFFCURVE",
"519 187 OFFCURVE",
"567 262 CURVE",
"556 268 LINE",
"419 67 OFFCURVE",
"312 -18 OFFCURVE",
"194 -18 CURVE SMOOTH",
"74 -18 OFFCURVE",
"0 69 OFFCURVE",
"0 215 CURVE SMOOTH",
"0 533 OFFCURVE",
"363 950 OFFCURVE",
"653 950 CURVE SMOOTH"
);
},
{
closed = 1;
nodes = (
"347 44 OFFCURVE",
"572 322 OFFCURVE",
"715 655 CURVE SMOOTH",
"750 736 OFFCURVE",
"753 773 OFFCURVE",
"753 806 CURVE SMOOTH",
"753 861 OFFCURVE",
"718 894 OFFCURVE",
"672 894 CURVE SMOOTH",
"496 894 OFFCURVE",
"162 401 OFFCURVE",
"162 146 CURVE SMOOTH",
"162 76 OFFCURVE",
"180 44 OFFCURVE",
"227 44 CURVE SMOOTH"
);
}
);
width = 1063;
}
);
leftKerningGroup = a;
rightKerningGroup = a;
unicode = 0061;
},
{
glyphname = ae;
layers = (
{
layerId = master01;
paths = (
{
closed = 1;
nodes = (
"1366 950 OFFCURVE",
"1431 903 OFFCURVE",
"1431 829 CURVE SMOOTH",
"1431 681 OFFCURVE",
"1184 535 OFFCURVE",
"832 473 CURVE",
"766 348 OFFCURVE",
"732 243 OFFCURVE",
"732 162 CURVE SMOOTH",
"732 81 OFFCURVE",
"766 44 OFFCURVE",
"834 44 CURVE SMOOTH",
"943 44 OFFCURVE",
"1093 141 OFFCURVE",
"1197 280 CURVE",
"1236 255 LINE",
"1091 76 OFFCURVE",
"940 -18 OFFCURVE",
"790 -18 CURVE SMOOTH",
"648 -18 OFFCURVE",
"567 67 OFFCURVE",
"567 220 CURVE SMOOTH",
"567 241 OFFCURVE",
"567 252 OFFCURVE",
"568 262 CURVE",
"558 268 LINE",
"421 67 OFFCURVE",
"313 -18 OFFCURVE",
"195 -18 CURVE SMOOTH",
"76 -18 OFFCURVE",
"2 70 OFFCURVE",
"2 213 CURVE SMOOTH {name = hr01;}",
"2 537 OFFCURVE",
"368 950 OFFCURVE",
"653 950 CURVE SMOOTH",
"718 950 OFFCURVE",
"757 929 OFFCURVE",
"801 868 CURVE",
"829 933 LINE {name = hr02;}",
"1008 933 LINE",
"966 831 LINE",
"1065 908 OFFCURVE",
"1172 950 OFFCURVE",
"1267 950 CURVE SMOOTH"
);
},
{
closed = 1;
nodes = (
"348 44 OFFCURVE",
"583 334 OFFCURVE",
"716 655 CURVE SMOOTH",
"743 718 OFFCURVE",
"755 760 OFFCURVE",
"755 796 CURVE SMOOTH",
"755 857 OFFCURVE",
"725 894 OFFCURVE",
"676 894 CURVE SMOOTH",
"496 894 OFFCURVE",
"164 405 OFFCURVE",
"164 143 CURVE SMOOTH",
"164 76 OFFCURVE",
"185 44 OFFCURVE",
"225 44 CURVE SMOOTH"
);
},
{
closed = 1;
nodes = (
"1091 574 OFFCURVE",
"1290 722 OFFCURVE",
"1290 843 CURVE SMOOTH",
"1290 878 OFFCURVE",
"1272 896 OFFCURVE",
"1234 896 CURVE SMOOTH",
"1137 896 OFFCURVE",
"1008 787 OFFCURVE",
"928 635 CURVE SMOOTH",
"871 532 LINE"
);
}
);
width = 1415;
},
{
layerId = "5CF0B95A-6341-4D13-90DE-0CF1719C21EC";
paths = (
{
closed = 1;
nodes = (
"1366 950 OFFCURVE",
"1431 903 OFFCURVE",
"1431 829 CURVE SMOOTH",
"1431 681 OFFCURVE",
"1184 535 OFFCURVE",
"832 473 CURVE",
"766 348 OFFCURVE",
"732 243 OFFCURVE",
"732 162 CURVE SMOOTH",
"732 81 OFFCURVE",
"766 44 OFFCURVE",
"834 44 CURVE SMOOTH",
"943 44 OFFCURVE",
"1093 141 OFFCURVE",
"1197 280 CURVE",
"1236 255 LINE",
"1091 76 OFFCURVE",
"940 -18 OFFCURVE",
"790 -18 CURVE SMOOTH",
"648 -18 OFFCURVE",
"567 67 OFFCURVE",
"567 220 CURVE SMOOTH",
"567 241 OFFCURVE",
"567 252 OFFCURVE",
"568 262 CURVE",
"558 268 LINE",
"421 67 OFFCURVE",
"313 -18 OFFCURVE",
"195 -18 CURVE SMOOTH",
"76 -18 OFFCURVE",
"2 70 OFFCURVE",
"2 213 CURVE SMOOTH {name = hr01;}",
"2 537 OFFCURVE",
"368 950 OFFCURVE",
"653 950 CURVE SMOOTH",
"718 950 OFFCURVE",
"757 929 OFFCURVE",
"801 868 CURVE",
"829 933 LINE {name = hr02;}",
"1008 933 LINE",
"966 831 LINE",
"1065 908 OFFCURVE",
"1172 950 OFFCURVE",
"1267 950 CURVE SMOOTH"
);
},
{
closed = 1;
nodes = (
"348 44 OFFCURVE",
"583 334 OFFCURVE",
"716 655 CURVE SMOOTH",
"743 718 OFFCURVE",
"755 760 OFFCURVE",
"755 796 CURVE SMOOTH",
"755 857 OFFCURVE",
"725 894 OFFCURVE",
"676 894 CURVE SMOOTH",
"496 894 OFFCURVE",
"164 405 OFFCURVE",
"164 143 CURVE SMOOTH",
"164 76 OFFCURVE",
"185 44 OFFCURVE",
"225 44 CURVE SMOOTH"
);
},
{
closed = 1;
nodes = (
"1091 574 OFFCURVE",
"1290 722 OFFCURVE",
"1290 843 CURVE SMOOTH",
"1290 878 OFFCURVE",
"1272 896 OFFCURVE",
"1234 896 CURVE SMOOTH",
"1137 896 OFFCURVE",
"1008 787 OFFCURVE",
"928 635 CURVE SMOOTH",
"871 532 LINE"
);
}
);
width = 1415;
}
);
leftKerningGroup = a;
rightKerningGroup = e;
unicode = 00E6;
},
{
glyphname = b;
layers = (
{
layerId = master01;
paths = (
{
closed = 1;
nodes = (
"692 1443 LINE",
"444 813 LINE",
"452 813 LINE",
"532 901 OFFCURVE",
"628 950 OFFCURVE",
"718 950 CURVE SMOOTH",
"850 950 OFFCURVE",
"936 854 OFFCURVE",
"936 679 CURVE SMOOTH",
"936 340 OFFCURVE",
"623 -18 OFFCURVE",
"312 -18 CURVE SMOOTH",
"148 -18 OFFCURVE",
"60 76 OFFCURVE",
"60 231 CURVE SMOOTH",
"60 290 OFFCURVE",
"76 361 OFFCURVE",
"107 438 CURVE SMOOTH",
"498 1396 LINE",
"361 1417 LINE",
"354 1443 LINE {name = hr00;}"
);
},
{
closed = 1;
nodes = (
"283 445 OFFCURVE",
"204 252 OFFCURVE",
"204 144 CURVE SMOOTH",
"204 83 OFFCURVE",
"243 44 OFFCURVE",
"297 44 CURVE SMOOTH",
"475 44 OFFCURVE",
"766 473 OFFCURVE",
"766 732 CURVE SMOOTH",
"766 825 OFFCURVE",
"730 889 OFFCURVE",
"674 889 CURVE SMOOTH",
"577 889 OFFCURVE",
"424 737 OFFCURVE",
"333 546 CURVE SMOOTH"
);
}
);
width = 1012;
},
{
layerId = "5CF0B95A-6341-4D13-90DE-0CF1719C21EC";
paths = (
{
closed = 1;
nodes = (
"692 1443 LINE",
"444 813 LINE",
"452 813 LINE",
"532 901 OFFCURVE",
"628 950 OFFCURVE",
"718 950 CURVE SMOOTH",
"850 950 OFFCURVE",
"936 854 OFFCURVE",
"936 679 CURVE SMOOTH",
"936 340 OFFCURVE",
"623 -18 OFFCURVE",
"312 -18 CURVE SMOOTH",
"148 -18 OFFCURVE",
"60 76 OFFCURVE",
"60 231 CURVE SMOOTH",
"60 290 OFFCURVE",
"76 361 OFFCURVE",
"107 438 CURVE SMOOTH",
"498 1396 LINE",
"361 1417 LINE",
"354 1443 LINE {name = hr00;}"
);
},
{
closed = 1;
nodes = (
"283 445 OFFCURVE",
"204 252 OFFCURVE",
"204 144 CURVE SMOOTH",
"204 83 OFFCURVE",
"243 44 OFFCURVE",
"297 44 CURVE SMOOTH",
"475 44 OFFCURVE",
"766 473 OFFCURVE",
"766 732 CURVE SMOOTH",
"766 825 OFFCURVE",
"730 889 OFFCURVE",
"674 889 CURVE SMOOTH",
"577 889 OFFCURVE",
"424 737 OFFCURVE",
"333 546 CURVE SMOOTH"
);
}
);
width = 1012;
}
);
rightKerningGroup = b;
unicode = 0062;
userData = {
com.typemytype.robofont.guides = (
{
angle = 0;
isGlobal = 0;
magnetic = 5;
x = 0;
y = 508;
}
);
};
},
{
glyphname = c;
layers = (
{
anchors = (
{
name = bottom;
position = "{253, 0}";
},
{
name = top;
position = "{744, 1146}";
}
);
layerId = master01;
paths = (
{
closed = 1;
nodes = (
"725 896 OFFCURVE",
"746 869 OFFCURVE",
"757 804 CURVE SMOOTH",
"766 746 OFFCURVE",
"792 720 OFFCURVE",
"838 720 CURVE SMOOTH {name = hr01;}",
"884 720 OFFCURVE",
"915 748 OFFCURVE",
"915 790 CURVE SMOOTH",
"915 878 OFFCURVE",
"824 950 OFFCURVE",
"702 950 CURVE SMOOTH",
"586 950 OFFCURVE",
"438 892 OFFCURVE",
"312 794 CURVE SMOOTH",
"127 649 OFFCURVE",
"19 444 OFFCURVE",
"18 252 CURVE SMOOTH",
"18 76 OFFCURVE",
"95 -18 OFFCURVE",
"246 -18 CURVE SMOOTH",
"400 -18 OFFCURVE",
"561 77 OFFCURVE",
"715 257 CURVE",
"676 280 LINE",
"523 123 OFFCURVE",
"394 44 OFFCURVE",
"296 44 CURVE SMOOTH",
"220 44 OFFCURVE",
"192 86 OFFCURVE",
"192 174 CURVE SMOOTH",
"192 445 OFFCURVE",
"470 896 OFFCURVE",
"681 896 CURVE SMOOTH"
);
}
);
width = 876;
},
{
anchors = (
{
name = bottom;
position = "{253, 0}";
},
{
name = top;
position = "{744, 1146}";
}
);
layerId = "5CF0B95A-6341-4D13-90DE-0CF1719C21EC";
paths = (
{
closed = 1;
nodes = (
"725 896 OFFCURVE",
"746 869 OFFCURVE",
"757 804 CURVE SMOOTH",
"766 746 OFFCURVE",
"792 720 OFFCURVE",
"838 720 CURVE SMOOTH {name = hr01;}",
"884 720 OFFCURVE",
"915 748 OFFCURVE",
"915 790 CURVE SMOOTH",
"915 878 OFFCURVE",
"824 950 OFFCURVE",
"702 950 CURVE SMOOTH",
"586 950 OFFCURVE",
"438 892 OFFCURVE",
"312 794 CURVE SMOOTH",
"127 649 OFFCURVE",
"19 444 OFFCURVE",
"18 252 CURVE SMOOTH",
"18 76 OFFCURVE",
"95 -18 OFFCURVE",
"246 -18 CURVE SMOOTH",
"400 -18 OFFCURVE",
"561 77 OFFCURVE",
"715 257 CURVE",
"676 280 LINE",
"523 123 OFFCURVE",
"394 44 OFFCURVE",
"296 44 CURVE SMOOTH",
"220 44 OFFCURVE",
"192 86 OFFCURVE",
"192 174 CURVE SMOOTH",
"192 445 OFFCURVE",
"470 896 OFFCURVE",
"681 896 CURVE SMOOTH"
);
}
);
width = 876;
}
);
leftKerningGroup = c;
rightKerningGroup = c;
unicode = 0063;
},
{
glyphname = d;
layers = (
{
anchors = (
{
name = bottom;
position = "{211, 0}";
}
);
layerId = master01;
paths = (
{
closed = 1;
nodes = (
"1183 1443 LINE",
"711 192 LINE SMOOTH",
"695 150 OFFCURVE",
"692 134 OFFCURVE",
"692 120 CURVE SMOOTH",
"692 95 OFFCURVE",
"706 86 OFFCURVE",
"723 86 CURVE SMOOTH",
"759 86 OFFCURVE",
"811 134 OFFCURVE",
"908 243 CURVE",
"943 218 LINE",
"829 63 OFFCURVE",
"720 -18 OFFCURVE",
"621 -18 CURVE SMOOTH",
"544 -18 OFFCURVE",
"514 25 OFFCURVE",
"514 109 CURVE SMOOTH",
"514 151 OFFCURVE",
"532 197 OFFCURVE",
"565 262 CURVE",
"561 268 LINE",
"421 60 OFFCURVE",
"324 -18 OFFCURVE",
"197 -18 CURVE SMOOTH",
"70 -18 OFFCURVE",
"5 58 OFFCURVE",
"5 211 CURVE SMOOTH",
"5 539 OFFCURVE",
"343 950 OFFCURVE",
"637 950 CURVE SMOOTH",
"704 950 OFFCURVE",
"743 928 OFFCURVE",
"787 868 CURVE {name = hr01;}",
"991 1396 LINE",
"855 1417 LINE",
"847 1443 LINE"
);
},
{
closed = 1;
nodes = (
"348 44 OFFCURVE",
"570 326 OFFCURVE",
"706 655 CURVE SMOOTH",
"739 736 OFFCURVE",
"748 771 OFFCURVE",
"750 806 CURVE",
"741 861 OFFCURVE",
"713 894 OFFCURVE",
"667 894 CURVE SMOOTH",
"489 894 OFFCURVE",
"164 398 OFFCURVE",
"164 143 CURVE SMOOTH",
"164 74 OFFCURVE",
"190 44 OFFCURVE",
"229 44 CURVE SMOOTH"
);
}
);
width = 1061;
},
{
anchors = (
{
name = bottom;
position = "{211, 0}";
}
);
layerId = "5CF0B95A-6341-4D13-90DE-0CF1719C21EC";
paths = (
{
closed = 1;
nodes = (
"1183 1443 LINE",
"711 192 LINE SMOOTH",
"695 150 OFFCURVE",
"692 134 OFFCURVE",
"692 120 CURVE SMOOTH",
"692 95 OFFCURVE",
"706 86 OFFCURVE",
"723 86 CURVE SMOOTH",
"759 86 OFFCURVE",
"811 134 OFFCURVE",
"908 243 CURVE",
"943 218 LINE",
"829 63 OFFCURVE",
"720 -18 OFFCURVE",
"621 -18 CURVE SMOOTH",
"544 -18 OFFCURVE",
"514 25 OFFCURVE",
"514 109 CURVE SMOOTH",
"514 151 OFFCURVE",
"532 197 OFFCURVE",
"565 262 CURVE",
"561 268 LINE",
"421 60 OFFCURVE",
"324 -18 OFFCURVE",
"197 -18 CURVE SMOOTH",
"70 -18 OFFCURVE",
"5 58 OFFCURVE",
"5 211 CURVE SMOOTH",
"5 539 OFFCURVE",
"343 950 OFFCURVE",
"637 950 CURVE SMOOTH",
"704 950 OFFCURVE",
"743 928 OFFCURVE",
"787 868 CURVE {name = hr01;}",
"991 1396 LINE",
"855 1417 LINE",
"847 1443 LINE"
);
},
{
closed = 1;
nodes = (
"348 44 OFFCURVE",
"570 326 OFFCURVE",
"706 655 CURVE SMOOTH",
"739 736 OFFCURVE",
"748 771 OFFCURVE",
"750 806 CURVE",
"741 861 OFFCURVE",
"713 894 OFFCURVE",
"667 894 CURVE SMOOTH",
"489 894 OFFCURVE",
"164 398 OFFCURVE",
"164 143 CURVE SMOOTH",
"164 74 OFFCURVE",
"190 44 OFFCURVE",
"229 44 CURVE SMOOTH"
);
}
);
width = 1061;
}
);
leftKerningGroup = d;
rightKerningGroup = d;
unicode = 0064;
},
{
glyphname = eth;
layers = (
{
layerId = master01;
paths = (
{
closed = 1;
nodes = (
"352 950 OFFCURVE",
"23 584 OFFCURVE",
"23 266 CURVE SMOOTH",
"23 88 OFFCURVE",
"123 -18 OFFCURVE",
"289 -18 CURVE SMOOTH",
"604 -18 OFFCURVE",
"906 350 OFFCURVE",
"906 732 CURVE SMOOTH",
"906 901 OFFCURVE",
"848 1119 OFFCURVE",
"780 1211 CURVE",
"1007 1355 LINE",
"968 1412 LINE",
"739 1267 LINE",
"676 1334 OFFCURVE",
"597 1385 OFFCURVE",
"472 1441 CURVE",
"447 1396 LINE",
"560 1339 OFFCURVE",
"620 1292 OFFCURVE",
"667 1220 CURVE",
"429 1067 LINE",
"466 1008 LINE",
"695 1156 LINE",
"750 1051 OFFCURVE",
"771 980 OFFCURVE",
"776 884 CURVE",
"769 884 LINE",
"746 929 OFFCURVE",
"704 950 OFFCURVE",
"637 950 CURVE SMOOTH {name = hr00;}"
);
},
{
closed = 1;
nodes = (
"715 873 OFFCURVE",
"741 834 OFFCURVE",
"741 755 CURVE SMOOTH",
"741 493 OFFCURVE",
"438 44 OFFCURVE",
"262 44 CURVE SMOOTH",
"209 44 OFFCURVE",
"183 84 OFFCURVE",
"183 171 CURVE SMOOTH",
"183 449 OFFCURVE",
"470 873 OFFCURVE",
"658 873 CURVE SMOOTH"
);
}
);
width = 977;
},
{
layerId = "5CF0B95A-6341-4D13-90DE-0CF1719C21EC";
paths = (
{
closed = 1;
nodes = (
"352 950 OFFCURVE",
"23 584 OFFCURVE",
"23 266 CURVE SMOOTH",
"23 88 OFFCURVE",
"123 -18 OFFCURVE",
"289 -18 CURVE SMOOTH",
"604 -18 OFFCURVE",
"906 350 OFFCURVE",
"906 732 CURVE SMOOTH",
"906 901 OFFCURVE",
"848 1119 OFFCURVE",
"780 1211 CURVE",
"1007 1355 LINE",
"968 1412 LINE",
"739 1267 LINE",
"676 1334 OFFCURVE",
"597 1385 OFFCURVE",
"472 1441 CURVE",
"447 1396 LINE",
"560 1339 OFFCURVE",
"620 1292 OFFCURVE",
"667 1220 CURVE",
"429 1067 LINE",
"466 1008 LINE",
"695 1156 LINE",
"750 1051 OFFCURVE",
"771 980 OFFCURVE",
"776 884 CURVE",
"769 884 LINE",
"746 929 OFFCURVE",
"704 950 OFFCURVE",
"637 950 CURVE SMOOTH {name = hr00;}"
);
},
{
closed = 1;
nodes = (
"715 873 OFFCURVE",
"741 834 OFFCURVE",
"741 755 CURVE SMOOTH",
"741 493 OFFCURVE",
"438 44 OFFCURVE",
"262 44 CURVE SMOOTH",
"209 44 OFFCURVE",
"183 84 OFFCURVE",
"183 171 CURVE SMOOTH",
"183 449 OFFCURVE",
"470 873 OFFCURVE",
"658 873 CURVE SMOOTH"
);
}
);
width = 977;
}
);
unicode = 00F0;
},
{
glyphname = dcroat;
layers = (
{
components = (
{
name = d;
}
);
layerId = master01;
paths = (
{
closed = 1;
nodes = (
"737 1239 LINE",
"1243 1239 LINE",
"1211 1165 LINE",
"708 1165 LINE"
);
}
);
width = 1061;
},
{
components = (
{
name = d;
}
);
layerId = "5CF0B95A-6341-4D13-90DE-0CF1719C21EC";
paths = (
{
closed = 1;
nodes = (
"737 1239 LINE",
"1243 1239 LINE",
"1211 1165 LINE",
"708 1165 LINE"
);
}
);
width = 1061;
}
);
leftKerningGroup = d;
rightKerningGroup = d;
unicode = 0111;
},
{
glyphname = e;
layers = (
{
anchors = (
{
name = bottom;
position = "{246, 0}";
},
{
name = top;
position = "{744, 1146}";
}
);
layerId = master01;
paths = (
{
closed = 1;
nodes = (
"804 950 OFFCURVE",
"869 905 OFFCURVE",
"869 829 CURVE SMOOTH",
"869 681 OFFCURVE",
"623 535 OFFCURVE",
"271 473 CURVE",
"204 348 OFFCURVE",
"171 243 OFFCURVE",
"171 162 CURVE SMOOTH",
"171 81 OFFCURVE",
"204 44 OFFCURVE",
"273 44 CURVE SMOOTH",
"382 44 OFFCURVE",
"532 141 OFFCURVE",
"635 280 CURVE",
"674 255 LINE",
"530 74 OFFCURVE",
"378 -18 OFFCURVE",
"229 -18 CURVE SMOOTH",
"84 -18 OFFCURVE",
"0 69 OFFCURVE",
"0 220 CURVE SMOOTH",
"0 544 OFFCURVE",
"389 950 OFFCURVE",
"700 950 CURVE SMOOTH {name = hr00;}"
);
},
{
closed = 1;
nodes = (
"528 574 OFFCURVE",
"729 722 OFFCURVE",
"729 843 CURVE SMOOTH",
"729 878 OFFCURVE",
"711 896 OFFCURVE",
"672 896 CURVE SMOOTH",
"576 896 OFFCURVE",
"445 785 OFFCURVE",
"366 635 CURVE SMOOTH",
"310 532 LINE"
);
}
);
width = 854;
},
{
anchors = (
{
name = bottom;
position = "{246, 0}";
},
{
name = top;
position = "{744, 1146}";
}
);
layerId = "5CF0B95A-6341-4D13-90DE-0CF1719C21EC";
paths = (
{
closed = 1;
nodes = (
"804 950 OFFCURVE",
"869 905 OFFCURVE",
"869 829 CURVE SMOOTH",
"869 681 OFFCURVE",
"623 535 OFFCURVE",
"271 473 CURVE",
"204 348 OFFCURVE",
"171 243 OFFCURVE",
"171 162 CURVE SMOOTH",
"171 81 OFFCURVE",
"204 44 OFFCURVE",
"273 44 CURVE SMOOTH",
"382 44 OFFCURVE",
"532 141 OFFCURVE",
"635 280 CURVE",
"674 255 LINE",
"530 74 OFFCURVE",
"378 -18 OFFCURVE",
"229 -18 CURVE SMOOTH",
"84 -18 OFFCURVE",
"0 69 OFFCURVE",
"0 220 CURVE SMOOTH",
"0 544 OFFCURVE",
"389 950 OFFCURVE",
"700 950 CURVE SMOOTH {name = hr00;}"
);
},
{
closed = 1;
nodes = (
"528 574 OFFCURVE",
"729 722 OFFCURVE",
"729 843 CURVE SMOOTH",
"729 878 OFFCURVE",
"711 896 OFFCURVE",
"672 896 CURVE SMOOTH",
"576 896 OFFCURVE",
"445 785 OFFCURVE",
"366 635 CURVE SMOOTH",
"310 532 LINE"
);
}
);
width = 854;
}
);
leftKerningGroup = e;
rightKerningGroup = e;
unicode = 0065;
},
{
glyphname = schwa;
layers = (
{
anchors = (
{
name = bottom;
position = "{181, 0}";
},
{
name = top;
position = "{679, 1146}";
}
);
layerId = master01;
paths = (
{
closed = 1;
nodes = (
"0 -18 OFFCURVE",
"-65 28 OFFCURVE",
"-65 104 CURVE SMOOTH",
"-65 252 OFFCURVE",
"181 398 OFFCURVE",
"533 459 CURVE",
"600 584 OFFCURVE",
"634 690 OFFCURVE",
"634 771 CURVE SMOOTH",
"634 852 OFFCURVE",
"600 889 OFFCURVE",
"532 889 CURVE SMOOTH",
"422 889 OFFCURVE",
"273 792 OFFCURVE",
"169 653 CURVE",
"130 678 LINE",
"275 859 OFFCURVE",
"426 950 OFFCURVE",
"576 950 CURVE SMOOTH",
"720 950 OFFCURVE",
"804 864 OFFCURVE",
"804 713 CURVE SMOOTH",
"804 389 OFFCURVE",
"415 -18 OFFCURVE",
"104 -18 CURVE {name = hr00;}"
);
},
{
closed = 1;
nodes = (
"276 359 OFFCURVE",
"76 211 OFFCURVE",
"76 90 CURVE SMOOTH",
"76 55 OFFCURVE",
"93 37 OFFCURVE",
"132 37 CURVE SMOOTH",
"229 37 OFFCURVE",
"359 148 OFFCURVE",
"438 297 CURVE",
"495 401 LINE"
);
}
);
width = 855;
},
{
anchors = (
{
name = bottom;
position = "{181, 0}";
},
{
name = top;
position = "{679, 1146}";
}
);
layerId = "5CF0B95A-6341-4D13-90DE-0CF1719C21EC";
paths = (
{
closed = 1;
nodes = (
"0 -18 OFFCURVE",
"-65 28 OFFCURVE",
"-65 104 CURVE SMOOTH",
"-65 252 OFFCURVE",
"181 398 OFFCURVE",
"533 459 CURVE",
"600 584 OFFCURVE",
"634 690 OFFCURVE",
"634 771 CURVE SMOOTH",
"634 852 OFFCURVE",
"600 889 OFFCURVE",
"532 889 CURVE SMOOTH",
"422 889 OFFCURVE",
"273 792 OFFCURVE",
"169 653 CURVE",
"130 678 LINE",
"275 859 OFFCURVE",
"426 950 OFFCURVE",
"576 950 CURVE SMOOTH",
"720 950 OFFCURVE",
"804 864 OFFCURVE",
"804 713 CURVE SMOOTH",
"804 389 OFFCURVE",
"415 -18 OFFCURVE",
"104 -18 CURVE {name = hr00;}"
);
},
{
closed = 1;
nodes = (
"276 359 OFFCURVE",
"76 211 OFFCURVE",
"76 90 CURVE SMOOTH",
"76 55 OFFCURVE",
"93 37 OFFCURVE",
"132 37 CURVE SMOOTH",
"229 37 OFFCURVE",
"359 148 OFFCURVE",
"438 297 CURVE",
"495 401 LINE"
);
}
);
width = 855;
}
);
unicode = 0259;
},
{
glyphname = f;
layers = (
{
layerId = master01;
paths = (
{
closed = 1;
nodes = (
"1037 1461 OFFCURVE",
"1146 1382 OFFCURVE",
"1146 1278 CURVE SMOOTH",
"1146 1227 OFFCURVE",
"1114 1193 OFFCURVE",
"1061 1193 CURVE SMOOTH",
"1016 1193 OFFCURVE",
"979 1225 OFFCURVE",
"979 1271 CURVE SMOOTH",
"979 1304 OFFCURVE",
"991 1325 OFFCURVE",
"991 1352 CURVE SMOOTH",
"991 1390 OFFCURVE",
"954 1413 OFFCURVE",
"901 1413 CURVE SMOOTH",
"785 1413 OFFCURVE",
"685 1301 OFFCURVE",
"579 1038 CURVE SMOOTH",
"537 933 LINE",
"709 933 LINE {name = hr01;}",
"686 876 LINE",
"516 876 LINE",
"292 357 LINE SMOOTH",
"51 -204 OFFCURVE",
"-164 -451 OFFCURVE",
"-410 -451 CURVE SMOOTH",
"-528 -451 OFFCURVE",
"-602 -391 OFFCURVE",
"-602 -304 CURVE SMOOTH",
"-602 -259 OFFCURVE",
"-570 -232 OFFCURVE",
"-519 -232 CURVE SMOOTH",
"-400 -232 OFFCURVE",
"-451 -389 OFFCURVE",
"-357 -389 CURVE SMOOTH",
"-264 -389 OFFCURVE",
"-125 -227 OFFCURVE",
"69 252 CURVE SMOOTH",
"322 876 LINE",
"167 876 LINE",
"188 933 LINE",
"345 933 LINE {name = hr02;}",
"400 1056 LINE SMOOTH",
"530 1350 OFFCURVE",
"723 1461 OFFCURVE",
"910 1461 CURVE SMOOTH"
);
}
);
width = 570;
},
{
layerId = "5CF0B95A-6341-4D13-90DE-0CF1719C21EC";
paths = (
{
closed = 1;
nodes = (
"1037 1461 OFFCURVE",
"1146 1382 OFFCURVE",
"1146 1278 CURVE SMOOTH",
"1146 1227 OFFCURVE",
"1114 1193 OFFCURVE",
"1061 1193 CURVE SMOOTH",
"1016 1193 OFFCURVE",
"979 1225 OFFCURVE",
"979 1271 CURVE SMOOTH",
"979 1304 OFFCURVE",
"991 1325 OFFCURVE",
"991 1352 CURVE SMOOTH",
"991 1390 OFFCURVE",
"954 1413 OFFCURVE",
"901 1413 CURVE SMOOTH",
"785 1413 OFFCURVE",
"685 1301 OFFCURVE",
"579 1038 CURVE SMOOTH",
"537 933 LINE",
"709 933 LINE {name = hr01;}",
"686 876 LINE",
"516 876 LINE",
"292 357 LINE SMOOTH",
"51 -204 OFFCURVE",
"-164 -451 OFFCURVE",
"-410 -451 CURVE SMOOTH",
"-528 -451 OFFCURVE",
"-602 -391 OFFCURVE",
"-602 -304 CURVE SMOOTH",
"-602 -259 OFFCURVE",
"-570 -232 OFFCURVE",
"-519 -232 CURVE SMOOTH",
"-400 -232 OFFCURVE",
"-451 -389 OFFCURVE",
"-357 -389 CURVE SMOOTH",
"-264 -389 OFFCURVE",
"-125 -227 OFFCURVE",
"69 252 CURVE SMOOTH",
"322 876 LINE",
"167 876 LINE",
"188 933 LINE",
"345 933 LINE {name = hr02;}",
"400 1056 LINE SMOOTH",
"530 1350 OFFCURVE",
"723 1461 OFFCURVE",
"910 1461 CURVE SMOOTH"
);
}
);
width = 570;
}
);
leftKerningGroup = f;
rightKerningGroup = f;
unicode = 0066;
},
{
glyphname = g;
layers = (
{
anchors = (
{
name = top;
position = "{693, 1146}";
}
);
layerId = master01;
paths = (
{
closed = 1;
nodes = (
"537 384 OFFCURVE",
"662 574 OFFCURVE",
"662 767 CURVE SMOOTH",
"662 848 OFFCURVE",
"635 885 OFFCURVE",
"567 885 CURVE SMOOTH",
"451 885 OFFCURVE",
"303 692 OFFCURVE",
"303 528 CURVE SMOOTH",
"303 436 OFFCURVE",
"341 384 OFFCURVE",
"408 384 CURVE SMOOTH"
);
},
{
closed = 1;
nodes = (
"989 950 OFFCURVE",
"1028 910 OFFCURVE",
"1028 862 CURVE SMOOTH",
"1028 822 OFFCURVE",
"994 792 OFFCURVE",
"954 792 CURVE SMOOTH",
"903 792 OFFCURVE",
"892 841 OFFCURVE",
"848 841 CURVE SMOOTH",
"824 841 OFFCURVE",
"797 824 OFFCURVE",
"785 799 CURVE",
"811 744 OFFCURVE",
"818 709 OFFCURVE",
"818 662 CURVE SMOOTH",
"818 475 OFFCURVE",
"653 324 OFFCURVE",
"451 324 CURVE SMOOTH",
"414 324 OFFCURVE",
"357 329 OFFCURVE",
"313 329 CURVE SMOOTH",
"204 329 OFFCURVE",
"153 301 OFFCURVE",
"153 250 CURVE SMOOTH {name = hr01;}",
"153 209 OFFCURVE",
"181 180 OFFCURVE",
"241 160 CURVE SMOOTH",
"516 67 LINE SMOOTH",
"628 28 OFFCURVE",
"700 -60 OFFCURVE",
"700 -162 CURVE SMOOTH",
"700 -329 OFFCURVE",
"503 -451 OFFCURVE",
"227 -451 CURVE SMOOTH",
"-28 -451 OFFCURVE",
"-202 -345 OFFCURVE",
"-202 -185 CURVE SMOOTH",
"-202 -49 OFFCURVE",
"-76 56 OFFCURVE",
"93 56 CURVE",
"44 93 OFFCURVE",
"16 148 OFFCURVE",
"16 204 CURVE SMOOTH",
"16 313 OFFCURVE",
"114 380 OFFCURVE",
"278 380 CURVE",
"280 387 LINE",
"195 447 OFFCURVE",
"150 526 OFFCURVE",
"150 620 CURVE SMOOTH {name = hr02;}",
"150 796 OFFCURVE",
"322 950 OFFCURVE",
"523 950 CURVE SMOOTH",
"618 950 OFFCURVE",
"693 915 OFFCURVE",
"752 843 CURVE",
"813 915 OFFCURVE",
"873 950 OFFCURVE",
"929 950 CURVE SMOOTH"
);
},
{
closed = 1;
nodes = (
"433 -398 OFFCURVE",
"560 -322 OFFCURVE",
"560 -220 CURVE SMOOTH",
"560 -162 OFFCURVE",
"505 -102 OFFCURVE",
"429 -76 CURVE SMOOTH",
"204 0 LINE SMOOTH",
"178 9 OFFCURVE",
"165 11 OFFCURVE",
"148 11 CURVE SMOOTH {name = hr04;}",
"35 11 OFFCURVE",
"-48 -79 OFFCURVE",
"-48 -188 CURVE SMOOTH",
"-48 -319 OFFCURVE",
"70 -398 OFFCURVE",
"252 -398 CURVE SMOOTH"
);
}
);
width = 928;
},
{
anchors = (
{
name = top;
position = "{693, 1146}";
}
);
layerId = "5CF0B95A-6341-4D13-90DE-0CF1719C21EC";
paths = (
{
closed = 1;
nodes = (
"537 384 OFFCURVE",
"662 574 OFFCURVE",
"662 767 CURVE SMOOTH",
"662 848 OFFCURVE",
"635 885 OFFCURVE",
"567 885 CURVE SMOOTH",
"451 885 OFFCURVE",
"303 692 OFFCURVE",
"303 528 CURVE SMOOTH",
"303 436 OFFCURVE",
"341 384 OFFCURVE",
"408 384 CURVE SMOOTH"
);
},
{
closed = 1;
nodes = (
"989 950 OFFCURVE",
"1028 910 OFFCURVE",
"1028 862 CURVE SMOOTH",
"1028 822 OFFCURVE",
"994 792 OFFCURVE",
"954 792 CURVE SMOOTH",
"903 792 OFFCURVE",
"892 841 OFFCURVE",
"848 841 CURVE SMOOTH",
"824 841 OFFCURVE",
"797 824 OFFCURVE",
"785 799 CURVE",
"811 744 OFFCURVE",
"818 709 OFFCURVE",
"818 662 CURVE SMOOTH",
"818 475 OFFCURVE",
"653 324 OFFCURVE",
"451 324 CURVE SMOOTH",
"414 324 OFFCURVE",
"357 329 OFFCURVE",
"313 329 CURVE SMOOTH",
"204 329 OFFCURVE",
"153 301 OFFCURVE",
"153 250 CURVE SMOOTH {name = hr01;}",
"153 209 OFFCURVE",
"181 180 OFFCURVE",
"241 160 CURVE SMOOTH",
"516 67 LINE SMOOTH",
"628 28 OFFCURVE",
"700 -60 OFFCURVE",
"700 -162 CURVE SMOOTH",
"700 -329 OFFCURVE",
"503 -451 OFFCURVE",
"227 -451 CURVE SMOOTH",
"-28 -451 OFFCURVE",
"-202 -345 OFFCURVE",
"-202 -185 CURVE SMOOTH",
"-202 -49 OFFCURVE",
"-76 56 OFFCURVE",
"93 56 CURVE",
"44 93 OFFCURVE",
"16 148 OFFCURVE",
"16 204 CURVE SMOOTH",
"16 313 OFFCURVE",
"114 380 OFFCURVE",
"278 380 CURVE",
"280 387 LINE",
"195 447 OFFCURVE",
"150 526 OFFCURVE",
"150 620 CURVE SMOOTH {name = hr02;}",
"150 796 OFFCURVE",
"322 950 OFFCURVE",
"523 950 CURVE SMOOTH",
"618 950 OFFCURVE",
"693 915 OFFCURVE",
"752 843 CURVE",
"813 915 OFFCURVE",
"873 950 OFFCURVE",
"929 950 CURVE SMOOTH"
);
},
{
closed = 1;
nodes = (
"433 -398 OFFCURVE",
"560 -322 OFFCURVE",
"560 -220 CURVE SMOOTH",
"560 -162 OFFCURVE",
"505 -102 OFFCURVE",
"429 -76 CURVE SMOOTH",
"204 0 LINE SMOOTH",
"178 9 OFFCURVE",
"165 11 OFFCURVE",
"148 11 CURVE SMOOTH {name = hr04;}",
"35 11 OFFCURVE",
"-48 -79 OFFCURVE",
"-48 -188 CURVE SMOOTH",
"-48 -319 OFFCURVE",
"70 -398 OFFCURVE",
"252 -398 CURVE SMOOTH"
);
}
);
width = 928;
}
);
leftKerningGroup = g;
rightKerningGroup = g;
unicode = 0067;
},
{
glyphname = h;
layers = (
{
anchors = (
{
name = bottom;
position = "{294, 0}";
},
{
name = top;
position = "{864, 1146}";
}
);
layerId = master01;
paths = (
{
closed = 1;
nodes = (
"102 0 LINE",
"262 341 LINE SMOOTH",
"408 653 OFFCURVE",
"618 889 OFFCURVE",
"737 889 CURVE SMOOTH",
"771 889 OFFCURVE",
"788 871 OFFCURVE",
"788 840 CURVE SMOOTH",
"788 815 OFFCURVE",
"780 785 OFFCURVE",
"764 752 CURVE SMOOTH",
"528 278 LINE SMOOTH",
"488 197 OFFCURVE",
"466 132 OFFCURVE",
"466 84 CURVE SMOOTH",
"466 16 OFFCURVE",
"495 -18 OFFCURVE",
"570 -18 CURVE SMOOTH {name = hr01;}",
"681 -18 OFFCURVE",
"801 63 OFFCURVE",
"920 218 CURVE",
"884 245 LINE",
"799 150 OFFCURVE",
"722 86 OFFCURVE",
"683 86 CURVE SMOOTH",
"667 86 OFFCURVE",
"656 95 OFFCURVE",
"656 113 CURVE SMOOTH",
"656 134 OFFCURVE",
"669 165 OFFCURVE",
"692 213 CURVE SMOOTH",
"898 634 LINE SMOOTH",
"933 706 OFFCURVE",
"945 762 OFFCURVE",
"945 810 CURVE SMOOTH",
"945 899 OFFCURVE",
"880 949 OFFCURVE",
"783 949 CURVE SMOOTH",
"651 949 OFFCURVE",
"537 868 OFFCURVE",
"389 669 CURVE",
"380 672 LINE",
"715 1443 LINE",
"378 1443 LINE",
"382 1417 LINE {name = hr02;}",
"516 1396 LINE",
"-62 0 LINE"
);
}
);
width = 1047;
},
{
anchors = (
{
name = bottom;
position = "{294, 0}";
},
{
name = top;
position = "{864, 1146}";
}
);
layerId = "5CF0B95A-6341-4D13-90DE-0CF1719C21EC";
paths = (
{
closed = 1;
nodes = (
"102 0 LINE",
"262 341 LINE SMOOTH",
"408 653 OFFCURVE",
"618 889 OFFCURVE",
"737 889 CURVE SMOOTH",
"771 889 OFFCURVE",
"788 871 OFFCURVE",
"788 840 CURVE SMOOTH",
"788 815 OFFCURVE",
"780 785 OFFCURVE",
"764 752 CURVE SMOOTH",
"528 278 LINE SMOOTH",
"488 197 OFFCURVE",
"466 132 OFFCURVE",
"466 84 CURVE SMOOTH",
"466 16 OFFCURVE",
"495 -18 OFFCURVE",
"570 -18 CURVE SMOOTH {name = hr01;}",
"681 -18 OFFCURVE",
"801 63 OFFCURVE",
"920 218 CURVE",
"884 245 LINE",
"799 150 OFFCURVE",
"722 86 OFFCURVE",
"683 86 CURVE SMOOTH",
"667 86 OFFCURVE",
"656 95 OFFCURVE",
"656 113 CURVE SMOOTH",
"656 134 OFFCURVE",
"669 165 OFFCURVE",
"692 213 CURVE SMOOTH",
"898 634 LINE SMOOTH",
"933 706 OFFCURVE",
"945 762 OFFCURVE",
"945 810 CURVE SMOOTH",
"945 899 OFFCURVE",
"880 949 OFFCURVE",
"783 949 CURVE SMOOTH",
"651 949 OFFCURVE",
"537 868 OFFCURVE",
"389 669 CURVE",
"380 672 LINE",
"715 1443 LINE",
"378 1443 LINE",
"382 1417 LINE {name = hr02;}",
"516 1396 LINE",
"-62 0 LINE"
);
}
);
width = 1047;
}
);
leftKerningGroup = h;
rightKerningGroup = n;
unicode = 0068;
},
{
glyphname = hbar;
layers = (
{
components = (
{
name = h;
}
);
layerId = master01;
paths = (
{
closed = 1;
nodes = (
"820 1239 LINE",
"315 1239 LINE",
"285 1165 LINE",
"788 1165 LINE"
);
}
);
width = 1047;
},
{
components = (
{
name = h;
}
);
layerId = "5CF0B95A-6341-4D13-90DE-0CF1719C21EC";
paths = (
{
closed = 1;
nodes = (
"820 1239 LINE",
"315 1239 LINE",
"285 1165 LINE",
"788 1165 LINE"
);
}
);
width = 1047;
}
);
leftKerningGroup = h;
rightKerningGroup = n;
unicode = 0127;
},
{
glyphname = i;
layers = (
{
anchors = (
{
name = bottom;
position = "{158, 0}";
}
);
layerId = master01;
paths = (
{
closed = 1;
nodes = (
"600 1373 OFFCURVE",
"653 1331 OFFCURVE",
"653 1276 CURVE SMOOTH",
"653 1213 OFFCURVE",
"588 1153 OFFCURVE",
"521 1153 CURVE SMOOTH",
"454 1153 OFFCURVE",
"412 1193 OFFCURVE",
"412 1253 CURVE SMOOTH",
"412 1318 OFFCURVE",
"473 1373 OFFCURVE",
"540 1373 CURVE SMOOTH {name = hr00;}"
);
},
{
closed = 1;
nodes = (
"466 950 OFFCURVE",
"514 920 OFFCURVE",
"514 864 CURVE SMOOTH",
"514 831 OFFCURVE",
"503 790 OFFCURVE",
"486 748 CURVE SMOOTH",
"234 143 LINE SMOOTH",
"231 134 OFFCURVE",
"229 127 OFFCURVE",
"229 120 CURVE SMOOTH",
"229 100 OFFCURVE",
"243 86 OFFCURVE",
"264 86 CURVE SMOOTH",
"297 86 OFFCURVE",
"334 114 OFFCURVE",
"449 227 CURVE",
"484 206 LINE",
"375 67 OFFCURVE",
"243 -18 OFFCURVE",
"155 -18 CURVE SMOOTH",
"86 -18 OFFCURVE",
"40 14 OFFCURVE",
"40 81 CURVE SMOOTH",
"40 111 OFFCURVE",
"48 150 OFFCURVE",
"67 195 CURVE SMOOTH",
"322 822 LINE SMOOTH",
"329 838 OFFCURVE",
"331 848 OFFCURVE",
"331 855 CURVE SMOOTH",
"331 866 OFFCURVE",
"324 871 OFFCURVE",
"308 871 CURVE SMOOTH",
"266 871 OFFCURVE",
"206 829 OFFCURVE",
"153 762 CURVE",
"113 794 LINE",
"192 891 OFFCURVE",
"306 950 OFFCURVE",
"400 950 CURVE SMOOTH"
);
}
);
width = 598;
},
{
anchors = (
{
name = bottom;
position = "{158, 0}";
}
);
layerId = "5CF0B95A-6341-4D13-90DE-0CF1719C21EC";
paths = (
{
closed = 1;
nodes = (
"600 1373 OFFCURVE",
"653 1331 OFFCURVE",
"653 1276 CURVE SMOOTH",
"653 1213 OFFCURVE",
"588 1153 OFFCURVE",
"521 1153 CURVE SMOOTH",
"454 1153 OFFCURVE",
"412 1193 OFFCURVE",
"412 1253 CURVE SMOOTH",
"412 1318 OFFCURVE",
"473 1373 OFFCURVE",
"540 1373 CURVE SMOOTH {name = hr00;}"
);
},
{
closed = 1;
nodes = (
"466 950 OFFCURVE",
"514 920 OFFCURVE",
"514 864 CURVE SMOOTH",
"514 831 OFFCURVE",
"503 790 OFFCURVE",
"486 748 CURVE SMOOTH",
"234 143 LINE SMOOTH",
"231 134 OFFCURVE",
"229 127 OFFCURVE",
"229 120 CURVE SMOOTH",
"229 100 OFFCURVE",
"243 86 OFFCURVE",
"264 86 CURVE SMOOTH",
"297 86 OFFCURVE",
"334 114 OFFCURVE",
"449 227 CURVE",
"484 206 LINE",
"375 67 OFFCURVE",
"243 -18 OFFCURVE",
"155 -18 CURVE SMOOTH",
"86 -18 OFFCURVE",
"40 14 OFFCURVE",
"40 81 CURVE SMOOTH",
"40 111 OFFCURVE",
"48 150 OFFCURVE",
"67 195 CURVE SMOOTH",
"322 822 LINE SMOOTH",
"329 838 OFFCURVE",
"331 848 OFFCURVE",
"331 855 CURVE SMOOTH",
"331 866 OFFCURVE",
"324 871 OFFCURVE",
"308 871 CURVE SMOOTH",
"266 871 OFFCURVE",
"206 829 OFFCURVE",
"153 762 CURVE",
"113 794 LINE",
"192 891 OFFCURVE",
"306 950 OFFCURVE",
"400 950 CURVE SMOOTH"
);
}
);
width = 598;
}
);
leftKerningGroup = i;
rightKerningGroup = i;
unicode = 0069;
},
{
glyphname = dotlessi;
layers = (
{
anchors = (
{
name = bottom;
position = "{158, 0}";
},
{
name = top;
position = "{524, 1146}";
}
);
layerId = master01;
paths = (
{
closed = 1;
nodes = (
"466 950 OFFCURVE",
"514 920 OFFCURVE",
"514 864 CURVE SMOOTH",
"514 831 OFFCURVE",
"503 790 OFFCURVE",
"486 748 CURVE SMOOTH",
"234 143 LINE SMOOTH",
"231 134 OFFCURVE",
"229 127 OFFCURVE",
"229 120 CURVE SMOOTH",
"229 100 OFFCURVE",
"243 86 OFFCURVE",
"264 86 CURVE SMOOTH",
"297 86 OFFCURVE",
"334 114 OFFCURVE",
"449 227 CURVE",
"484 206 LINE",
"375 67 OFFCURVE",
"243 -18 OFFCURVE",
"155 -18 CURVE SMOOTH",
"86 -18 OFFCURVE",
"40 14 OFFCURVE",
"40 81 CURVE SMOOTH",
"40 111 OFFCURVE",
"48 150 OFFCURVE",
"67 195 CURVE SMOOTH",
"322 822 LINE SMOOTH",
"329 838 OFFCURVE",
"331 848 OFFCURVE",
"331 855 CURVE SMOOTH",
"331 866 OFFCURVE",
"324 871 OFFCURVE",
"308 871 CURVE SMOOTH",
"266 871 OFFCURVE",
"206 829 OFFCURVE",
"153 762 CURVE",
"113 794 LINE",
"192 891 OFFCURVE",
"306 950 OFFCURVE",
"400 950 CURVE SMOOTH {name = hr00;}"
);
}
);
width = 598;
},
{
anchors = (
{
name = bottom;
position = "{158, 0}";
},
{
name = top;
position = "{524, 1146}";
}
);
layerId = "5CF0B95A-6341-4D13-90DE-0CF1719C21EC";
paths = (
{
closed = 1;
nodes = (
"466 950 OFFCURVE",
"514 920 OFFCURVE",
"514 864 CURVE SMOOTH",
"514 831 OFFCURVE",
"503 790 OFFCURVE",
"486 748 CURVE SMOOTH",
"234 143 LINE SMOOTH",
"231 134 OFFCURVE",
"229 127 OFFCURVE",
"229 120 CURVE SMOOTH",
"229 100 OFFCURVE",
"243 86 OFFCURVE",
"264 86 CURVE SMOOTH",
"297 86 OFFCURVE",
"334 114 OFFCURVE",
"449 227 CURVE",
"484 206 LINE",
"375 67 OFFCURVE",
"243 -18 OFFCURVE",
"155 -18 CURVE SMOOTH",
"86 -18 OFFCURVE",
"40 14 OFFCURVE",
"40 81 CURVE SMOOTH",
"40 111 OFFCURVE",
"48 150 OFFCURVE",
"67 195 CURVE SMOOTH",
"322 822 LINE SMOOTH",
"329 838 OFFCURVE",
"331 848 OFFCURVE",
"331 855 CURVE SMOOTH",
"331 866 OFFCURVE",
"324 871 OFFCURVE",
"308 871 CURVE SMOOTH",
"266 871 OFFCURVE",
"206 829 OFFCURVE",
"153 762 CURVE",
"113 794 LINE",
"192 891 OFFCURVE",
"306 950 OFFCURVE",
"400 950 CURVE SMOOTH {name = hr00;}"
);
}
);
width = 598;
}
);
leftKerningGroup = i;
rightKerningGroup = i;
unicode = 0131;
},
{
glyphname = j;
layers = (
{
layerId = master01;
paths = (
{
closed = 1;
nodes = (
"463 950 OFFCURVE",
"500 919 OFFCURVE",
"500 866 CURVE SMOOTH",
"498 803 OFFCURVE",
"444 635 OFFCURVE",
"319 357 CURVE SMOOTH",
"95 -143 LINE SMOOTH",
"5 -341 OFFCURVE",
"-132 -451 OFFCURVE",
"-306 -451 CURVE SMOOTH",
"-426 -451 OFFCURVE",
"-512 -398 OFFCURVE",
"-512 -315 CURVE SMOOTH",
"-512 -262 OFFCURVE",
"-486 -232 OFFCURVE",
"-431 -232 CURVE SMOOTH",
"-308 -232 OFFCURVE",
"-368 -389 OFFCURVE",
"-255 -389 CURVE SMOOTH",
"-185 -389 OFFCURVE",
"-125 -310 OFFCURVE",
"-23 -49 CURVE SMOOTH",
"171 444 LINE SMOOTH {name = hr01;}",
"285 737 OFFCURVE",
"312 806 OFFCURVE",
"312 843 CURVE SMOOTH",
"312 861 OFFCURVE",
"304 866 OFFCURVE",
"287 866 CURVE SMOOTH",
"245 866 OFFCURVE",
"194 829 OFFCURVE",
"141 762 CURVE",
"104 794 LINE {name = hr02;}",
"188 894 OFFCURVE",
"294 950 OFFCURVE",
"389 950 CURVE SMOOTH"
);
},
{
closed = 1;
nodes = (
"591 1373 OFFCURVE",
"639 1327 OFFCURVE",
"639 1271 CURVE SMOOTH",
"639 1209 OFFCURVE",
"579 1153 OFFCURVE",
"509 1153 CURVE SMOOTH",
"444 1153 OFFCURVE",
"403 1197 OFFCURVE",
"403 1253 CURVE SMOOTH",
"403 1318 OFFCURVE",
"459 1373 OFFCURVE",
"528 1373 CURVE SMOOTH"
);
}
);
width = 539;
},
{
layerId = "5CF0B95A-6341-4D13-90DE-0CF1719C21EC";
paths = (
{
closed = 1;
nodes = (
"463 950 OFFCURVE",
"500 919 OFFCURVE",
"500 866 CURVE SMOOTH",
"498 803 OFFCURVE",
"444 635 OFFCURVE",
"319 357 CURVE SMOOTH",
"95 -143 LINE SMOOTH",
"5 -341 OFFCURVE",
"-132 -451 OFFCURVE",
"-306 -451 CURVE SMOOTH",
"-426 -451 OFFCURVE",
"-512 -398 OFFCURVE",
"-512 -315 CURVE SMOOTH",
"-512 -262 OFFCURVE",
"-486 -232 OFFCURVE",
"-431 -232 CURVE SMOOTH",
"-308 -232 OFFCURVE",
"-368 -389 OFFCURVE",
"-255 -389 CURVE SMOOTH",
"-185 -389 OFFCURVE",
"-125 -310 OFFCURVE",
"-23 -49 CURVE SMOOTH",
"171 444 LINE SMOOTH {name = hr01;}",
"285 737 OFFCURVE",
"312 806 OFFCURVE",
"312 843 CURVE SMOOTH",
"312 861 OFFCURVE",
"304 866 OFFCURVE",
"287 866 CURVE SMOOTH",
"245 866 OFFCURVE",
"194 829 OFFCURVE",
"141 762 CURVE",
"104 794 LINE {name = hr02;}",
"188 894 OFFCURVE",
"294 950 OFFCURVE",
"389 950 CURVE SMOOTH"
);
},
{
closed = 1;
nodes = (
"591 1373 OFFCURVE",
"639 1327 OFFCURVE",
"639 1271 CURVE SMOOTH",
"639 1209 OFFCURVE",
"579 1153 OFFCURVE",
"509 1153 CURVE SMOOTH",
"444 1153 OFFCURVE",
"403 1197 OFFCURVE",
"403 1253 CURVE SMOOTH",
"403 1318 OFFCURVE",
"459 1373 OFFCURVE",
"528 1373 CURVE SMOOTH"
);
}
);
width = 539;
}
);
leftKerningGroup = j;
rightKerningGroup = j;
unicode = 006A;
},
{
glyphname = dotlessj;
layers = (
{
anchors = (
{
name = top;
position = "{519, 1146}";
}
);
layerId = master01;
paths = (
{
closed = 1;
nodes = (
"463 950 OFFCURVE",
"500 919 OFFCURVE",
"500 866 CURVE SMOOTH",
"498 803 OFFCURVE",
"444 635 OFFCURVE",
"319 357 CURVE SMOOTH",
"95 -143 LINE SMOOTH",
"5 -341 OFFCURVE",
"-132 -451 OFFCURVE",
"-306 -451 CURVE SMOOTH",
"-426 -451 OFFCURVE",
"-512 -398 OFFCURVE",
"-512 -315 CURVE SMOOTH",
"-512 -262 OFFCURVE",
"-486 -232 OFFCURVE",
"-431 -232 CURVE SMOOTH",
"-308 -232 OFFCURVE",
"-368 -389 OFFCURVE",
"-255 -389 CURVE SMOOTH",
"-185 -389 OFFCURVE",
"-125 -310 OFFCURVE",
"-23 -49 CURVE SMOOTH {name = hr01;}",
"171 444 LINE SMOOTH",
"285 737 OFFCURVE",
"312 806 OFFCURVE",
"312 843 CURVE SMOOTH",
"312 861 OFFCURVE",
"304 866 OFFCURVE",
"287 866 CURVE SMOOTH",
"245 866 OFFCURVE",
"194 829 OFFCURVE",
"141 762 CURVE",
"104 794 LINE",
"188 894 OFFCURVE",
"294 950 OFFCURVE",
"389 950 CURVE SMOOTH"
);
}
);
width = 539;
},
{
anchors = (
{
name = top;
position = "{519, 1146}";
}
);
layerId = "5CF0B95A-6341-4D13-90DE-0CF1719C21EC";
paths = (
{
closed = 1;
nodes = (
"463 950 OFFCURVE",
"500 919 OFFCURVE",
"500 866 CURVE SMOOTH",
"498 803 OFFCURVE",
"444 635 OFFCURVE",
"319 357 CURVE SMOOTH",
"95 -143 LINE SMOOTH",
"5 -341 OFFCURVE",
"-132 -451 OFFCURVE",
"-306 -451 CURVE SMOOTH",
"-426 -451 OFFCURVE",
"-512 -398 OFFCURVE",
"-512 -315 CURVE SMOOTH",
"-512 -262 OFFCURVE",
"-486 -232 OFFCURVE",
"-431 -232 CURVE SMOOTH",
"-308 -232 OFFCURVE",
"-368 -389 OFFCURVE",
"-255 -389 CURVE SMOOTH",
"-185 -389 OFFCURVE",
"-125 -310 OFFCURVE",
"-23 -49 CURVE SMOOTH {name = hr01;}",
"171 444 LINE SMOOTH",
"285 737 OFFCURVE",
"312 806 OFFCURVE",
"312 843 CURVE SMOOTH",
"312 861 OFFCURVE",
"304 866 OFFCURVE",
"287 866 CURVE SMOOTH",
"245 866 OFFCURVE",
"194 829 OFFCURVE",
"141 762 CURVE",
"104 794 LINE",
"188 894 OFFCURVE",
"294 950 OFFCURVE",
"389 950 CURVE SMOOTH"
);
}
);
width = 539;
}
);
leftKerningGroup = j;
rightKerningGroup = j;
unicode = 0237;
},
{
glyphname = k;
layers = (
{
anchors = (
{
name = bottom;
position = "{303, 0}";
}
);
layerId = master01;
paths = (
{
closed = 1;
nodes = (
"723 1443 LINE",
"452 813 LINE",
"459 813 LINE",
"532 896 OFFCURVE",
"651 950 OFFCURVE",
"760 950 CURVE SMOOTH",
"868 950 OFFCURVE",
"926 903 OFFCURVE",
"926 818 CURVE SMOOTH",
"926 685 OFFCURVE",
"715 516 OFFCURVE",
"463 447 CURVE",
"583 195 LINE SMOOTH",
"632 93 OFFCURVE",
"655 58 OFFCURVE",
"692 58 CURVE SMOOTH",
"729 58 OFFCURVE",
"769 86 OFFCURVE",
"811 141 CURVE",
"847 121 LINE",
"801 42 OFFCURVE",
"704 -18 OFFCURVE",
"618 -18 CURVE SMOOTH",
"533 -18 OFFCURVE",
"473 37 OFFCURVE",
"415 158 CURVE SMOOTH {name = hr01;}",
"294 414 LINE",
"280 414 LINE",
"113 0 LINE",
"-63 0 LINE",
"523 1396 LINE",
"391 1417 LINE",
"387 1443 LINE"
);
},
{
closed = 1;
nodes = (
"433 722 OFFCURVE",
"370 628 OFFCURVE",
"310 472 CURVE",
"544 486 OFFCURVE",
"750 646 OFFCURVE",
"750 803 CURVE SMOOTH",
"750 850 OFFCURVE",
"727 873 OFFCURVE",
"683 873 CURVE SMOOTH",
"630 873 OFFCURVE",
"577 847 OFFCURVE",
"519 797 CURVE SMOOTH"
);
}
);
width = 986;
},
{
anchors = (
{
name = bottom;
position = "{303, 0}";
}
);
layerId = "5CF0B95A-6341-4D13-90DE-0CF1719C21EC";
paths = (
{
closed = 1;
nodes = (
"723 1443 LINE",
"452 813 LINE",
"459 813 LINE",
"532 896 OFFCURVE",
"651 950 OFFCURVE",
"760 950 CURVE SMOOTH",
"868 950 OFFCURVE",
"926 903 OFFCURVE",
"926 818 CURVE SMOOTH",
"926 685 OFFCURVE",
"715 516 OFFCURVE",
"463 447 CURVE",
"583 195 LINE SMOOTH",
"632 93 OFFCURVE",
"655 58 OFFCURVE",
"692 58 CURVE SMOOTH",
"729 58 OFFCURVE",
"769 86 OFFCURVE",
"811 141 CURVE",
"847 121 LINE",
"801 42 OFFCURVE",
"704 -18 OFFCURVE",
"618 -18 CURVE SMOOTH",
"533 -18 OFFCURVE",
"473 37 OFFCURVE",
"415 158 CURVE SMOOTH {name = hr01;}",
"294 414 LINE",
"280 414 LINE",
"113 0 LINE",
"-63 0 LINE",
"523 1396 LINE",
"391 1417 LINE",
"387 1443 LINE"
);
},
{
closed = 1;
nodes = (
"433 722 OFFCURVE",
"370 628 OFFCURVE",
"310 472 CURVE",
"544 486 OFFCURVE",
"750 646 OFFCURVE",
"750 803 CURVE SMOOTH",
"750 850 OFFCURVE",
"727 873 OFFCURVE",
"683 873 CURVE SMOOTH",
"630 873 OFFCURVE",
"577 847 OFFCURVE",
"519 797 CURVE SMOOTH"
);
}
);
width = 986;
}
);
leftKerningGroup = h;
rightKerningGroup = k;
unicode = 006B;
},
{
glyphname = kgreenlandic;
layers = (
{
layerId = master01;
paths = (
{
closed = 1;
nodes = (
"535 933 LINE",
"480 813 LINE",
"488 813 LINE",
"560 896 OFFCURVE",
"679 950 OFFCURVE",
"788 950 CURVE SMOOTH",
"896 950 OFFCURVE",
"954 903 OFFCURVE",
"954 818 CURVE SMOOTH",
"954 685 OFFCURVE",
"743 516 OFFCURVE",
"491 447 CURVE",
"611 195 LINE SMOOTH",
"660 93 OFFCURVE",
"683 58 OFFCURVE",
"720 58 CURVE SMOOTH",
"757 58 OFFCURVE",
"797 86 OFFCURVE",
"840 141 CURVE",
"875 121 LINE",
"829 42 OFFCURVE",
"732 -18 OFFCURVE",
"646 -18 CURVE SMOOTH",
"561 -18 OFFCURVE",
"502 37 OFFCURVE",
"444 158 CURVE SMOOTH {name = hr01;}",
"322 414 LINE",
"308 414 LINE",
"141 0 LINE",
"-35 0 LINE",
"334 885 LINE",
"202 906 LINE",
"199 933 LINE"
);
},
{
closed = 1;
nodes = (
"461 722 OFFCURVE",
"398 628 OFFCURVE",
"338 472 CURVE",
"572 486 OFFCURVE",
"778 646 OFFCURVE",
"778 803 CURVE SMOOTH",
"778 850 OFFCURVE",
"755 873 OFFCURVE",
"711 873 CURVE SMOOTH",
"658 873 OFFCURVE",
"605 847 OFFCURVE",
"547 797 CURVE SMOOTH"
);
}
);
width = 1014;
},
{
layerId = "5CF0B95A-6341-4D13-90DE-0CF1719C21EC";
paths = (
{
closed = 1;
nodes = (
"535 933 LINE",
"480 813 LINE",
"488 813 LINE",
"560 896 OFFCURVE",
"679 950 OFFCURVE",
"788 950 CURVE SMOOTH",
"896 950 OFFCURVE",
"954 903 OFFCURVE",
"954 818 CURVE SMOOTH",
"954 685 OFFCURVE",
"743 516 OFFCURVE",
"491 447 CURVE",
"611 195 LINE SMOOTH",
"660 93 OFFCURVE",
"683 58 OFFCURVE",
"720 58 CURVE SMOOTH",
"757 58 OFFCURVE",
"797 86 OFFCURVE",
"840 141 CURVE",
"875 121 LINE",
"829 42 OFFCURVE",
"732 -18 OFFCURVE",
"646 -18 CURVE SMOOTH",
"561 -18 OFFCURVE",
"502 37 OFFCURVE",
"444 158 CURVE SMOOTH {name = hr01;}",
"322 414 LINE",
"308 414 LINE",
"141 0 LINE",
"-35 0 LINE",
"334 885 LINE",
"202 906 LINE",
"199 933 LINE"
);
},
{
closed = 1;
nodes = (
"461 722 OFFCURVE",
"398 628 OFFCURVE",
"338 472 CURVE",
"572 486 OFFCURVE",
"778 646 OFFCURVE",
"778 803 CURVE SMOOTH",
"778 850 OFFCURVE",
"755 873 OFFCURVE",
"711 873 CURVE SMOOTH",
"658 873 OFFCURVE",
"605 847 OFFCURVE",
"547 797 CURVE SMOOTH"
);
}
);
width = 1014;
}
);
unicode = 0138;
},
{
glyphname = l;
layers = (
{
anchors = (
{
name = topcap;
position = "{662, 1508}";
}
);
layerId = master01;
paths = (
{
closed = 1;
nodes = (
"727 1443 LINE",
"338 537 LINE SMOOTH",
"204 227 OFFCURVE",
"174 158 OFFCURVE",
"174 118 CURVE SMOOTH",
"174 99 OFFCURVE",
"194 86 OFFCURVE",
"211 86 CURVE SMOOTH",
"239 86 OFFCURVE",
"283 107 OFFCURVE",
"396 227 CURVE",
"435 206 LINE",
"317 62 OFFCURVE",
"183 -18 OFFCURVE",
"88 -18 CURVE SMOOTH",
"32 -18 OFFCURVE",
"-2 25 OFFCURVE",
"-2 92 CURVE SMOOTH",
"-2 155 OFFCURVE",
"28 232 OFFCURVE",
"275 820 CURVE SMOOTH",
"516 1396 LINE",
"382 1417 LINE",
"378 1443 LINE {name = hr00;}"
);
}
);
width = 556;
},
{
anchors = (
{
name = topcap;
position = "{662, 1508}";
}
);
layerId = "5CF0B95A-6341-4D13-90DE-0CF1719C21EC";
paths = (
{
closed = 1;
nodes = (
"727 1443 LINE",
"338 537 LINE SMOOTH",
"204 227 OFFCURVE",
"174 158 OFFCURVE",
"174 118 CURVE SMOOTH",
"174 99 OFFCURVE",
"194 86 OFFCURVE",
"211 86 CURVE SMOOTH",
"239 86 OFFCURVE",
"283 107 OFFCURVE",
"396 227 CURVE",
"435 206 LINE",
"317 62 OFFCURVE",
"183 -18 OFFCURVE",
"88 -18 CURVE SMOOTH",
"32 -18 OFFCURVE",
"-2 25 OFFCURVE",
"-2 92 CURVE SMOOTH",
"-2 155 OFFCURVE",
"28 232 OFFCURVE",
"275 820 CURVE SMOOTH",
"516 1396 LINE",
"382 1417 LINE",
"378 1443 LINE {name = hr00;}"
);
}
);
width = 556;
}
);
leftKerningGroup = l;
rightKerningGroup = l;
unicode = 006C;
},
{
glyphname = lslash;
layers = (
{
components = (
{
name = l;
transform = "{1, 0, 0, 1, 53, 0}";
}
);
layerId = master01;
paths = (
{
closed = 1;
nodes = (
"12 567 LINE",
"709 898 LINE",
"706 811 LINE",
"12 482 LINE"
);
}
);
width = 618;
},
{
components = (
{
name = l;
transform = "{1, 0, 0, 1, 53, 0}";
}
);
layerId = "5CF0B95A-6341-4D13-90DE-0CF1719C21EC";
paths = (
{
closed = 1;
nodes = (
"12 567 LINE",
"709 898 LINE",
"706 811 LINE",
"12 482 LINE"
);
}
);
width = 618;
}
);
leftKerningGroup = l;
rightKerningGroup = l;
unicode = 0142;
},
{
glyphname = m;
layers = (
{
layerId = master01;
paths = (
{
closed = 1;
nodes = (
"924 669 LINE",
"1051 862 OFFCURVE",
"1165 949 OFFCURVE",
"1292 949 CURVE SMOOTH",
"1392 949 OFFCURVE",
"1445 894 OFFCURVE",
"1445 794 CURVE SMOOTH",
"1445 744 OFFCURVE",
"1433 699 OFFCURVE",
"1403 634 CURVE SMOOTH",
"1214 213 LINE SMOOTH {name = hr01;}",
"1186 151 OFFCURVE",
"1177 127 OFFCURVE",
"1177 113 CURVE SMOOTH",
"1177 95 OFFCURVE",
"1186 86 OFFCURVE",
"1204 86 CURVE SMOOTH",
"1243 86 OFFCURVE",
"1322 148 OFFCURVE",
"1406 245 CURVE",
"1443 218 LINE",
"1324 65 OFFCURVE",
"1200 -18 OFFCURVE",
"1091 -18 CURVE SMOOTH",
"1023 -18 OFFCURVE",
"986 14 OFFCURVE",
"986 74 CURVE SMOOTH",
"986 120 OFFCURVE",
"1007 185 OFFCURVE",
"1049 278 CURVE SMOOTH",
"1269 752 LINE SMOOTH",
"1285 785 OFFCURVE",
"1294 815 OFFCURVE",
"1294 836 CURVE SMOOTH",
"1294 868 OFFCURVE",
"1272 889 OFFCURVE",
"1241 889 CURVE SMOOTH {name = hr02;}",
"1130 889 OFFCURVE",
"936 656 OFFCURVE",
"808 364 CURVE SMOOTH",
"646 0 LINE",
"456 0 LINE",
"801 752 LINE SMOOTH",
"815 783 OFFCURVE",
"824 815 OFFCURVE",
"824 836 CURVE SMOOTH",
"824 868 OFFCURVE",
"803 889 OFFCURVE",
"767 889 CURVE SMOOTH",
"653 889 OFFCURVE",
"466 662 OFFCURVE",
"319 341 CURVE SMOOTH",
"160 0 LINE",
"-11 0 LINE",
"327 785 LINE SMOOTH",
"340 813 OFFCURVE",
"347 836 OFFCURVE",
"347 848 CURVE SMOOTH {name = hr03;}",
"347 862 OFFCURVE",
"336 871 OFFCURVE",
"320 871 CURVE SMOOTH",
"278 871 OFFCURVE",
"202 810 OFFCURVE",
"136 722 CURVE",
"100 750 LINE {name = hr04;}",
"190 873 OFFCURVE",
"320 950 OFFCURVE",
"433 950 CURVE SMOOTH",
"491 950 OFFCURVE",
"517 929 OFFCURVE",
"517 880 CURVE SMOOTH",
"517 834 OFFCURVE",
"495 773 OFFCURVE",
"438 672 CURVE",
"447 669 LINE",
"586 868 OFFCURVE",
"693 949 OFFCURVE",
"820 949 CURVE SMOOTH",
"913 949 OFFCURVE",
"964 905 OFFCURVE",
"964 820 CURVE SMOOTH",
"964 774 OFFCURVE",
"949 725 OFFCURVE",
"917 672 CURVE"
);
}
);
width = 1568;
},
{
layerId = "5CF0B95A-6341-4D13-90DE-0CF1719C21EC";
paths = (
{
closed = 1;
nodes = (
"924 669 LINE",
"1051 862 OFFCURVE",
"1165 949 OFFCURVE",
"1292 949 CURVE SMOOTH",
"1392 949 OFFCURVE",
"1445 894 OFFCURVE",
"1445 794 CURVE SMOOTH",
"1445 744 OFFCURVE",
"1433 699 OFFCURVE",
"1403 634 CURVE SMOOTH",
"1214 213 LINE SMOOTH {name = hr01;}",
"1186 151 OFFCURVE",
"1177 127 OFFCURVE",
"1177 113 CURVE SMOOTH",
"1177 95 OFFCURVE",
"1186 86 OFFCURVE",
"1204 86 CURVE SMOOTH",
"1243 86 OFFCURVE",
"1322 148 OFFCURVE",
"1406 245 CURVE",
"1443 218 LINE",
"1324 65 OFFCURVE",
"1200 -18 OFFCURVE",
"1091 -18 CURVE SMOOTH",
"1023 -18 OFFCURVE",
"986 14 OFFCURVE",
"986 74 CURVE SMOOTH",
"986 120 OFFCURVE",
"1007 185 OFFCURVE",
"1049 278 CURVE SMOOTH",
"1269 752 LINE SMOOTH",
"1285 785 OFFCURVE",
"1294 815 OFFCURVE",
"1294 836 CURVE SMOOTH",
"1294 868 OFFCURVE",
"1272 889 OFFCURVE",
"1241 889 CURVE SMOOTH {name = hr02;}",
"1130 889 OFFCURVE",
"936 656 OFFCURVE",
"808 364 CURVE SMOOTH",
"646 0 LINE",
"456 0 LINE",
"801 752 LINE SMOOTH",
"815 783 OFFCURVE",
"824 815 OFFCURVE",
"824 836 CURVE SMOOTH",
"824 868 OFFCURVE",
"803 889 OFFCURVE",
"767 889 CURVE SMOOTH",
"653 889 OFFCURVE",
"466 662 OFFCURVE",
"319 341 CURVE SMOOTH",
"160 0 LINE",
"-11 0 LINE",
"327 785 LINE SMOOTH",
"340 813 OFFCURVE",
"347 836 OFFCURVE",
"347 848 CURVE SMOOTH {name = hr03;}",
"347 862 OFFCURVE",
"336 871 OFFCURVE",
"320 871 CURVE SMOOTH",
"278 871 OFFCURVE",
"202 810 OFFCURVE",
"136 722 CURVE",
"100 750 LINE {name = hr04;}",
"190 873 OFFCURVE",
"320 950 OFFCURVE",
"433 950 CURVE SMOOTH",
"491 950 OFFCURVE",
"517 929 OFFCURVE",
"517 880 CURVE SMOOTH",
"517 834 OFFCURVE",
"495 773 OFFCURVE",
"438 672 CURVE",
"447 669 LINE",
"586 868 OFFCURVE",
"693 949 OFFCURVE",
"820 949 CURVE SMOOTH",
"913 949 OFFCURVE",
"964 905 OFFCURVE",
"964 820 CURVE SMOOTH",
"964 774 OFFCURVE",
"949 725 OFFCURVE",
"917 672 CURVE"
);
}
);
width = 1568;
}
);
leftKerningGroup = n;
rightKerningGroup = n;
unicode = 006D;
},
{
glyphname = n;
layers = (
{
anchors = (
{
name = bottom;
position = "{317, 0}";
},
{
name = top;
position = "{794, 1146}";
}
);
layerId = master01;
paths = (
{
closed = 1;
nodes = (
"493 950 OFFCURVE",
"517 929 OFFCURVE",
"517 880 CURVE SMOOTH",
"517 832 OFFCURVE",
"496 776 OFFCURVE",
"440 672 CURVE",
"447 669 LINE",
"598 868 OFFCURVE",
"713 949 OFFCURVE",
"843 949 CURVE SMOOTH",
"949 949 OFFCURVE",
"1003 896 OFFCURVE",
"1003 796 CURVE SMOOTH",
"1003 744 OFFCURVE",
"989 693 OFFCURVE",
"959 634 CURVE SMOOTH",
"753 213 LINE SMOOTH",
"732 171 OFFCURVE",
"718 130 OFFCURVE",
"718 111 CURVE SMOOTH",
"718 93 OFFCURVE",
"725 86 OFFCURVE",
"739 86 CURVE SMOOTH {name = hr01;}",
"780 86 OFFCURVE",
"855 144 OFFCURVE",
"945 245 CURVE",
"982 218 LINE",
"857 62 OFFCURVE",
"737 -18 OFFCURVE",
"628 -18 CURVE SMOOTH",
"560 -18 OFFCURVE",
"524 14 OFFCURVE",
"524 76 CURVE SMOOTH",
"524 125 OFFCURVE",
"547 197 OFFCURVE",
"588 278 CURVE SMOOTH",
"827 752 LINE SMOOTH",
"840 776 OFFCURVE",
"850 810 OFFCURVE",
"850 836 CURVE SMOOTH",
"850 869 OFFCURVE",
"829 889 OFFCURVE",
"794 889 CURVE SMOOTH {name = hr02;}",
"674 889 OFFCURVE",
"475 656 OFFCURVE",
"324 341 CURVE SMOOTH",
"160 0 LINE",
"-11 0 LINE",
"327 785 LINE SMOOTH",
"340 815 OFFCURVE",
"347 834 OFFCURVE",
"347 845 CURVE SMOOTH",
"347 861 OFFCURVE",
"340 871 OFFCURVE",
"322 871 CURVE SMOOTH",
"282 871 OFFCURVE",
"208 811 OFFCURVE",
"136 722 CURVE",
"100 750 LINE {name = hr03;}",
"190 873 OFFCURVE",
"320 950 OFFCURVE",
"433 950 CURVE SMOOTH"
);
}
);
width = 1107;
},
{
anchors = (
{
name = bottom;
position = "{317, 0}";
},
{
name = top;
position = "{794, 1146}";
}
);
layerId = "5CF0B95A-6341-4D13-90DE-0CF1719C21EC";
paths = (
{
closed = 1;
nodes = (
"493 950 OFFCURVE",
"517 929 OFFCURVE",
"517 880 CURVE SMOOTH",
"517 832 OFFCURVE",
"496 776 OFFCURVE",
"440 672 CURVE",
"447 669 LINE",
"598 868 OFFCURVE",
"713 949 OFFCURVE",
"843 949 CURVE SMOOTH",
"949 949 OFFCURVE",
"1003 896 OFFCURVE",
"1003 796 CURVE SMOOTH",
"1003 744 OFFCURVE",
"989 693 OFFCURVE",
"959 634 CURVE SMOOTH",
"753 213 LINE SMOOTH",
"732 171 OFFCURVE",
"718 130 OFFCURVE",
"718 111 CURVE SMOOTH",
"718 93 OFFCURVE",
"725 86 OFFCURVE",
"739 86 CURVE SMOOTH {name = hr01;}",
"780 86 OFFCURVE",
"855 144 OFFCURVE",
"945 245 CURVE",
"982 218 LINE",
"857 62 OFFCURVE",
"737 -18 OFFCURVE",
"628 -18 CURVE SMOOTH",
"560 -18 OFFCURVE",
"524 14 OFFCURVE",
"524 76 CURVE SMOOTH",
"524 125 OFFCURVE",
"547 197 OFFCURVE",
"588 278 CURVE SMOOTH",
"827 752 LINE SMOOTH",
"840 776 OFFCURVE",
"850 810 OFFCURVE",
"850 836 CURVE SMOOTH",
"850 869 OFFCURVE",
"829 889 OFFCURVE",
"794 889 CURVE SMOOTH {name = hr02;}",
"674 889 OFFCURVE",
"475 656 OFFCURVE",
"324 341 CURVE SMOOTH",
"160 0 LINE",
"-11 0 LINE",
"327 785 LINE SMOOTH",
"340 815 OFFCURVE",
"347 834 OFFCURVE",
"347 845 CURVE SMOOTH",
"347 861 OFFCURVE",
"340 871 OFFCURVE",
"322 871 CURVE SMOOTH",
"282 871 OFFCURVE",
"208 811 OFFCURVE",
"136 722 CURVE",
"100 750 LINE {name = hr03;}",
"190 873 OFFCURVE",
"320 950 OFFCURVE",
"433 950 CURVE SMOOTH"
);
}
);
width = 1107;
}
);
leftKerningGroup = n;
rightKerningGroup = n;
unicode = 006E;
},
{
glyphname = eng;
layers = (
{
layerId = master01;
paths = (
{
closed = 1;
nodes = (
"371 -306 OFFCURVE",
"322 -389 OFFCURVE",
"246 -389 CURVE SMOOTH",
"141 -389 OFFCURVE",
"195 -232 OFFCURVE",
"74 -232 CURVE SMOOTH {name = hr01;}",
"19 -232 OFFCURVE",
"-7 -264 OFFCURVE",
"-7 -312 CURVE SMOOTH",
"-7 -400 OFFCURVE",
"79 -451 OFFCURVE",
"199 -451 CURVE SMOOTH",
"373 -451 OFFCURVE",
"509 -341 OFFCURVE",
"600 -143 CURVE SMOOTH",
"959 634 LINE SMOOTH",
"987 695 OFFCURVE",
"1003 744 OFFCURVE",
"1003 797 CURVE SMOOTH",
"1003 896 OFFCURVE",
"949 949 OFFCURVE",
"843 949 CURVE SMOOTH",
"713 949 OFFCURVE",
"598 868 OFFCURVE",
"447 669 CURVE",
"440 672 LINE",
"496 776 OFFCURVE",
"517 832 OFFCURVE",
"517 880 CURVE SMOOTH",
"517 929 OFFCURVE",
"493 950 OFFCURVE",
"433 950 CURVE SMOOTH {name = hr02;}",
"320 950 OFFCURVE",
"190 873 OFFCURVE",
"100 750 CURVE",
"136 722 LINE",
"208 811 OFFCURVE",
"282 871 OFFCURVE",
"322 871 CURVE SMOOTH",
"340 871 OFFCURVE",
"347 859 OFFCURVE",
"347 847 CURVE SMOOTH",
"347 832 OFFCURVE",
"340 815 OFFCURVE",
"327 785 CURVE SMOOTH",
"-11 0 LINE",
"160 0 LINE",
"324 341 LINE SMOOTH",
"475 656 OFFCURVE",
"674 889 OFFCURVE",
"794 889 CURVE SMOOTH {name = hr03;}",
"829 889 OFFCURVE",
"850 869 OFFCURVE",
"850 836 CURVE SMOOTH",
"850 810 OFFCURVE",
"838 776 OFFCURVE",
"827 752 CURVE SMOOTH",
"482 -49 LINE SMOOTH"
);
}
);
width = 1051;
},
{
layerId = "5CF0B95A-6341-4D13-90DE-0CF1719C21EC";
paths = (
{
closed = 1;
nodes = (
"371 -306 OFFCURVE",
"322 -389 OFFCURVE",
"246 -389 CURVE SMOOTH",
"141 -389 OFFCURVE",
"195 -232 OFFCURVE",
"74 -232 CURVE SMOOTH {name = hr01;}",
"19 -232 OFFCURVE",
"-7 -264 OFFCURVE",
"-7 -312 CURVE SMOOTH",
"-7 -400 OFFCURVE",
"79 -451 OFFCURVE",
"199 -451 CURVE SMOOTH",
"373 -451 OFFCURVE",
"509 -341 OFFCURVE",
"600 -143 CURVE SMOOTH",
"959 634 LINE SMOOTH",
"987 695 OFFCURVE",
"1003 744 OFFCURVE",
"1003 797 CURVE SMOOTH",
"1003 896 OFFCURVE",
"949 949 OFFCURVE",
"843 949 CURVE SMOOTH",
"713 949 OFFCURVE",
"598 868 OFFCURVE",
"447 669 CURVE",
"440 672 LINE",
"496 776 OFFCURVE",
"517 832 OFFCURVE",
"517 880 CURVE SMOOTH",
"517 929 OFFCURVE",
"493 950 OFFCURVE",
"433 950 CURVE SMOOTH {name = hr02;}",
"320 950 OFFCURVE",
"190 873 OFFCURVE",
"100 750 CURVE",
"136 722 LINE",
"208 811 OFFCURVE",
"282 871 OFFCURVE",
"322 871 CURVE SMOOTH",
"340 871 OFFCURVE",
"347 859 OFFCURVE",
"347 847 CURVE SMOOTH",
"347 832 OFFCURVE",
"340 815 OFFCURVE",
"327 785 CURVE SMOOTH",
"-11 0 LINE",
"160 0 LINE",
"324 341 LINE SMOOTH",
"475 656 OFFCURVE",
"674 889 OFFCURVE",
"794 889 CURVE SMOOTH {name = hr03;}",
"829 889 OFFCURVE",
"850 869 OFFCURVE",
"850 836 CURVE SMOOTH",
"850 810 OFFCURVE",
"838 776 OFFCURVE",
"827 752 CURVE SMOOTH",
"482 -49 LINE SMOOTH"
);
}
);
width = 1051;
}
);
leftKerningGroup = n;
unicode = 014B;
},
{
glyphname = o;
layers = (
{
anchors = (
{
name = bottom;
position = "{287, 0}";
},
{
name = top;
position = "{769, 1146}";
}
);
layerId = master01;
paths = (
{
closed = 1;
nodes = (
"116 -18 OFFCURVE",
"23 93 OFFCURVE",
"23 273 CURVE SMOOTH",
"23 586 OFFCURVE",
"352 950 OFFCURVE",
"644 950 CURVE SMOOTH",
"811 950 OFFCURVE",
"906 840 OFFCURVE",
"906 662 CURVE SMOOTH",
"906 345 OFFCURVE",
"574 -18 OFFCURVE",
"283 -18 CURVE SMOOTH {name = hr00;}"
);
},
{
closed = 1;
nodes = (
"479 889 OFFCURVE",
"183 447 OFFCURVE",
"183 172 CURVE SMOOTH",
"183 88 OFFCURVE",
"206 44 OFFCURVE",
"262 44 CURVE SMOOTH",
"438 44 OFFCURVE",
"750 509 OFFCURVE",
"750 769 CURVE SMOOTH",
"750 848 OFFCURVE",
"725 889 OFFCURVE",
"665 889 CURVE SMOOTH"
);
}
);
width = 980;
},
{
anchors = (
{
name = bottom;
position = "{287, 0}";
},
{
name = top;
position = "{769, 1146}";
}
);
layerId = "5CF0B95A-6341-4D13-90DE-0CF1719C21EC";
paths = (
{
closed = 1;
nodes = (
"116 -18 OFFCURVE",
"23 93 OFFCURVE",
"23 273 CURVE SMOOTH",
"23 586 OFFCURVE",
"352 950 OFFCURVE",
"644 950 CURVE SMOOTH",
"811 950 OFFCURVE",
"906 840 OFFCURVE",
"906 662 CURVE SMOOTH",
"906 345 OFFCURVE",
"574 -18 OFFCURVE",
"283 -18 CURVE SMOOTH {name = hr00;}"
);
},
{
closed = 1;
nodes = (
"479 889 OFFCURVE",
"183 447 OFFCURVE",
"183 172 CURVE SMOOTH",
"183 88 OFFCURVE",
"206 44 OFFCURVE",
"262 44 CURVE SMOOTH",
"438 44 OFFCURVE",
"750 509 OFFCURVE",
"750 769 CURVE SMOOTH",
"750 848 OFFCURVE",
"725 889 OFFCURVE",
"665 889 CURVE SMOOTH"
);
}
);
width = 980;
}
);
leftKerningGroup = o;
rightKerningGroup = o;
unicode = 006F;
},
{
glyphname = oslash;
layers = (
{
components = (
{
name = o;
}
);
layerId = master01;
paths = (
{
closed = 1;
nodes = (
"899 1158 LINE",
"996 1158 LINE",
"23 -211 LINE",
"-70 -211 LINE"
);
}
);
width = 980;
},
{
components = (
{
name = o;
}
);
layerId = "5CF0B95A-6341-4D13-90DE-0CF1719C21EC";
paths = (
{
closed = 1;
nodes = (
"899 1158 LINE",
"996 1158 LINE",
"23 -211 LINE",
"-70 -211 LINE"
);
}
);
width = 980;
}
);
leftKerningGroup = o;
rightKerningGroup = o;
unicode = 00F8;
},
{
glyphname = oslashacute;
layers = (
{
components = (
{
name = o;
},
{
name = acute;
transform = "{1, 0, 0, 1, 549, 0}";
}
);
layerId = master01;
paths = (
{
closed = 1;
nodes = (
"899 1158 LINE",
"996 1158 LINE",
"23 -211 LINE",
"-70 -211 LINE"
);
}
);
width = 980;
},
{
components = (
{
name = o;
},
{
name = acute;
transform = "{1, 0, 0, 1, 549, 0}";
}
);
layerId = "5CF0B95A-6341-4D13-90DE-0CF1719C21EC";
paths = (
{
closed = 1;
nodes = (
"899 1158 LINE",
"996 1158 LINE",
"23 -211 LINE",
"-70 -211 LINE"
);
}
);
width = 980;
}
);
leftKerningGroup = o;
rightKerningGroup = o;
unicode = 01FF;
},
{
glyphname = oe;
layers = (
{
layerId = master01;
paths = (
{
closed = 1;
nodes = (
"1410 950 OFFCURVE",
"1475 905 OFFCURVE",
"1475 829 CURVE SMOOTH",
"1475 681 OFFCURVE",
"1228 535 OFFCURVE",
"876 473 CURVE",
"866 456 OFFCURVE",
"857 438 OFFCURVE",
"850 422 CURVE SMOOTH",
"848 419 OFFCURVE",
"847 417 OFFCURVE",
"847 414 CURVE",
"799 315 OFFCURVE",
"776 229 OFFCURVE",
"776 162 CURVE SMOOTH",
"776 81 OFFCURVE",
"810 44 OFFCURVE",
"878 44 CURVE SMOOTH",
"987 44 OFFCURVE",
"1137 141 OFFCURVE",
"1241 280 CURVE",
"1280 255 LINE",
"1135 74 OFFCURVE",
"984 -18 OFFCURVE",
"834 -18 CURVE SMOOTH",
"723 -18 OFFCURVE",
"649 32 OFFCURVE",
"620 123 CURVE",
"516 37 OFFCURVE",
"396 -18 OFFCURVE",
"283 -18 CURVE SMOOTH",
"116 -18 OFFCURVE",
"23 93 OFFCURVE",
"23 273 CURVE SMOOTH",
"23 586 OFFCURVE",
"352 950 OFFCURVE",
"644 950 CURVE SMOOTH",
"778 950 OFFCURVE",
"864 880 OFFCURVE",
"894 760 CURVE",
"1021 873 OFFCURVE",
"1170 950 OFFCURVE",
"1306 950 CURVE SMOOTH"
);
},
{
closed = 1;
nodes = (
"479 889 OFFCURVE",
"183 447 OFFCURVE",
"183 172 CURVE SMOOTH",
"183 88 OFFCURVE",
"206 44 OFFCURVE",
"262 44 CURVE SMOOTH",
"438 44 OFFCURVE",
"750 509 OFFCURVE",
"750 769 CURVE SMOOTH {name = hr01;}",
"750 848 OFFCURVE",
"725 889 OFFCURVE",
"665 889 CURVE SMOOTH"
);
},
{
closed = 1;
nodes = (
"1133 574 OFFCURVE",
"1334 722 OFFCURVE",
"1334 843 CURVE SMOOTH",
"1334 878 OFFCURVE",
"1316 896 OFFCURVE",
"1278 896 CURVE SMOOTH {name = hr02;}",
"1181 896 OFFCURVE",
"1051 785 OFFCURVE",
"972 635 CURVE SMOOTH",
"915 532 LINE"
);
}
);
width = 1459;
},
{
layerId = "5CF0B95A-6341-4D13-90DE-0CF1719C21EC";
paths = (
{
closed = 1;
nodes = (
"1410 950 OFFCURVE",
"1475 905 OFFCURVE",
"1475 829 CURVE SMOOTH",
"1475 681 OFFCURVE",
"1228 535 OFFCURVE",
"876 473 CURVE",
"866 456 OFFCURVE",
"857 438 OFFCURVE",
"850 422 CURVE SMOOTH",
"848 419 OFFCURVE",
"847 417 OFFCURVE",
"847 414 CURVE",
"799 315 OFFCURVE",
"776 229 OFFCURVE",
"776 162 CURVE SMOOTH",
"776 81 OFFCURVE",
"810 44 OFFCURVE",
"878 44 CURVE SMOOTH",
"987 44 OFFCURVE",
"1137 141 OFFCURVE",
"1241 280 CURVE",
"1280 255 LINE",
"1135 74 OFFCURVE",
"984 -18 OFFCURVE",
"834 -18 CURVE SMOOTH",
"723 -18 OFFCURVE",
"649 32 OFFCURVE",
"620 123 CURVE",
"516 37 OFFCURVE",
"396 -18 OFFCURVE",
"283 -18 CURVE SMOOTH",
"116 -18 OFFCURVE",
"23 93 OFFCURVE",
"23 273 CURVE SMOOTH",
"23 586 OFFCURVE",
"352 950 OFFCURVE",
"644 950 CURVE SMOOTH",
"778 950 OFFCURVE",
"864 880 OFFCURVE",
"894 760 CURVE",
"1021 873 OFFCURVE",
"1170 950 OFFCURVE",
"1306 950 CURVE SMOOTH"
);
},
{
closed = 1;
nodes = (
"479 889 OFFCURVE",
"183 447 OFFCURVE",
"183 172 CURVE SMOOTH",
"183 88 OFFCURVE",
"206 44 OFFCURVE",
"262 44 CURVE SMOOTH",
"438 44 OFFCURVE",
"750 509 OFFCURVE",
"750 769 CURVE SMOOTH {name = hr01;}",
"750 848 OFFCURVE",
"725 889 OFFCURVE",
"665 889 CURVE SMOOTH"
);
},
{
closed = 1;
nodes = (
"1133 574 OFFCURVE",
"1334 722 OFFCURVE",
"1334 843 CURVE SMOOTH",
"1334 878 OFFCURVE",
"1316 896 OFFCURVE",
"1278 896 CURVE SMOOTH {name = hr02;}",
"1181 896 OFFCURVE",
"1051 785 OFFCURVE",
"972 635 CURVE SMOOTH",
"915 532 LINE"
);
}
);
width = 1459;
}
);
leftKerningGroup = o;
rightKerningGroup = e;
unicode = 0153;
},
{
glyphname = p;
layers = (
{
layerId = master01;
paths = (
{
closed = 1;
nodes = (
"532 950 LINE",
"773 926 OFFCURVE",
"906 790 OFFCURVE",
"906 612 CURVE SMOOTH",
"906 292 OFFCURVE",
"577 18 OFFCURVE",
"238 18 CURVE SMOOTH",
"211 18 OFFCURVE",
"178 19 OFFCURVE",
"146 23 CURVE",
"-25 -387 LINE",
"155 -408 LINE",
"155 -440 LINE",
"-348 -440 LINE",
"-348 -414 LINE",
"-208 -392 LINE",
"338 885 LINE",
"255 871 OFFCURVE",
"194 848 OFFCURVE",
"153 820 CURVE",
"139 855 LINE",
"197 896 OFFCURVE",
"275 926 OFFCURVE",
"357 938 CURVE",
"419 1089 LINE",
"595 1109 LINE {name = hr00;}"
);
},
{
closed = 1;
nodes = (
"187 69 OFFCURVE",
"197 69 OFFCURVE",
"211 69 CURVE SMOOTH",
"472 69 OFFCURVE",
"723 350 OFFCURVE",
"723 649 CURVE SMOOTH",
"723 808 OFFCURVE",
"646 894 OFFCURVE",
"540 894 CURVE SMOOTH",
"517 894 OFFCURVE",
"507 891 OFFCURVE",
"500 875 CURVE SMOOTH",
"165 70 LINE"
);
}
);
width = 996;
},
{
layerId = "5CF0B95A-6341-4D13-90DE-0CF1719C21EC";
paths = (
{
closed = 1;
nodes = (
"532 950 LINE",
"773 926 OFFCURVE",
"906 790 OFFCURVE",
"906 612 CURVE SMOOTH",
"906 292 OFFCURVE",
"577 18 OFFCURVE",
"238 18 CURVE SMOOTH",
"211 18 OFFCURVE",
"178 19 OFFCURVE",
"146 23 CURVE",
"-25 -387 LINE",
"155 -408 LINE",
"155 -440 LINE",
"-348 -440 LINE",
"-348 -414 LINE",
"-208 -392 LINE",
"338 885 LINE",
"255 871 OFFCURVE",
"194 848 OFFCURVE",
"153 820 CURVE",
"139 855 LINE",
"197 896 OFFCURVE",
"275 926 OFFCURVE",
"357 938 CURVE",
"419 1089 LINE",
"595 1109 LINE {name = hr00;}"
);
},
{
closed = 1;
nodes = (
"187 69 OFFCURVE",
"197 69 OFFCURVE",
"211 69 CURVE SMOOTH",
"472 69 OFFCURVE",
"723 350 OFFCURVE",
"723 649 CURVE SMOOTH",
"723 808 OFFCURVE",
"646 894 OFFCURVE",
"540 894 CURVE SMOOTH",
"517 894 OFFCURVE",
"507 891 OFFCURVE",
"500 875 CURVE SMOOTH",
"165 70 LINE"
);
}
);
width = 996;
}
);
rightKerningGroup = p;
unicode = 0070;
},
{
glyphname = thorn;
layers = (
{
layerId = master01;
paths = (
{
closed = 1;
nodes = (
"523 963 LINE",
"785 956 OFFCURVE",
"957 811 OFFCURVE",
"957 600 CURVE SMOOTH",
"957 303 OFFCURVE",
"598 18 OFFCURVE",
"224 18 CURVE SMOOTH",
"192 18 OFFCURVE",
"158 19 OFFCURVE",
"128 23 CURVE",
"-42 -387 LINE",
"137 -408 LINE",
"137 -440 LINE",
"-366 -440 LINE",
"-366 -414 LINE",
"-225 -392 LINE",
"517 1396 LINE",
"380 1417 LINE",
"373 1443 LINE",
"711 1443 LINE {name = hr00;}"
);
},
{
closed = 1;
nodes = (
"164 69 OFFCURVE",
"174 69 OFFCURVE",
"194 69 CURVE SMOOTH",
"484 69 OFFCURVE",
"774 354 OFFCURVE",
"774 639 CURVE SMOOTH",
"774 797 OFFCURVE",
"681 894 OFFCURVE",
"528 894 CURVE SMOOTH",
"496 894 OFFCURVE",
"488 891 OFFCURVE",
"482 875 CURVE SMOOTH",
"148 70 LINE"
);
}
);
width = 1042;
},
{
layerId = "5CF0B95A-6341-4D13-90DE-0CF1719C21EC";
paths = (
{
closed = 1;
nodes = (
"523 963 LINE",
"785 956 OFFCURVE",
"957 811 OFFCURVE",
"957 600 CURVE SMOOTH",
"957 303 OFFCURVE",
"598 18 OFFCURVE",
"224 18 CURVE SMOOTH",
"192 18 OFFCURVE",
"158 19 OFFCURVE",
"128 23 CURVE",
"-42 -387 LINE",
"137 -408 LINE",
"137 -440 LINE",
"-366 -440 LINE",
"-366 -414 LINE",
"-225 -392 LINE",
"517 1396 LINE",
"380 1417 LINE",
"373 1443 LINE",
"711 1443 LINE {name = hr00;}"
);
},
{
closed = 1;
nodes = (
"164 69 OFFCURVE",
"174 69 OFFCURVE",
"194 69 CURVE SMOOTH",
"484 69 OFFCURVE",
"774 354 OFFCURVE",
"774 639 CURVE SMOOTH",
"774 797 OFFCURVE",
"681 894 OFFCURVE",
"528 894 CURVE SMOOTH",
"496 894 OFFCURVE",
"488 891 OFFCURVE",
"482 875 CURVE SMOOTH",
"148 70 LINE"
);
}
);
width = 1042;
}
);
leftKerningGroup = h;
unicode = 00FE;
},
{
glyphname = q;
layers = (
{
layerId = master01;
paths = (
{
closed = 1;
nodes = (
"333 44 OFFCURVE",
"570 326 OFFCURVE",
"722 655 CURVE SMOOTH",
"759 737 OFFCURVE",
"766 771 OFFCURVE",
"767 806 CURVE",
"764 861 OFFCURVE",
"737 894 OFFCURVE",
"690 894 CURVE SMOOTH {name = hr01;}",
"510 894 OFFCURVE",
"153 385 OFFCURVE",
"153 134 CURVE SMOOTH",
"153 72 OFFCURVE",
"171 44 OFFCURVE",
"213 44 CURVE SMOOTH"
);
},
{
closed = 1;
nodes = (
"584 -408 LINE",
"584 -440 LINE",
"77 -440 LINE",
"77 -414 LINE",
"282 -384 LINE",
"556 262 LINE {name = hr02;}",
"553 268 LINE",
"401 60 OFFCURVE",
"299 -18 OFFCURVE",
"172 -18 CURVE SMOOTH",
"55 -18 OFFCURVE",
"-7 51 OFFCURVE",
"-7 192 CURVE SMOOTH",
"-7 523 OFFCURVE",
"368 950 OFFCURVE",
"669 950 CURVE SMOOTH {name = hr03;}",
"737 950 OFFCURVE",
"776 928 OFFCURVE",
"810 868 CURVE",
"841 933 LINE",
"1019 933 LINE",
"458 -392 LINE"
);
}
);
width = 1005;
},
{
layerId = "5CF0B95A-6341-4D13-90DE-0CF1719C21EC";
paths = (
{
closed = 1;
nodes = (
"333 44 OFFCURVE",
"570 326 OFFCURVE",
"722 655 CURVE SMOOTH",
"759 737 OFFCURVE",
"766 771 OFFCURVE",
"767 806 CURVE",
"764 861 OFFCURVE",
"737 894 OFFCURVE",
"690 894 CURVE SMOOTH {name = hr01;}",
"510 894 OFFCURVE",
"153 385 OFFCURVE",
"153 134 CURVE SMOOTH",
"153 72 OFFCURVE",
"171 44 OFFCURVE",
"213 44 CURVE SMOOTH"
);
},
{
closed = 1;
nodes = (
"584 -408 LINE",
"584 -440 LINE",
"77 -440 LINE",
"77 -414 LINE",
"282 -384 LINE",
"556 262 LINE {name = hr02;}",
"553 268 LINE",
"401 60 OFFCURVE",
"299 -18 OFFCURVE",
"172 -18 CURVE SMOOTH",
"55 -18 OFFCURVE",
"-7 51 OFFCURVE",
"-7 192 CURVE SMOOTH",
"-7 523 OFFCURVE",
"368 950 OFFCURVE",
"669 950 CURVE SMOOTH {name = hr03;}",
"737 950 OFFCURVE",
"776 928 OFFCURVE",
"810 868 CURVE",
"841 933 LINE",
"1019 933 LINE",
"458 -392 LINE"
);
}
);
width = 1005;
}
);
unicode = 0071;
},
{
glyphname = r;
layers = (
{
anchors = (
{
name = bottom;
position = "{76, 0}";
},
{
name = top;
position = "{656, 1146}";
}
);
layerId = master01;
paths = (
{
closed = 1;
nodes = (
"656 950 OFFCURVE",
"551 868 OFFCURVE",
"429 669 CURVE",
"421 672 LINE",
"480 769 OFFCURVE",
"496 813 OFFCURVE",
"496 861 CURVE SMOOTH",
"496 920 OFFCURVE",
"463 950 OFFCURVE",
"414 950 CURVE SMOOTH",
"317 950 OFFCURVE",
"192 869 OFFCURVE",
"99 750 CURVE",
"132 722 LINE",
"202 810 OFFCURVE",
"282 871 OFFCURVE",
"322 871 CURVE SMOOTH",
"336 871 OFFCURVE",
"345 864 OFFCURVE",
"345 850 CURVE SMOOTH",
"345 834 OFFCURVE",
"336 810 OFFCURVE",
"326 785 CURVE SMOOTH",
"-14 0 LINE",
"157 0 LINE",
"320 341 LINE SMOOTH",
"479 671 OFFCURVE",
"593 836 OFFCURVE",
"693 836 CURVE SMOOTH",
"759 836 OFFCURVE",
"757 773 OFFCURVE",
"825 773 CURVE SMOOTH",
"876 773 OFFCURVE",
"903 804 OFFCURVE",
"903 852 CURVE SMOOTH",
"903 912 OFFCURVE",
"847 950 OFFCURVE",
"771 950 CURVE SMOOTH {name = hr00;}"
);
}
);
width = 801;
},
{
anchors = (
{
name = bottom;
position = "{76, 0}";
},
{
name = top;
position = "{656, 1146}";
}
);
layerId = "5CF0B95A-6341-4D13-90DE-0CF1719C21EC";
paths = (
{
closed = 1;
nodes = (
"656 950 OFFCURVE",
"551 868 OFFCURVE",
"429 669 CURVE",
"421 672 LINE",
"480 769 OFFCURVE",
"496 813 OFFCURVE",
"496 861 CURVE SMOOTH",
"496 920 OFFCURVE",
"463 950 OFFCURVE",
"414 950 CURVE SMOOTH",
"317 950 OFFCURVE",
"192 869 OFFCURVE",
"99 750 CURVE",
"132 722 LINE",
"202 810 OFFCURVE",
"282 871 OFFCURVE",
"322 871 CURVE SMOOTH",
"336 871 OFFCURVE",
"345 864 OFFCURVE",
"345 850 CURVE SMOOTH",
"345 834 OFFCURVE",
"336 810 OFFCURVE",
"326 785 CURVE SMOOTH",
"-14 0 LINE",
"157 0 LINE",
"320 341 LINE SMOOTH",
"479 671 OFFCURVE",
"593 836 OFFCURVE",
"693 836 CURVE SMOOTH",
"759 836 OFFCURVE",
"757 773 OFFCURVE",
"825 773 CURVE SMOOTH",
"876 773 OFFCURVE",
"903 804 OFFCURVE",
"903 852 CURVE SMOOTH",
"903 912 OFFCURVE",
"847 950 OFFCURVE",
"771 950 CURVE SMOOTH {name = hr00;}"
);
}
);
width = 801;
}
);
leftKerningGroup = n;
rightKerningGroup = r;
unicode = 0072;
},
{
glyphname = s;
layers = (
{
anchors = (
{
name = bottom;
position = "{206, 0}";
},
{
name = top;
position = "{649, 1146}";
}
);
layerId = master01;
paths = (
{
closed = 1;
nodes = (
"315 950 OFFCURVE",
"169 832 OFFCURVE",
"169 686 CURVE SMOOTH",
"169 496 OFFCURVE",
"398 345 OFFCURVE",
"398 197 CURVE SMOOTH {name = hr02;}",
"398 106 OFFCURVE",
"334 37 OFFCURVE",
"234 37 CURVE SMOOTH",
"60 37 OFFCURVE",
"144 225 OFFCURVE",
"19 225 CURVE SMOOTH",
"-28 225 OFFCURVE",
"-60 197 OFFCURVE",
"-60 155 CURVE SMOOTH",
"-60 65 OFFCURVE",
"70 -18 OFFCURVE",
"225 -18 CURVE SMOOTH",
"419 -18 OFFCURVE",
"568 95 OFFCURVE",
"568 239 CURVE SMOOTH",
"568 419 OFFCURVE",
"347 576 OFFCURVE",
"347 741 CURVE SMOOTH",
"347 838 OFFCURVE",
"401 899 OFFCURVE",
"505 899 CURVE SMOOTH {name = hr01;}",
"579 899 OFFCURVE",
"595 880 OFFCURVE",
"607 794 CURVE SMOOTH",
"614 743 OFFCURVE",
"639 716 OFFCURVE",
"686 716 CURVE SMOOTH",
"732 716 OFFCURVE",
"766 746 OFFCURVE",
"766 788 CURVE SMOOTH",
"766 875 OFFCURVE",
"642 950 OFFCURVE",
"495 950 CURVE SMOOTH"
);
}
);
width = 776;
},
{
anchors = (
{
name = bottom;
position = "{206, 0}";
},
{
name = top;
position = "{649, 1146}";
}
);
layerId = "5CF0B95A-6341-4D13-90DE-0CF1719C21EC";
paths = (
{
closed = 1;
nodes = (
"315 950 OFFCURVE",
"169 832 OFFCURVE",
"169 686 CURVE SMOOTH",
"169 496 OFFCURVE",
"398 345 OFFCURVE",
"398 197 CURVE SMOOTH {name = hr02;}",
"398 106 OFFCURVE",
"334 37 OFFCURVE",
"234 37 CURVE SMOOTH",
"60 37 OFFCURVE",
"144 225 OFFCURVE",
"19 225 CURVE SMOOTH",
"-28 225 OFFCURVE",
"-60 197 OFFCURVE",
"-60 155 CURVE SMOOTH",
"-60 65 OFFCURVE",
"70 -18 OFFCURVE",
"225 -18 CURVE SMOOTH",
"419 -18 OFFCURVE",
"568 95 OFFCURVE",
"568 239 CURVE SMOOTH",
"568 419 OFFCURVE",
"347 576 OFFCURVE",
"347 741 CURVE SMOOTH",
"347 838 OFFCURVE",
"401 899 OFFCURVE",
"505 899 CURVE SMOOTH {name = hr01;}",
"579 899 OFFCURVE",
"595 880 OFFCURVE",
"607 794 CURVE SMOOTH",
"614 743 OFFCURVE",
"639 716 OFFCURVE",
"686 716 CURVE SMOOTH",
"732 716 OFFCURVE",
"766 746 OFFCURVE",
"766 788 CURVE SMOOTH",
"766 875 OFFCURVE",
"642 950 OFFCURVE",
"495 950 CURVE SMOOTH"
);
}
);
width = 776;
}
);
leftKerningGroup = s;
rightKerningGroup = s;
unicode = 0073;
},
{
glyphname = germandbls;
layers = (
{
layerId = master01;
paths = (
{
closed = 1;
nodes = (
"609 482 OFFCURVE",
"838 356 OFFCURVE",
"838 192 CURVE SMOOTH",
"838 102 OFFCURVE",
"769 37 OFFCURVE",
"671 37 CURVE SMOOTH",
"505 37 OFFCURVE",
"583 225 OFFCURVE",
"459 225 CURVE SMOOTH {name = hr01;}",
"412 225 OFFCURVE",
"380 197 OFFCURVE",
"380 153 CURVE SMOOTH",
"380 62 OFFCURVE",
"514 -18 OFFCURVE",
"671 -18 CURVE SMOOTH",
"859 -18 OFFCURVE",
"1008 97 OFFCURVE",
"1008 241 CURVE SMOOTH",
"1008 428 OFFCURVE",
"759 554 OFFCURVE",
"759 759 CURVE SMOOTH",
"759 998 OFFCURVE",
"1098 1030 OFFCURVE",
"1098 1251 CURVE SMOOTH {name = hr02;}",
"1098 1376 OFFCURVE",
"989 1461 OFFCURVE",
"829 1461 CURVE SMOOTH",
"616 1461 OFFCURVE",
"436 1309 OFFCURVE",
"347 1056 CURVE SMOOTH",
"58 252 LINE SMOOTH",
"-99 -183 OFFCURVE",
"-157 -285 OFFCURVE",
"-248 -285 CURVE SMOOTH",
"-363 -285 OFFCURVE",
"-303 -128 OFFCURVE",
"-431 -128 CURVE SMOOTH {name = hr03;}",
"-482 -128 OFFCURVE",
"-509 -153 OFFCURVE",
"-509 -202 CURVE SMOOTH",
"-509 -290 OFFCURVE",
"-422 -347 OFFCURVE",
"-290 -347 CURVE SMOOTH",
"-58 -347 OFFCURVE",
"81 -172 OFFCURVE",
"276 357 CURVE SMOOTH",
"526 1038 LINE SMOOTH",
"623 1302 OFFCURVE",
"711 1413 OFFCURVE",
"825 1413 CURVE SMOOTH",
"903 1413 OFFCURVE",
"945 1359 OFFCURVE",
"945 1258 CURVE SMOOTH",
"945 968 OFFCURVE",
"609 950 OFFCURVE",
"609 693 CURVE SMOOTH"
);
}
);
width = 1177;
},
{
layerId = "5CF0B95A-6341-4D13-90DE-0CF1719C21EC";
paths = (
{
closed = 1;
nodes = (
"609 482 OFFCURVE",
"838 356 OFFCURVE",
"838 192 CURVE SMOOTH",
"838 102 OFFCURVE",
"769 37 OFFCURVE",
"671 37 CURVE SMOOTH",
"505 37 OFFCURVE",
"583 225 OFFCURVE",
"459 225 CURVE SMOOTH {name = hr01;}",
"412 225 OFFCURVE",
"380 197 OFFCURVE",
"380 153 CURVE SMOOTH",
"380 62 OFFCURVE",
"514 -18 OFFCURVE",
"671 -18 CURVE SMOOTH",
"859 -18 OFFCURVE",
"1008 97 OFFCURVE",
"1008 241 CURVE SMOOTH",
"1008 428 OFFCURVE",
"759 554 OFFCURVE",
"759 759 CURVE SMOOTH",
"759 998 OFFCURVE",
"1098 1030 OFFCURVE",
"1098 1251 CURVE SMOOTH {name = hr02;}",
"1098 1376 OFFCURVE",
"989 1461 OFFCURVE",
"829 1461 CURVE SMOOTH",
"616 1461 OFFCURVE",
"436 1309 OFFCURVE",
"347 1056 CURVE SMOOTH",
"58 252 LINE SMOOTH",
"-99 -183 OFFCURVE",
"-157 -285 OFFCURVE",
"-248 -285 CURVE SMOOTH",
"-363 -285 OFFCURVE",
"-303 -128 OFFCURVE",
"-431 -128 CURVE SMOOTH {name = hr03;}",
"-482 -128 OFFCURVE",
"-509 -153 OFFCURVE",
"-509 -202 CURVE SMOOTH",
"-509 -290 OFFCURVE",
"-422 -347 OFFCURVE",
"-290 -347 CURVE SMOOTH",
"-58 -347 OFFCURVE",
"81 -172 OFFCURVE",
"276 357 CURVE SMOOTH",
"526 1038 LINE SMOOTH",
"623 1302 OFFCURVE",
"711 1413 OFFCURVE",
"825 1413 CURVE SMOOTH",
"903 1413 OFFCURVE",
"945 1359 OFFCURVE",
"945 1258 CURVE SMOOTH",
"945 968 OFFCURVE",
"609 950 OFFCURVE",
"609 693 CURVE SMOOTH"
);
}
);
width = 1177;
}
);
leftKerningGroup = h;
unicode = 00DF;
},
{
glyphname = t;
layers = (
{
anchors = (
{
name = bottom;
position = "{72, 0}";
}
);
layerId = master01;
paths = (
{
closed = 1;
nodes = (
"324 876 LINE",
"139 449 LINE SMOOTH",
"33 202 OFFCURVE",
"18 143 OFFCURVE",
"18 93 CURVE SMOOTH",
"18 16 OFFCURVE",
"40 -18 OFFCURVE",
"111 -18 CURVE SMOOTH",
"213 -18 OFFCURVE",
"338 63 OFFCURVE",
"451 206 CURVE",
"415 227 LINE",
"320 128 OFFCURVE",
"268 86 OFFCURVE",
"232 86 CURVE SMOOTH",
"206 86 OFFCURVE",
"194 102 OFFCURVE",
"194 128 CURVE SMOOTH",
"194 153 OFFCURVE",
"208 183 OFFCURVE",
"359 537 CURVE SMOOTH",
"505 876 LINE",
"664 876 LINE",
"683 933 LINE",
"528 933 LINE",
"648 1209 LINE",
"459 1192 LINE",
"348 933 LINE",
"197 933 LINE",
"178 876 LINE {name = hr00;}"
);
}
);
width = 597;
},
{
anchors = (
{
name = bottom;
position = "{72, 0}";
}
);
layerId = "5CF0B95A-6341-4D13-90DE-0CF1719C21EC";
paths = (
{
closed = 1;
nodes = (
"324 876 LINE",
"139 449 LINE SMOOTH",
"33 202 OFFCURVE",
"18 143 OFFCURVE",
"18 93 CURVE SMOOTH",
"18 16 OFFCURVE",
"40 -18 OFFCURVE",
"111 -18 CURVE SMOOTH",
"213 -18 OFFCURVE",
"338 63 OFFCURVE",
"451 206 CURVE",
"415 227 LINE",
"320 128 OFFCURVE",
"268 86 OFFCURVE",
"232 86 CURVE SMOOTH",
"206 86 OFFCURVE",
"194 102 OFFCURVE",
"194 128 CURVE SMOOTH",
"194 153 OFFCURVE",
"208 183 OFFCURVE",
"359 537 CURVE SMOOTH",
"505 876 LINE",
"664 876 LINE",
"683 933 LINE",
"528 933 LINE",
"648 1209 LINE",
"459 1192 LINE",
"348 933 LINE",
"197 933 LINE",
"178 876 LINE {name = hr00;}"
);
}
);
width = 597;
}
);
leftKerningGroup = t;
rightKerningGroup = t;
unicode = 0074;
},
{
glyphname = tbar;
layers = (
{
components = (
{
name = t;
transform = "{1, 0, 0, 1, 2, 0}";
}
);
layerId = master01;
paths = (
{
closed = 1;
nodes = (
"637 746 LINE",
"132 746 LINE",
"102 672 LINE",
"605 672 LINE"
);
}
);
width = 600;
},
{
components = (
{
name = t;
transform = "{1, 0, 0, 1, 2, 0}";
}
);
layerId = "5CF0B95A-6341-4D13-90DE-0CF1719C21EC";
paths = (
{
closed = 1;
nodes = (
"637 746 LINE",
"132 746 LINE",
"102 672 LINE",
"605 672 LINE"
);
}
);
width = 600;
}
);
leftKerningGroup = t;
rightKerningGroup = t;
unicode = 0167;
},
{
glyphname = u;
layers = (
{
anchors = (
{
name = bottom;
position = "{227, 0}";
},
{
name = top;
position = "{804, 1146}";
}
);
layerId = master01;
paths = (
{
closed = 1;
nodes = (
"222 885 OFFCURVE",
"327 950 OFFCURVE",
"426 950 CURVE SMOOTH",
"491 950 OFFCURVE",
"530 920 OFFCURVE",
"530 859 CURVE SMOOTH",
"530 810 OFFCURVE",
"509 739 OFFCURVE",
"468 655 CURVE SMOOTH",
"238 181 LINE SMOOTH",
"222 148 OFFCURVE",
"215 116 OFFCURVE",
"215 93 CURVE SMOOTH",
"215 62 OFFCURVE",
"239 44 OFFCURVE",
"268 44 CURVE SMOOTH",
"382 44 OFFCURVE",
"567 275 OFFCURVE",
"715 591 CURVE SMOOTH",
"875 933 LINE",
"1049 933 LINE {name = hr01;}",
"708 148 LINE SMOOTH",
"695 121 OFFCURVE",
"688 97 OFFCURVE",
"688 83 CURVE SMOOTH",
"688 69 OFFCURVE",
"700 62 OFFCURVE",
"713 62 CURVE SMOOTH",
"755 62 OFFCURVE",
"829 123 OFFCURVE",
"899 211 CURVE",
"935 183 LINE",
"841 63 OFFCURVE",
"725 -18 OFFCURVE",
"642 -18 CURVE SMOOTH",
"586 -18 OFFCURVE",
"542 23 OFFCURVE",
"542 84 CURVE SMOOTH",
"542 127 OFFCURVE",
"558 183 OFFCURVE",
"597 260 CURVE",
"588 264 LINE",
"442 63 OFFCURVE",
"336 -16 OFFCURVE",
"208 -16 CURVE SMOOTH {name = hr02;}",
"102 -16 OFFCURVE",
"51 39 OFFCURVE",
"51 139 CURVE SMOOTH",
"51 187 OFFCURVE",
"67 241 OFFCURVE",
"95 299 CURVE SMOOTH",
"301 720 LINE SMOOTH",
"326 769 OFFCURVE",
"336 803 OFFCURVE",
"336 824 CURVE SMOOTH",
"336 840 OFFCURVE",
"329 847 OFFCURVE",
"315 847 CURVE SMOOTH",
"283 847 OFFCURVE",
"224 806 OFFCURVE",
"157 736 CURVE",
"116 764 LINE"
);
}
);
width = 1088;
},
{
anchors = (
{
name = bottom;
position = "{227, 0}";
},
{
name = top;
position = "{804, 1146}";
}
);
layerId = "5CF0B95A-6341-4D13-90DE-0CF1719C21EC";
paths = (
{
closed = 1;
nodes = (
"222 885 OFFCURVE",
"327 950 OFFCURVE",
"426 950 CURVE SMOOTH",
"491 950 OFFCURVE",
"530 920 OFFCURVE",
"530 859 CURVE SMOOTH",
"530 810 OFFCURVE",
"509 739 OFFCURVE",
"468 655 CURVE SMOOTH",
"238 181 LINE SMOOTH",
"222 148 OFFCURVE",
"215 116 OFFCURVE",
"215 93 CURVE SMOOTH",
"215 62 OFFCURVE",
"239 44 OFFCURVE",
"268 44 CURVE SMOOTH",
"382 44 OFFCURVE",
"567 275 OFFCURVE",
"715 591 CURVE SMOOTH",
"875 933 LINE",
"1049 933 LINE {name = hr01;}",
"708 148 LINE SMOOTH",
"695 121 OFFCURVE",
"688 97 OFFCURVE",
"688 83 CURVE SMOOTH",
"688 69 OFFCURVE",
"700 62 OFFCURVE",
"713 62 CURVE SMOOTH",
"755 62 OFFCURVE",
"829 123 OFFCURVE",
"899 211 CURVE",
"935 183 LINE",
"841 63 OFFCURVE",
"725 -18 OFFCURVE",
"642 -18 CURVE SMOOTH",
"586 -18 OFFCURVE",
"542 23 OFFCURVE",
"542 84 CURVE SMOOTH",
"542 127 OFFCURVE",
"558 183 OFFCURVE",
"597 260 CURVE",
"588 264 LINE",
"442 63 OFFCURVE",
"336 -16 OFFCURVE",
"208 -16 CURVE SMOOTH {name = hr02;}",
"102 -16 OFFCURVE",
"51 39 OFFCURVE",
"51 139 CURVE SMOOTH",
"51 187 OFFCURVE",
"67 241 OFFCURVE",
"95 299 CURVE SMOOTH",
"301 720 LINE SMOOTH",
"326 769 OFFCURVE",
"336 803 OFFCURVE",
"336 824 CURVE SMOOTH",
"336 840 OFFCURVE",
"329 847 OFFCURVE",
"315 847 CURVE SMOOTH",
"283 847 OFFCURVE",
"224 806 OFFCURVE",
"157 736 CURVE",
"116 764 LINE"
);
}
);
width = 1088;
}
);
leftKerningGroup = u;
rightKerningGroup = u;
unicode = 0075;
},
{
glyphname = v;
layers = (
{
layerId = master01;
paths = (
{
closed = 1;
nodes = (
"164 646 OFFCURVE",
"157 660 OFFCURVE",
"153 676 CURVE",
"153 708 OFFCURVE",
"185 736 OFFCURVE",
"227 736 CURVE SMOOTH",
"264 736 OFFCURVE",
"297 708 OFFCURVE",
"297 665 CURVE SMOOTH",
"297 621 OFFCURVE",
"264 595 OFFCURVE",
"213 595 CURVE SMOOTH",
"137 595 OFFCURVE",
"86 649 OFFCURVE",
"86 741 CURVE SMOOTH",
"86 869 OFFCURVE",
"192 933 OFFCURVE",
"419 933 CURVE SMOOTH",
"693 933 LINE",
"634 801 OFFCURVE",
"620 776 OFFCURVE",
"491 581 CURVE SMOOTH",
"368 394 OFFCURVE",
"333 313 OFFCURVE",
"333 215 CURVE SMOOTH {name = hr01;}",
"333 102 OFFCURVE",
"370 51 OFFCURVE",
"440 51 CURVE SMOOTH",
"556 51 OFFCURVE",
"685 150 OFFCURVE",
"811 348 CURVE SMOOTH {name = hr02;}",
"885 466 OFFCURVE",
"920 556 OFFCURVE",
"920 646 CURVE SMOOTH",
"920 713 OFFCURVE",
"899 790 OFFCURVE",
"899 845 CURVE SMOOTH",
"899 908 OFFCURVE",
"931 950 OFFCURVE",
"984 950 CURVE SMOOTH",
"1033 950 OFFCURVE",
"1061 912 OFFCURVE",
"1061 848 CURVE SMOOTH",
"1061 736 OFFCURVE",
"989 539 OFFCURVE",
"887 366 CURVE SMOOTH",
"737 114 OFFCURVE",
"553 -18 OFFCURVE",
"363 -18 CURVE SMOOTH",
"229 -18 OFFCURVE",
"146 58 OFFCURVE",
"146 181 CURVE SMOOTH",
"146 292 OFFCURVE",
"216 401 OFFCURVE",
"405 591 CURVE SMOOTH",
"477 665 OFFCURVE",
"509 706 OFFCURVE",
"563 794 CURVE {name = hr03;}",
"303 794 LINE SMOOTH",
"187 794 OFFCURVE",
"139 762 OFFCURVE",
"139 693 CURVE SMOOTH",
"139 664 OFFCURVE",
"151 641 OFFCURVE",
"172 627 CURVE",
"178 634 LINE"
);
}
);
width = 1081;
},
{
layerId = "5CF0B95A-6341-4D13-90DE-0CF1719C21EC";
paths = (
{
closed = 1;
nodes = (
"164 646 OFFCURVE",
"157 660 OFFCURVE",
"153 676 CURVE",
"153 708 OFFCURVE",
"185 736 OFFCURVE",
"227 736 CURVE SMOOTH",
"264 736 OFFCURVE",
"297 708 OFFCURVE",
"297 665 CURVE SMOOTH",
"297 621 OFFCURVE",
"264 595 OFFCURVE",
"213 595 CURVE SMOOTH",
"137 595 OFFCURVE",
"86 649 OFFCURVE",
"86 741 CURVE SMOOTH",
"86 869 OFFCURVE",
"192 933 OFFCURVE",
"419 933 CURVE SMOOTH",
"693 933 LINE",
"634 801 OFFCURVE",
"620 776 OFFCURVE",
"491 581 CURVE SMOOTH",
"368 394 OFFCURVE",
"333 313 OFFCURVE",
"333 215 CURVE SMOOTH {name = hr01;}",
"333 102 OFFCURVE",
"370 51 OFFCURVE",
"440 51 CURVE SMOOTH",
"556 51 OFFCURVE",
"685 150 OFFCURVE",
"811 348 CURVE SMOOTH {name = hr02;}",
"885 466 OFFCURVE",
"920 556 OFFCURVE",
"920 646 CURVE SMOOTH",
"920 713 OFFCURVE",
"899 790 OFFCURVE",
"899 845 CURVE SMOOTH",
"899 908 OFFCURVE",
"931 950 OFFCURVE",
"984 950 CURVE SMOOTH",
"1033 950 OFFCURVE",
"1061 912 OFFCURVE",
"1061 848 CURVE SMOOTH",
"1061 736 OFFCURVE",
"989 539 OFFCURVE",
"887 366 CURVE SMOOTH",
"737 114 OFFCURVE",
"553 -18 OFFCURVE",
"363 -18 CURVE SMOOTH",
"229 -18 OFFCURVE",
"146 58 OFFCURVE",
"146 181 CURVE SMOOTH",
"146 292 OFFCURVE",
"216 401 OFFCURVE",
"405 591 CURVE SMOOTH",
"477 665 OFFCURVE",
"509 706 OFFCURVE",
"563 794 CURVE {name = hr03;}",
"303 794 LINE SMOOTH",
"187 794 OFFCURVE",
"139 762 OFFCURVE",
"139 693 CURVE SMOOTH",
"139 664 OFFCURVE",
"151 641 OFFCURVE",
"172 627 CURVE",
"178 634 LINE"
);
}
);
width = 1081;
}
);
unicode = 0076;
},
{
glyphname = w;
layers = (
{
anchors = (
{
name = top;
position = "{1197, 1146}";
}
);
layerId = master01;
paths = (
{
closed = 1;
nodes = (
"1111 -18 OFFCURVE",
"1278 120 OFFCURVE",
"1406 366 CURVE SMOOTH",
"1498 542 OFFCURVE",
"1559 744 OFFCURVE",
"1559 854 CURVE SMOOTH",
"1559 917 OFFCURVE",
"1528 950 OFFCURVE",
"1484 950 CURVE SMOOTH",
"1431 950 OFFCURVE",
"1399 910 OFFCURVE",
"1399 845 CURVE SMOOTH",
"1399 792 OFFCURVE",
"1420 715 OFFCURVE",
"1420 641 CURVE SMOOTH {name = hr01;}",
"1420 551 OFFCURVE",
"1392 463 OFFCURVE",
"1331 348 CURVE SMOOTH",
"1230 165 OFFCURVE",
"1119 70 OFFCURVE",
"1019 70 CURVE SMOOTH",
"936 70 OFFCURVE",
"878 125 OFFCURVE",
"848 220 CURVE",
"1060 435 OFFCURVE",
"1223 706 OFFCURVE",
"1223 843 CURVE SMOOTH",
"1223 912 OFFCURVE",
"1183 950 OFFCURVE",
"1118 950 CURVE SMOOTH",
"908 950 OFFCURVE",
"653 593 OFFCURVE",
"653 304 CURVE SMOOTH",
"653 246 OFFCURVE",
"662 194 OFFCURVE",
"681 150 CURVE",
"607 99 OFFCURVE",
"535 67 OFFCURVE",
"473 67 CURVE SMOOTH",
"391 67 OFFCURVE",
"348 121 OFFCURVE",
"348 225 CURVE SMOOTH",
"348 315 OFFCURVE",
"377 410 OFFCURVE",
"488 581 CURVE SMOOTH",
"605 764 OFFCURVE",
"623 794 OFFCURVE",
"690 933 CURVE {name = hr02;}",
"414 933 LINE SMOOTH",
"180 933 OFFCURVE",
"83 868 OFFCURVE",
"83 734 CURVE SMOOTH",
"83 648 OFFCURVE",
"134 595 OFFCURVE",
"208 595 CURVE SMOOTH",
"260 595 OFFCURVE",
"294 621 OFFCURVE",
"294 665 CURVE SMOOTH",
"294 708 OFFCURVE",
"259 736 OFFCURVE",
"222 736 CURVE SMOOTH",
"181 736 OFFCURVE",
"151 708 OFFCURVE",
"151 676 CURVE SMOOTH",
"151 660 OFFCURVE",
"162 646 OFFCURVE",
"172 634 CURVE",
"167 627 LINE",
"150 641 OFFCURVE",
"134 664 OFFCURVE",
"134 693 CURVE SMOOTH",
"134 762 OFFCURVE",
"181 794 OFFCURVE",
"297 794 CURVE SMOOTH {name = hr03;}",
"560 794 LINE",
"507 709 OFFCURVE",
"473 669 OFFCURVE",
"400 591 CURVE SMOOTH",
"218 400 OFFCURVE",
"162 285 OFFCURVE",
"162 176 CURVE SMOOTH",
"162 55 OFFCURVE",
"252 -18 OFFCURVE",
"398 -18 CURVE SMOOTH",
"500 -18 OFFCURVE",
"602 19 OFFCURVE",
"709 97 CURVE",
"759 23 OFFCURVE",
"836 -18 OFFCURVE",
"936 -18 CURVE SMOOTH"
);
},
{
closed = 1;
nodes = (
"827 621 OFFCURVE",
"959 892 OFFCURVE",
"1081 892 CURVE SMOOTH {name = hr04;}",
"1100 892 OFFCURVE",
"1111 876 OFFCURVE",
"1111 832 CURVE SMOOTH",
"1111 671 OFFCURVE",
"986 451 OFFCURVE",
"834 287 CURVE",
"829 319 OFFCURVE",
"827 352 OFFCURVE",
"827 389 CURVE SMOOTH"
);
}
);
width = 1593;
},
{
anchors = (
{
name = top;
position = "{1197, 1146}";
}
);
layerId = "5CF0B95A-6341-4D13-90DE-0CF1719C21EC";
paths = (
{
closed = 1;
nodes = (
"1111 -18 OFFCURVE",
"1278 120 OFFCURVE",
"1406 366 CURVE SMOOTH",
"1498 542 OFFCURVE",
"1559 744 OFFCURVE",
"1559 854 CURVE SMOOTH",
"1559 917 OFFCURVE",
"1528 950 OFFCURVE",
"1484 950 CURVE SMOOTH",
"1431 950 OFFCURVE",
"1399 910 OFFCURVE",
"1399 845 CURVE SMOOTH",
"1399 792 OFFCURVE",
"1420 715 OFFCURVE",
"1420 641 CURVE SMOOTH {name = hr01;}",
"1420 551 OFFCURVE",
"1392 463 OFFCURVE",
"1331 348 CURVE SMOOTH",
"1230 165 OFFCURVE",
"1119 70 OFFCURVE",
"1019 70 CURVE SMOOTH",
"936 70 OFFCURVE",
"878 125 OFFCURVE",
"848 220 CURVE",
"1060 435 OFFCURVE",
"1223 706 OFFCURVE",
"1223 843 CURVE SMOOTH",
"1223 912 OFFCURVE",
"1183 950 OFFCURVE",
"1118 950 CURVE SMOOTH",
"908 950 OFFCURVE",
"653 593 OFFCURVE",
"653 304 CURVE SMOOTH",
"653 246 OFFCURVE",
"662 194 OFFCURVE",
"681 150 CURVE",
"607 99 OFFCURVE",
"535 67 OFFCURVE",
"473 67 CURVE SMOOTH",
"391 67 OFFCURVE",
"348 121 OFFCURVE",
"348 225 CURVE SMOOTH",
"348 315 OFFCURVE",
"377 410 OFFCURVE",
"488 581 CURVE SMOOTH",
"605 764 OFFCURVE",
"623 794 OFFCURVE",
"690 933 CURVE {name = hr02;}",
"414 933 LINE SMOOTH",
"180 933 OFFCURVE",
"83 868 OFFCURVE",
"83 734 CURVE SMOOTH",
"83 648 OFFCURVE",
"134 595 OFFCURVE",
"208 595 CURVE SMOOTH",
"260 595 OFFCURVE",
"294 621 OFFCURVE",
"294 665 CURVE SMOOTH",
"294 708 OFFCURVE",
"259 736 OFFCURVE",
"222 736 CURVE SMOOTH",
"181 736 OFFCURVE",
"151 708 OFFCURVE",
"151 676 CURVE SMOOTH",
"151 660 OFFCURVE",
"162 646 OFFCURVE",
"172 634 CURVE",
"167 627 LINE",
"150 641 OFFCURVE",
"134 664 OFFCURVE",
"134 693 CURVE SMOOTH",
"134 762 OFFCURVE",
"181 794 OFFCURVE",
"297 794 CURVE SMOOTH {name = hr03;}",
"560 794 LINE",
"507 709 OFFCURVE",
"473 669 OFFCURVE",
"400 591 CURVE SMOOTH",
"218 400 OFFCURVE",
"162 285 OFFCURVE",
"162 176 CURVE SMOOTH",
"162 55 OFFCURVE",
"252 -18 OFFCURVE",
"398 -18 CURVE SMOOTH",
"500 -18 OFFCURVE",
"602 19 OFFCURVE",
"709 97 CURVE",
"759 23 OFFCURVE",
"836 -18 OFFCURVE",
"936 -18 CURVE SMOOTH"
);
},
{
closed = 1;
nodes = (
"827 621 OFFCURVE",
"959 892 OFFCURVE",
"1081 892 CURVE SMOOTH {name = hr04;}",
"1100 892 OFFCURVE",
"1111 876 OFFCURVE",
"1111 832 CURVE SMOOTH",
"1111 671 OFFCURVE",
"986 451 OFFCURVE",
"834 287 CURVE",
"829 319 OFFCURVE",
"827 352 OFFCURVE",
"827 389 CURVE SMOOTH"
);
}
);
width = 1593;
}
);
leftKerningGroup = w;
rightKerningGroup = w;
unicode = 0077;
},
{
glyphname = x;
layers = (
{
layerId = master01;
paths = (
{
closed = 1;
nodes = (
"280 216 LINE SMOOTH",
"181 79 OFFCURVE",
"55 0 OFFCURVE",
"-39 0 CURVE SMOOTH",
"-102 0 OFFCURVE",
"-157 37 OFFCURVE",
"-157 86 CURVE SMOOTH",
"-157 130 OFFCURVE",
"-121 167 OFFCURVE",
"-74 167 CURVE SMOOTH",
"-7 167 OFFCURVE",
"-11 90 OFFCURVE",
"44 90 CURVE SMOOTH",
"90 90 OFFCURVE",
"151 139 OFFCURVE",
"216 227 CURVE SMOOTH",
"382 452 LINE",
"329 774 LINE SMOOTH",
"320 825 OFFCURVE",
"317 834 OFFCURVE",
"289 834 CURVE SMOOTH {name = hr01;}",
"252 834 OFFCURVE",
"222 813 OFFCURVE",
"171 746 CURVE",
"139 764 LINE",
"202 869 OFFCURVE",
"317 950 OFFCURVE",
"405 950 CURVE SMOOTH",
"463 950 OFFCURVE",
"502 913 OFFCURVE",
"510 843 CURVE SMOOTH",
"542 611 LINE {name = hr02;}",
"639 729 LINE SMOOTH {name = hr03;}",
"750 864 OFFCURVE",
"850 933 OFFCURVE",
"943 933 CURVE SMOOTH",
"1008 933 OFFCURVE",
"1065 896 OFFCURVE",
"1065 847 CURVE SMOOTH",
"1065 803 OFFCURVE",
"1030 766 OFFCURVE",
"982 766 CURVE SMOOTH",
"912 766 OFFCURVE",
"913 843 OFFCURVE",
"861 843 CURVE SMOOTH",
"820 843 OFFCURVE",
"771 804 OFFCURVE",
"700 718 CURVE SMOOTH",
"551 535 LINE",
"600 238 LINE SMOOTH",
"625 92 OFFCURVE",
"632 65 OFFCURVE",
"662 65 CURVE SMOOTH {name = hr04;}",
"692 65 OFFCURVE",
"718 88 OFFCURVE",
"803 187 CURVE",
"838 164 LINE {name = hr05;}",
"767 49 OFFCURVE",
"671 -18 OFFCURVE",
"579 -18 CURVE SMOOTH",
"491 -18 OFFCURVE",
"445 39 OFFCURVE",
"424 180 CURVE SMOOTH",
"394 375 LINE"
);
}
);
width = 1000;
},
{
layerId = "5CF0B95A-6341-4D13-90DE-0CF1719C21EC";
paths = (
{
closed = 1;
nodes = (
"280 216 LINE SMOOTH",
"181 79 OFFCURVE",
"55 0 OFFCURVE",
"-39 0 CURVE SMOOTH",
"-102 0 OFFCURVE",
"-157 37 OFFCURVE",
"-157 86 CURVE SMOOTH",
"-157 130 OFFCURVE",
"-121 167 OFFCURVE",
"-74 167 CURVE SMOOTH",
"-7 167 OFFCURVE",
"-11 90 OFFCURVE",
"44 90 CURVE SMOOTH",
"90 90 OFFCURVE",
"151 139 OFFCURVE",
"216 227 CURVE SMOOTH",
"382 452 LINE",
"329 774 LINE SMOOTH",
"320 825 OFFCURVE",
"317 834 OFFCURVE",
"289 834 CURVE SMOOTH {name = hr01;}",
"252 834 OFFCURVE",
"222 813 OFFCURVE",
"171 746 CURVE",
"139 764 LINE",
"202 869 OFFCURVE",
"317 950 OFFCURVE",
"405 950 CURVE SMOOTH",
"463 950 OFFCURVE",
"502 913 OFFCURVE",
"510 843 CURVE SMOOTH",
"542 611 LINE {name = hr02;}",
"639 729 LINE SMOOTH {name = hr03;}",
"750 864 OFFCURVE",
"850 933 OFFCURVE",
"943 933 CURVE SMOOTH",
"1008 933 OFFCURVE",
"1065 896 OFFCURVE",
"1065 847 CURVE SMOOTH",
"1065 803 OFFCURVE",
"1030 766 OFFCURVE",
"982 766 CURVE SMOOTH",
"912 766 OFFCURVE",
"913 843 OFFCURVE",
"861 843 CURVE SMOOTH",
"820 843 OFFCURVE",
"771 804 OFFCURVE",
"700 718 CURVE SMOOTH",
"551 535 LINE",
"600 238 LINE SMOOTH",
"625 92 OFFCURVE",
"632 65 OFFCURVE",
"662 65 CURVE SMOOTH {name = hr04;}",
"692 65 OFFCURVE",
"718 88 OFFCURVE",
"803 187 CURVE",
"838 164 LINE {name = hr05;}",
"767 49 OFFCURVE",
"671 -18 OFFCURVE",
"579 -18 CURVE SMOOTH",
"491 -18 OFFCURVE",
"445 39 OFFCURVE",
"424 180 CURVE SMOOTH",
"394 375 LINE"
);
}
);
width = 1000;
}
);
unicode = 0078;
},
{
glyphname = y;
layers = (
{
anchors = (
{
name = top;
position = "{692, 1146}";
}
);
layerId = master01;
paths = (
{
closed = 1;
nodes = (
"146 889 OFFCURVE",
"253 950 OFFCURVE",
"354 950 CURVE SMOOTH",
"477 950 OFFCURVE",
"514 854 OFFCURVE",
"514 412 CURVE SMOOTH",
"514 317 OFFCURVE",
"510 218 OFFCURVE",
"503 88 CURVE",
"509 83 LINE",
"656 266 OFFCURVE",
"764 523 OFFCURVE",
"764 656 CURVE SMOOTH {name = hr01;}",
"764 702 OFFCURVE",
"750 822 OFFCURVE",
"750 848 CURVE SMOOTH",
"750 908 OFFCURVE",
"787 950 OFFCURVE",
"840 950 CURVE SMOOTH",
"892 950 OFFCURVE",
"928 908 OFFCURVE",
"928 841 CURVE SMOOTH",
"928 546 OFFCURVE",
"338 -451 OFFCURVE",
"-12 -451 CURVE SMOOTH",
"-100 -451 OFFCURVE",
"-165 -412 OFFCURVE",
"-165 -350 CURVE SMOOTH",
"-165 -304 OFFCURVE",
"-136 -275 OFFCURVE",
"-83 -275 CURVE SMOOTH",
"7 -275 OFFCURVE",
"-4 -363 OFFCURVE",
"72 -363 CURVE SMOOTH",
"116 -363 OFFCURVE",
"174 -329 OFFCURVE",
"222 -271 CURVE SMOOTH",
"301 -176 OFFCURVE",
"322 -144 OFFCURVE",
"322 336 CURVE SMOOTH",
"322 727 OFFCURVE",
"299 859 OFFCURVE",
"238 859 CURVE SMOOTH",
"206 859 OFFCURVE",
"169 827 OFFCURVE",
"120 762 CURVE",
"86 788 LINE"
);
}
);
width = 961;
},
{
anchors = (
{
name = top;
position = "{692, 1146}";
}
);
layerId = "5CF0B95A-6341-4D13-90DE-0CF1719C21EC";
paths = (
{
closed = 1;
nodes = (
"146 889 OFFCURVE",
"253 950 OFFCURVE",
"354 950 CURVE SMOOTH",
"477 950 OFFCURVE",
"514 854 OFFCURVE",
"514 412 CURVE SMOOTH",
"514 317 OFFCURVE",
"510 218 OFFCURVE",
"503 88 CURVE",
"509 83 LINE",
"656 266 OFFCURVE",
"764 523 OFFCURVE",
"764 656 CURVE SMOOTH {name = hr01;}",
"764 702 OFFCURVE",
"750 822 OFFCURVE",
"750 848 CURVE SMOOTH",
"750 908 OFFCURVE",
"787 950 OFFCURVE",
"840 950 CURVE SMOOTH",
"892 950 OFFCURVE",
"928 908 OFFCURVE",
"928 841 CURVE SMOOTH",
"928 546 OFFCURVE",
"338 -451 OFFCURVE",
"-12 -451 CURVE SMOOTH",
"-100 -451 OFFCURVE",
"-165 -412 OFFCURVE",
"-165 -350 CURVE SMOOTH",
"-165 -304 OFFCURVE",
"-136 -275 OFFCURVE",
"-83 -275 CURVE SMOOTH",
"7 -275 OFFCURVE",
"-4 -363 OFFCURVE",
"72 -363 CURVE SMOOTH",
"116 -363 OFFCURVE",
"174 -329 OFFCURVE",
"222 -271 CURVE SMOOTH",
"301 -176 OFFCURVE",
"322 -144 OFFCURVE",
"322 336 CURVE SMOOTH",
"322 727 OFFCURVE",
"299 859 OFFCURVE",
"238 859 CURVE SMOOTH",
"206 859 OFFCURVE",
"169 827 OFFCURVE",
"120 762 CURVE",
"86 788 LINE"
);
}
);
width = 961;
}
);
leftKerningGroup = y;
rightKerningGroup = y;
unicode = 0079;
},
{
glyphname = z;
layers = (
{
anchors = (
{
name = bottom;
position = "{275, 0}";
},
{
name = top;
position = "{679, 1146}";
}
);
layerId = master01;
paths = (
{
closed = 1;
nodes = (
"558 950 OFFCURVE",
"764 910 OFFCURVE",
"850 910 CURVE SMOOTH",
"896 910 OFFCURVE",
"938 922 OFFCURVE",
"984 950 CURVE",
"1021 917 LINE",
"197 174 LINE",
"197 167 LINE",
"385 167 OFFCURVE",
"532 109 OFFCURVE",
"639 109 CURVE SMOOTH",
"716 109 OFFCURVE",
"753 141 OFFCURVE",
"753 197 CURVE",
"746 201 LINE",
"732 174 OFFCURVE",
"718 162 OFFCURVE",
"692 162 CURVE SMOOTH",
"648 162 OFFCURVE",
"620 195 OFFCURVE",
"620 238 CURVE SMOOTH {name = hr01;}",
"620 280 OFFCURVE",
"653 308 OFFCURVE",
"702 308 CURVE SMOOTH",
"769 308 OFFCURVE",
"810 260 OFFCURVE",
"810 187 CURVE SMOOTH",
"810 63 OFFCURVE",
"688 -18 OFFCURVE",
"502 -18 CURVE SMOOTH",
"370 -18 OFFCURVE",
"246 23 OFFCURVE",
"118 23 CURVE SMOOTH {name = hr02;}",
"53 23 OFFCURVE",
"19 12 OFFCURVE",
"-23 -18 CURVE {name = hr03;}",
"-63 16 LINE",
"762 757 LINE",
"759 764 LINE",
"584 764 OFFCURVE",
"421 803 OFFCURVE",
"322 803 CURVE SMOOTH",
"227 803 OFFCURVE",
"180 769 OFFCURVE",
"180 711 CURVE SMOOTH",
"180 674 OFFCURVE",
"204 648 OFFCURVE",
"241 641 CURVE",
"243 648 LINE",
"224 658 OFFCURVE",
"211 672 OFFCURVE",
"211 692 CURVE SMOOTH {name = hr04;}",
"211 727 OFFCURVE",
"239 755 OFFCURVE",
"280 755 CURVE SMOOTH",
"324 755 OFFCURVE",
"350 722 OFFCURVE",
"350 674 CURVE SMOOTH",
"350 627 OFFCURVE",
"313 598 OFFCURVE",
"260 598 CURVE SMOOTH",
"183 598 OFFCURVE",
"121 662 OFFCURVE",
"121 746 CURVE SMOOTH {name = hr05;}",
"121 866 OFFCURVE",
"246 950 OFFCURVE",
"429 950 CURVE SMOOTH"
);
}
);
width = 979;
},
{
anchors = (
{
name = bottom;
position = "{275, 0}";
},
{
name = top;
position = "{679, 1146}";
}
);
layerId = "5CF0B95A-6341-4D13-90DE-0CF1719C21EC";
paths = (
{
closed = 1;
nodes = (
"558 950 OFFCURVE",
"764 910 OFFCURVE",
"850 910 CURVE SMOOTH",
"896 910 OFFCURVE",
"938 922 OFFCURVE",
"984 950 CURVE",
"1021 917 LINE",
"197 174 LINE",
"197 167 LINE",
"385 167 OFFCURVE",
"532 109 OFFCURVE",
"639 109 CURVE SMOOTH",
"716 109 OFFCURVE",
"753 141 OFFCURVE",
"753 197 CURVE",
"746 201 LINE",
"732 174 OFFCURVE",
"718 162 OFFCURVE",
"692 162 CURVE SMOOTH",
"648 162 OFFCURVE",
"620 195 OFFCURVE",
"620 238 CURVE SMOOTH {name = hr01;}",
"620 280 OFFCURVE",
"653 308 OFFCURVE",
"702 308 CURVE SMOOTH",
"769 308 OFFCURVE",
"810 260 OFFCURVE",
"810 187 CURVE SMOOTH",
"810 63 OFFCURVE",
"688 -18 OFFCURVE",
"502 -18 CURVE SMOOTH",
"370 -18 OFFCURVE",
"246 23 OFFCURVE",
"118 23 CURVE SMOOTH {name = hr02;}",
"53 23 OFFCURVE",
"19 12 OFFCURVE",
"-23 -18 CURVE {name = hr03;}",
"-63 16 LINE",
"762 757 LINE",
"759 764 LINE",
"584 764 OFFCURVE",
"421 803 OFFCURVE",
"322 803 CURVE SMOOTH",
"227 803 OFFCURVE",
"180 769 OFFCURVE",
"180 711 CURVE SMOOTH",
"180 674 OFFCURVE",
"204 648 OFFCURVE",
"241 641 CURVE",
"243 648 LINE",
"224 658 OFFCURVE",
"211 672 OFFCURVE",
"211 692 CURVE SMOOTH {name = hr04;}",
"211 727 OFFCURVE",
"239 755 OFFCURVE",
"280 755 CURVE SMOOTH",
"324 755 OFFCURVE",
"350 722 OFFCURVE",
"350 674 CURVE SMOOTH",
"350 627 OFFCURVE",
"313 598 OFFCURVE",
"260 598 CURVE SMOOTH",
"183 598 OFFCURVE",
"121 662 OFFCURVE",
"121 746 CURVE SMOOTH {name = hr05;}",
"121 866 OFFCURVE",
"246 950 OFFCURVE",
"429 950 CURVE SMOOTH"
);
}
);
width = 979;
}
);
leftKerningGroup = z;
rightKerningGroup = z;
unicode = 007A;
},
{
glyphname = g.001;
layers = (
{
anchors = (
{
name = top;
position = "{693, 1146}";
}
);
layerId = master01;
paths = (
{
closed = 1;
nodes = (
"248 -452 OFFCURVE",
"405 -447 OFFCURVE",
"526 -385 CURVE SMOOTH",
"598 -348 OFFCURVE",
"658 -294 OFFCURVE",
"688 -206 CURVE SMOOTH",
"716 -127 OFFCURVE",
"723 -21 OFFCURVE",
"554 56 CURVE SMOOTH",
"447 104 OFFCURVE",
"209 171 OFFCURVE",
"243 266 CURVE SMOOTH",
"264 324 OFFCURVE",
"375 350 OFFCURVE",
"463 341 CURVE SMOOTH",
"667 320 OFFCURVE",
"852 435 OFFCURVE",
"906 588 CURVE SMOOTH",
"935 669 OFFCURVE",
"924 755 OFFCURVE",
"878 824 CURVE",
"906 868 OFFCURVE",
"947 905 OFFCURVE",
"973 899 CURVE SMOOTH",
"1016 892 OFFCURVE",
"994 848 OFFCURVE",
"1044 840 CURVE SMOOTH",
"1086 831 OFFCURVE",
"1133 859 OFFCURVE",
"1151 906 CURVE SMOOTH",
"1169 959 OFFCURVE",
"1133 1001 OFFCURVE",
"1084 1010 CURVE SMOOTH",
"996 1026 OFFCURVE",
"908 933 OFFCURVE",
"852 854 CURVE",
"810 898 OFFCURVE",
"750 931 OFFCURVE",
"674 945 CURVE SMOOTH",
"489 979 OFFCURVE",
"304 880 OFFCURVE",
"245 708 CURVE SMOOTH",
"194 563 OFFCURVE",
"253 442 OFFCURVE",
"371 382 CURVE",
"164 356 OFFCURVE",
"95 271 OFFCURVE",
"76 216 CURVE SMOOTH",
"56 158 OFFCURVE",
"77 102 OFFCURVE",
"141 53 CURVE",
"-37 14 OFFCURVE",
"-116 -48 OFFCURVE",
"-150 -139 CURVE SMOOTH",
"-176 -215 OFFCURVE",
"-157 -276 OFFCURVE",
"-111 -324 CURVE SMOOTH",
"-53 -382 OFFCURVE",
"48 -417 OFFCURVE",
"128 -431 CURVE SMOOTH"
);
},
{
closed = 1;
nodes = (
"521 -120 OFFCURVE",
"565 -165 OFFCURVE",
"537 -248 CURVE SMOOTH",
"512 -315 OFFCURVE",
"458 -357 OFFCURVE",
"387 -375 CURVE SMOOTH",
"324 -392 OFFCURVE",
"246 -394 OFFCURVE",
"180 -382 CURVE SMOOTH",
"109 -370 OFFCURVE",
"55 -341 OFFCURVE",
"19 -303 CURVE SMOOTH",
"-18 -260 OFFCURVE",
"-28 -206 OFFCURVE",
"-5 -143 CURVE SMOOTH",
"23 -63 OFFCURVE",
"99 4 OFFCURVE",
"190 26 CURVE",
"231 4 OFFCURVE",
"283 -21 OFFCURVE",
"338 -44 CURVE SMOOTH"
);
},
{
closed = 1;
nodes = (
"356 421 OFFCURVE",
"378 568 OFFCURVE",
"412 662 CURVE SMOOTH",
"447 760 OFFCURVE",
"533 919 OFFCURVE",
"667 894 CURVE SMOOTH",
"797 871 OFFCURVE",
"769 716 OFFCURVE",
"736 621 CURVE SMOOTH",
"695 509 OFFCURVE",
"611 373 OFFCURVE",
"482 396 CURVE SMOOTH"
);
}
);
width = 928;
},
{
anchors = (
{
name = top;
position = "{693, 1146}";
}
);
layerId = "5CF0B95A-6341-4D13-90DE-0CF1719C21EC";
paths = (
{
closed = 1;
nodes = (
"537 384 OFFCURVE",
"662 574 OFFCURVE",
"662 767 CURVE SMOOTH",
"662 848 OFFCURVE",
"635 885 OFFCURVE",
"567 885 CURVE SMOOTH",
"451 885 OFFCURVE",
"303 692 OFFCURVE",
"303 528 CURVE SMOOTH",
"303 436 OFFCURVE",
"341 384 OFFCURVE",
"408 384 CURVE SMOOTH"
);
},
{
closed = 1;
nodes = (
"989 950 OFFCURVE",
"1028 910 OFFCURVE",
"1028 862 CURVE SMOOTH",
"1028 822 OFFCURVE",
"994 792 OFFCURVE",
"954 792 CURVE SMOOTH",
"903 792 OFFCURVE",
"892 841 OFFCURVE",
"848 841 CURVE SMOOTH",
"824 841 OFFCURVE",
"797 824 OFFCURVE",
"785 799 CURVE",
"811 744 OFFCURVE",
"818 709 OFFCURVE",
"818 662 CURVE SMOOTH",
"818 475 OFFCURVE",
"653 324 OFFCURVE",
"451 324 CURVE SMOOTH",
"414 324 OFFCURVE",
"357 329 OFFCURVE",
"313 329 CURVE SMOOTH",
"204 329 OFFCURVE",
"153 301 OFFCURVE",
"153 250 CURVE SMOOTH {name = hr01;}",
"153 209 OFFCURVE",
"181 180 OFFCURVE",
"241 160 CURVE SMOOTH",
"516 67 LINE SMOOTH",
"628 28 OFFCURVE",
"700 -60 OFFCURVE",
"700 -162 CURVE SMOOTH",
"700 -329 OFFCURVE",
"503 -451 OFFCURVE",
"227 -451 CURVE SMOOTH",
"-28 -451 OFFCURVE",
"-202 -345 OFFCURVE",
"-202 -185 CURVE SMOOTH",
"-202 -49 OFFCURVE",
"-76 56 OFFCURVE",
"93 56 CURVE",
"44 93 OFFCURVE",
"16 148 OFFCURVE",
"16 204 CURVE SMOOTH",
"16 313 OFFCURVE",
"114 380 OFFCURVE",
"278 380 CURVE",
"280 387 LINE",
"195 447 OFFCURVE",
"150 526 OFFCURVE",
"150 620 CURVE SMOOTH {name = hr02;}",
"150 796 OFFCURVE",
"322 950 OFFCURVE",
"523 950 CURVE SMOOTH",
"618 950 OFFCURVE",
"693 915 OFFCURVE",
"752 843 CURVE",
"813 915 OFFCURVE",
"873 950 OFFCURVE",
"929 950 CURVE SMOOTH"
);
},
{
closed = 1;
nodes = (
"433 -398 OFFCURVE",
"560 -322 OFFCURVE",
"560 -220 CURVE SMOOTH",
"560 -162 OFFCURVE",
"505 -102 OFFCURVE",
"429 -76 CURVE SMOOTH",
"204 0 LINE SMOOTH",
"178 9 OFFCURVE",
"165 11 OFFCURVE",
"148 11 CURVE SMOOTH {name = hr04;}",
"35 11 OFFCURVE",
"-48 -79 OFFCURVE",
"-48 -188 CURVE SMOOTH",
"-48 -319 OFFCURVE",
"70 -398 OFFCURVE",
"252 -398 CURVE SMOOTH"
);
}
);
width = 928;
}
);
leftKerningGroup = g;
rightKerningGroup = g;
},
{
glyphname = g.002;
layers = (
{
anchors = (
{
name = top;
position = "{693, 1146}";
}
);
layerId = master01;
paths = (
{
closed = 1;
nodes = (
"241 -458 OFFCURVE",
"405 -424 OFFCURVE",
"532 -345 CURVE SMOOTH",
"607 -297 OFFCURVE",
"667 -234 OFFCURVE",
"699 -144 CURVE SMOOTH",
"727 -65 OFFCURVE",
"734 37 OFFCURVE",
"554 81 CURVE SMOOTH",
"444 109 OFFCURVE",
"194 130 OFFCURVE",
"229 227 CURVE SMOOTH",
"250 287 OFFCURVE",
"366 331 OFFCURVE",
"458 338 CURVE SMOOTH",
"671 354 OFFCURVE",
"862 495 OFFCURVE",
"917 649 CURVE SMOOTH",
"947 732 OFFCURVE",
"935 813 OFFCURVE",
"885 869 CURVE",
"915 917 OFFCURVE",
"956 959 OFFCURVE",
"984 959 CURVE SMOOTH",
"1028 959 OFFCURVE",
"1007 913 OFFCURVE",
"1058 913 CURVE SMOOTH",
"1104 913 OFFCURVE",
"1153 949 OFFCURVE",
"1170 996 CURVE SMOOTH",
"1190 1051 OFFCURVE",
"1151 1084 OFFCURVE",
"1098 1084 CURVE SMOOTH",
"1007 1084 OFFCURVE",
"915 979 OFFCURVE",
"857 894 CURVE",
"813 929 OFFCURVE",
"752 950 OFFCURVE",
"672 950 CURVE SMOOTH",
"479 950 OFFCURVE",
"285 824 OFFCURVE",
"224 649 CURVE SMOOTH",
"172 503 OFFCURVE",
"238 398 OFFCURVE",
"361 361 CURVE",
"144 299 OFFCURVE",
"74 208 OFFCURVE",
"55 151 CURVE SMOOTH",
"33 93 OFFCURVE",
"56 42 OFFCURVE",
"123 7 CURVE",
"-62 -62 OFFCURVE",
"-146 -134 OFFCURVE",
"-178 -227 CURVE SMOOTH",
"-206 -304 OFFCURVE",
"-185 -359 OFFCURVE",
"-136 -396 CURVE SMOOTH",
"-74 -442 OFFCURVE",
"32 -458 OFFCURVE",
"116 -458 CURVE SMOOTH"
);
},
{
closed = 1;
nodes = (
"523 -92 OFFCURVE",
"568 -128 OFFCURVE",
"540 -211 CURVE SMOOTH",
"516 -280 OFFCURVE",
"458 -329 OFFCURVE",
"385 -359 CURVE SMOOTH",
"320 -387 OFFCURVE",
"239 -401 OFFCURVE",
"169 -401 CURVE SMOOTH",
"95 -401 OFFCURVE",
"37 -385 OFFCURVE",
"0 -354 CURVE SMOOTH",
"-39 -320 OFFCURVE",
"-51 -269 OFFCURVE",
"-28 -206 CURVE SMOOTH",
"0 -125 OFFCURVE",
"79 -48 OFFCURVE",
"174 -11 CURVE",
"216 -25 OFFCURVE",
"273 -39 OFFCURVE",
"331 -51 CURVE SMOOTH"
);
},
{
closed = 1;
nodes = (
"343 394 OFFCURVE",
"366 540 OFFCURVE",
"401 635 CURVE SMOOTH",
"435 734 OFFCURVE",
"524 901 OFFCURVE",
"665 901 CURVE SMOOTH",
"801 901 OFFCURVE",
"773 748 OFFCURVE",
"739 653 CURVE SMOOTH",
"699 539 OFFCURVE",
"611 394 OFFCURVE",
"477 394 CURVE SMOOTH"
);
}
);
width = 928;
},
{
anchors = (
{
name = top;
position = "{693, 1146}";
}
);
layerId = "5CF0B95A-6341-4D13-90DE-0CF1719C21EC";
paths = (
{
closed = 1;
nodes = (
"537 384 OFFCURVE",
"662 574 OFFCURVE",
"662 767 CURVE SMOOTH",
"662 848 OFFCURVE",
"635 885 OFFCURVE",
"567 885 CURVE SMOOTH",
"451 885 OFFCURVE",
"303 692 OFFCURVE",
"303 528 CURVE SMOOTH",
"303 436 OFFCURVE",
"341 384 OFFCURVE",
"408 384 CURVE SMOOTH"
);
},
{
closed = 1;
nodes = (
"989 950 OFFCURVE",
"1028 910 OFFCURVE",
"1028 862 CURVE SMOOTH",
"1028 822 OFFCURVE",
"994 792 OFFCURVE",
"954 792 CURVE SMOOTH",
"903 792 OFFCURVE",
"892 841 OFFCURVE",
"848 841 CURVE SMOOTH",
"824 841 OFFCURVE",
"797 824 OFFCURVE",
"785 799 CURVE",
"811 744 OFFCURVE",
"818 709 OFFCURVE",
"818 662 CURVE SMOOTH",
"818 475 OFFCURVE",
"653 324 OFFCURVE",
"451 324 CURVE SMOOTH",
"414 324 OFFCURVE",
"357 329 OFFCURVE",
"313 329 CURVE SMOOTH",
"204 329 OFFCURVE",
"153 301 OFFCURVE",
"153 250 CURVE SMOOTH {name = hr01;}",
"153 209 OFFCURVE",
"181 180 OFFCURVE",
"241 160 CURVE SMOOTH",
"516 67 LINE SMOOTH",
"628 28 OFFCURVE",
"700 -60 OFFCURVE",
"700 -162 CURVE SMOOTH",
"700 -329 OFFCURVE",
"503 -451 OFFCURVE",
"227 -451 CURVE SMOOTH",
"-28 -451 OFFCURVE",
"-202 -345 OFFCURVE",
"-202 -185 CURVE SMOOTH",
"-202 -49 OFFCURVE",
"-76 56 OFFCURVE",
"93 56 CURVE",
"44 93 OFFCURVE",
"16 148 OFFCURVE",
"16 204 CURVE SMOOTH",
"16 313 OFFCURVE",
"114 380 OFFCURVE",
"278 380 CURVE",
"280 387 LINE",
"195 447 OFFCURVE",
"150 526 OFFCURVE",
"150 620 CURVE SMOOTH {name = hr02;}",
"150 796 OFFCURVE",
"322 950 OFFCURVE",
"523 950 CURVE SMOOTH",
"618 950 OFFCURVE",
"693 915 OFFCURVE",
"752 843 CURVE",
"813 915 OFFCURVE",
"873 950 OFFCURVE",
"929 950 CURVE SMOOTH"
);
},
{
closed = 1;
nodes = (
"433 -398 OFFCURVE",
"560 -322 OFFCURVE",
"560 -220 CURVE SMOOTH",
"560 -162 OFFCURVE",
"505 -102 OFFCURVE",
"429 -76 CURVE SMOOTH",
"204 0 LINE SMOOTH",
"178 9 OFFCURVE",
"165 11 OFFCURVE",
"148 11 CURVE SMOOTH {name = hr04;}",
"35 11 OFFCURVE",
"-48 -79 OFFCURVE",
"-48 -188 CURVE SMOOTH",
"-48 -319 OFFCURVE",
"70 -398 OFFCURVE",
"252 -398 CURVE SMOOTH"
);
}
);
width = 928;
}
);
leftKerningGroup = g;
rightKerningGroup = g;
},
{
glyphname = g.003;
layers = (
{
anchors = (
{
name = top;
position = "{693, 1146}";
}
);
layerId = master01;
paths = (
{
closed = 1;
nodes = (
"241 -458 OFFCURVE",
"403 -438 OFFCURVE",
"526 -368 CURVE SMOOTH",
"600 -326 OFFCURVE",
"660 -266 OFFCURVE",
"692 -176 CURVE SMOOTH",
"720 -97 OFFCURVE",
"727 7 OFFCURVE",
"554 67 CURVE SMOOTH",
"445 106 OFFCURVE",
"202 150 OFFCURVE",
"238 246 CURVE SMOOTH",
"259 306 OFFCURVE",
"371 340 OFFCURVE",
"461 340 CURVE SMOOTH",
"669 338 OFFCURVE",
"857 465 OFFCURVE",
"912 620 CURVE SMOOTH",
"942 702 OFFCURVE",
"931 787 OFFCURVE",
"884 848 CURVE",
"913 894 OFFCURVE",
"954 935 OFFCURVE",
"980 931 CURVE SMOOTH",
"1024 928 OFFCURVE",
"1003 884 OFFCURVE",
"1052 878 CURVE SMOOTH",
"1096 875 OFFCURVE",
"1146 906 OFFCURVE",
"1162 954 CURVE SMOOTH",
"1181 1008 OFFCURVE",
"1146 1045 OFFCURVE",
"1095 1051 CURVE SMOOTH",
"1005 1058 OFFCURVE",
"915 957 OFFCURVE",
"857 876 CURVE",
"815 915 OFFCURVE",
"753 943 OFFCURVE",
"676 950 CURVE SMOOTH",
"488 966 OFFCURVE",
"299 854 OFFCURVE",
"238 679 CURVE SMOOTH",
"187 535 OFFCURVE",
"248 421 OFFCURVE",
"366 371 CURVE",
"157 327 OFFCURVE",
"86 239 OFFCURVE",
"67 183 CURVE SMOOTH",
"46 125 OFFCURVE",
"67 70 OFFCURVE",
"132 30 CURVE",
"-48 -25 OFFCURVE",
"-130 -92 OFFCURVE",
"-164 -185 CURVE SMOOTH",
"-190 -262 OFFCURVE",
"-171 -320 OFFCURVE",
"-123 -363 CURVE SMOOTH",
"-65 -415 OFFCURVE",
"37 -440 OFFCURVE",
"120 -447 CURVE SMOOTH"
);
},
{
closed = 1;
nodes = (
"519 -107 OFFCURVE",
"565 -150 OFFCURVE",
"535 -231 CURVE SMOOTH",
"512 -299 OFFCURVE",
"454 -345 OFFCURVE",
"384 -370 CURVE SMOOTH",
"320 -392 OFFCURVE",
"241 -400 OFFCURVE",
"172 -394 CURVE SMOOTH",
"100 -387 OFFCURVE",
"44 -366 OFFCURVE",
"9 -331 CURVE SMOOTH",
"-28 -292 OFFCURVE",
"-39 -239 OFFCURVE",
"-18 -176 CURVE SMOOTH",
"12 -95 OFFCURVE",
"88 -23 OFFCURVE",
"183 7 CURVE",
"224 -12 OFFCURVE",
"278 -32 OFFCURVE",
"334 -49 CURVE SMOOTH"
);
},
{
closed = 1;
nodes = (
"352 408 OFFCURVE",
"375 556 OFFCURVE",
"410 649 CURVE SMOOTH",
"444 748 OFFCURVE",
"533 912 OFFCURVE",
"669 899 CURVE SMOOTH",
"801 889 OFFCURVE",
"773 734 OFFCURVE",
"739 639 CURVE SMOOTH",
"699 524 OFFCURVE",
"611 384 OFFCURVE",
"482 396 CURVE SMOOTH"
);
}
);
width = 928;
},
{
anchors = (
{
name = top;
position = "{693, 1146}";
}
);
layerId = "5CF0B95A-6341-4D13-90DE-0CF1719C21EC";
paths = (
{
closed = 1;
nodes = (
"537 384 OFFCURVE",
"662 574 OFFCURVE",
"662 767 CURVE SMOOTH",
"662 848 OFFCURVE",
"635 885 OFFCURVE",
"567 885 CURVE SMOOTH",
"451 885 OFFCURVE",
"303 692 OFFCURVE",
"303 528 CURVE SMOOTH",
"303 436 OFFCURVE",
"341 384 OFFCURVE",
"408 384 CURVE SMOOTH"
);
},
{
closed = 1;
nodes = (
"989 950 OFFCURVE",
"1028 910 OFFCURVE",
"1028 862 CURVE SMOOTH",
"1028 822 OFFCURVE",
"994 792 OFFCURVE",
"954 792 CURVE SMOOTH",
"903 792 OFFCURVE",
"892 841 OFFCURVE",
"848 841 CURVE SMOOTH",
"824 841 OFFCURVE",
"797 824 OFFCURVE",
"785 799 CURVE",
"811 744 OFFCURVE",
"818 709 OFFCURVE",
"818 662 CURVE SMOOTH",
"818 475 OFFCURVE",
"653 324 OFFCURVE",
"451 324 CURVE SMOOTH",
"414 324 OFFCURVE",
"357 329 OFFCURVE",
"313 329 CURVE SMOOTH",
"204 329 OFFCURVE",
"153 301 OFFCURVE",
"153 250 CURVE SMOOTH {name = hr01;}",
"153 209 OFFCURVE",
"181 180 OFFCURVE",
"241 160 CURVE SMOOTH",
"516 67 LINE SMOOTH",
"628 28 OFFCURVE",
"700 -60 OFFCURVE",
"700 -162 CURVE SMOOTH",
"700 -329 OFFCURVE",
"503 -451 OFFCURVE",
"227 -451 CURVE SMOOTH",
"-28 -451 OFFCURVE",
"-202 -345 OFFCURVE",
"-202 -185 CURVE SMOOTH",
"-202 -49 OFFCURVE",
"-76 56 OFFCURVE",
"93 56 CURVE",
"44 93 OFFCURVE",
"16 148 OFFCURVE",
"16 204 CURVE SMOOTH",
"16 313 OFFCURVE",
"114 380 OFFCURVE",
"278 380 CURVE",
"280 387 LINE",
"195 447 OFFCURVE",
"150 526 OFFCURVE",
"150 620 CURVE SMOOTH {name = hr02;}",
"150 796 OFFCURVE",
"322 950 OFFCURVE",
"523 950 CURVE SMOOTH",
"618 950 OFFCURVE",
"693 915 OFFCURVE",
"752 843 CURVE",
"813 915 OFFCURVE",
"873 950 OFFCURVE",
"929 950 CURVE SMOOTH"
);
},
{
closed = 1;
nodes = (
"433 -398 OFFCURVE",
"560 -322 OFFCURVE",
"560 -220 CURVE SMOOTH",
"560 -162 OFFCURVE",
"505 -102 OFFCURVE",
"429 -76 CURVE SMOOTH",
"204 0 LINE SMOOTH",
"178 9 OFFCURVE",
"165 11 OFFCURVE",
"148 11 CURVE SMOOTH {name = hr04;}",
"35 11 OFFCURVE",
"-48 -79 OFFCURVE",
"-48 -188 CURVE SMOOTH",
"-48 -319 OFFCURVE",
"70 -398 OFFCURVE",
"252 -398 CURVE SMOOTH"
);
}
);
width = 928;
}
);
leftKerningGroup = g;
rightKerningGroup = g;
},
{
glyphname = g.004;
layers = (
{
anchors = (
{
name = top;
position = "{693, 1146}";
}
);
layerId = master01;
paths = (
{
closed = 1;
nodes = (
"250 -442 OFFCURVE",
"405 -449 OFFCURVE",
"524 -398 CURVE SMOOTH",
"597 -368 OFFCURVE",
"655 -317 OFFCURVE",
"685 -229 CURVE SMOOTH",
"713 -153 OFFCURVE",
"720 -48 OFFCURVE",
"553 46 CURVE SMOOTH",
"447 104 OFFCURVE",
"211 192 OFFCURVE",
"245 285 CURVE SMOOTH",
"266 343 OFFCURVE",
"375 359 OFFCURVE",
"463 343 CURVE SMOOTH",
"664 304 OFFCURVE",
"847 403 OFFCURVE",
"899 553 CURVE SMOOTH",
"928 634 OFFCURVE",
"919 722 OFFCURVE",
"873 794 CURVE",
"901 836 OFFCURVE",
"940 871 OFFCURVE",
"966 862 CURVE SMOOTH",
"1008 852 OFFCURVE",
"987 810 OFFCURVE",
"1035 796 CURVE SMOOTH",
"1079 783 OFFCURVE",
"1125 808 OFFCURVE",
"1142 854 CURVE SMOOTH",
"1160 906 OFFCURVE",
"1125 952 OFFCURVE",
"1075 966 CURVE SMOOTH",
"989 989 OFFCURVE",
"901 901 OFFCURVE",
"847 827 CURVE",
"804 876 OFFCURVE",
"746 915 OFFCURVE",
"671 935 CURVE SMOOTH",
"489 986 OFFCURVE",
"306 901 OFFCURVE",
"246 732 CURVE SMOOTH",
"195 591 OFFCURVE",
"255 463 OFFCURVE",
"371 392 CURVE",
"167 384 OFFCURVE",
"99 304 OFFCURVE",
"79 250 CURVE SMOOTH",
"60 194 OFFCURVE",
"81 134 OFFCURVE",
"143 79 CURVE",
"-32 55 OFFCURVE",
"-111 0 OFFCURVE",
"-143 -90 CURVE SMOOTH",
"-169 -165 OFFCURVE",
"-150 -229 OFFCURVE",
"-106 -280 CURVE SMOOTH",
"-48 -343 OFFCURVE",
"51 -387 OFFCURVE",
"132 -410 CURVE SMOOTH"
);
},
{
closed = 1;
nodes = (
"519 -128 OFFCURVE",
"563 -180 OFFCURVE",
"535 -259 CURVE SMOOTH",
"510 -326 OFFCURVE",
"456 -363 OFFCURVE",
"387 -375 CURVE SMOOTH",
"326 -389 OFFCURVE",
"248 -382 OFFCURVE",
"183 -364 CURVE SMOOTH",
"113 -345 OFFCURVE",
"58 -313 OFFCURVE",
"25 -271 CURVE SMOOTH",
"-12 -225 OFFCURVE",
"-23 -167 OFFCURVE",
"-2 -106 CURVE SMOOTH",
"26 -28 OFFCURVE",
"100 33 OFFCURVE",
"192 48 CURVE",
"232 21 OFFCURVE",
"285 -7 OFFCURVE",
"340 -35 CURVE SMOOTH"
);
},
{
closed = 1;
nodes = (
"356 431 OFFCURVE",
"378 581 OFFCURVE",
"412 672 CURVE SMOOTH",
"445 767 OFFCURVE",
"532 920 OFFCURVE",
"664 885 CURVE SMOOTH",
"792 850 OFFCURVE",
"764 695 OFFCURVE",
"732 604 CURVE SMOOTH",
"692 493 OFFCURVE",
"607 363 OFFCURVE",
"482 398 CURVE SMOOTH"
);
}
);
width = 928;
},
{
anchors = (
{
name = top;
position = "{693, 1146}";
}
);
layerId = "5CF0B95A-6341-4D13-90DE-0CF1719C21EC";
paths = (
{
closed = 1;
nodes = (
"537 384 OFFCURVE",
"662 574 OFFCURVE",
"662 767 CURVE SMOOTH",
"662 848 OFFCURVE",
"635 885 OFFCURVE",
"567 885 CURVE SMOOTH",
"451 885 OFFCURVE",
"303 692 OFFCURVE",
"303 528 CURVE SMOOTH",
"303 436 OFFCURVE",
"341 384 OFFCURVE",
"408 384 CURVE SMOOTH"
);
},
{
closed = 1;
nodes = (
"989 950 OFFCURVE",
"1028 910 OFFCURVE",
"1028 862 CURVE SMOOTH",
"1028 822 OFFCURVE",
"994 792 OFFCURVE",
"954 792 CURVE SMOOTH",
"903 792 OFFCURVE",
"892 841 OFFCURVE",
"848 841 CURVE SMOOTH",
"824 841 OFFCURVE",
"797 824 OFFCURVE",
"785 799 CURVE",
"811 744 OFFCURVE",
"818 709 OFFCURVE",
"818 662 CURVE SMOOTH",
"818 475 OFFCURVE",
"653 324 OFFCURVE",
"451 324 CURVE SMOOTH",
"414 324 OFFCURVE",
"357 329 OFFCURVE",
"313 329 CURVE SMOOTH",
"204 329 OFFCURVE",
"153 301 OFFCURVE",
"153 250 CURVE SMOOTH {name = hr01;}",
"153 209 OFFCURVE",
"181 180 OFFCURVE",
"241 160 CURVE SMOOTH",
"516 67 LINE SMOOTH",
"628 28 OFFCURVE",
"700 -60 OFFCURVE",
"700 -162 CURVE SMOOTH",
"700 -329 OFFCURVE",
"503 -451 OFFCURVE",
"227 -451 CURVE SMOOTH",
"-28 -451 OFFCURVE",
"-202 -345 OFFCURVE",
"-202 -185 CURVE SMOOTH",
"-202 -49 OFFCURVE",
"-76 56 OFFCURVE",
"93 56 CURVE",
"44 93 OFFCURVE",
"16 148 OFFCURVE",
"16 204 CURVE SMOOTH",
"16 313 OFFCURVE",
"114 380 OFFCURVE",
"278 380 CURVE",
"280 387 LINE",
"195 447 OFFCURVE",
"150 526 OFFCURVE",
"150 620 CURVE SMOOTH {name = hr02;}",
"150 796 OFFCURVE",
"322 950 OFFCURVE",
"523 950 CURVE SMOOTH",
"618 950 OFFCURVE",
"693 915 OFFCURVE",
"752 843 CURVE",
"813 915 OFFCURVE",
"873 950 OFFCURVE",
"929 950 CURVE SMOOTH"
);
},
{
closed = 1;
nodes = (
"433 -398 OFFCURVE",
"560 -322 OFFCURVE",
"560 -220 CURVE SMOOTH",
"560 -162 OFFCURVE",
"505 -102 OFFCURVE",
"429 -76 CURVE SMOOTH",
"204 0 LINE SMOOTH",
"178 9 OFFCURVE",
"165 11 OFFCURVE",
"148 11 CURVE SMOOTH {name = hr04;}",
"35 11 OFFCURVE",
"-48 -79 OFFCURVE",
"-48 -188 CURVE SMOOTH",
"-48 -319 OFFCURVE",
"70 -398 OFFCURVE",
"252 -398 CURVE SMOOTH"
);
}
);
width = 928;
}
);
leftKerningGroup = g;
rightKerningGroup = g;
},
{
glyphname = c_p;
layers = (
{
anchors = (
{
name = caret_1;
position = "{714, 0}";
}
);
components = (
{
name = c;
}
);
layerId = master01;
paths = (
{
closed = 1;
nodes = (
"1413 1195 OFFCURVE",
"1413 1188 OFFCURVE",
"1412 1181 CURVE",
"1376 1163 OFFCURVE",
"1331 1153 OFFCURVE",
"1285 1153 CURVE SMOOTH",
"1109 1153 OFFCURVE",
"977 1309 OFFCURVE",
"801 1309 CURVE SMOOTH",
"692 1309 OFFCURVE",
"625 1248 OFFCURVE",
"625 1148 CURVE SMOOTH",
"625 1051 OFFCURVE",
"686 961 OFFCURVE",
"801 887 CURVE",
"847 908 LINE",
"755 973 OFFCURVE",
"723 1012 OFFCURVE",
"723 1074 CURVE SMOOTH",
"723 1151 OFFCURVE",
"778 1197 OFFCURVE",
"875 1197 CURVE SMOOTH",
"1010 1197 OFFCURVE",
"1089 1100 OFFCURVE",
"1260 1100 CURVE SMOOTH",
"1309 1100 OFFCURVE",
"1355 1107 OFFCURVE",
"1396 1121 CURVE",
"1371 1063 OFFCURVE",
"1320 1003 OFFCURVE",
"1243 938 CURVE",
"1162 924 OFFCURVE",
"1084 894 OFFCURVE",
"1024 855 CURVE",
"1038 820 LINE",
"1079 848 OFFCURVE",
"1140 869 OFFCURVE",
"1223 885 CURVE",
"678 -392 LINE",
"537 -414 LINE",
"537 -440 LINE",
"1040 -440 LINE",
"1040 -408 LINE",
"861 -387 LINE",
"1031 23 LINE",
"1058 19 OFFCURVE",
"1091 18 OFFCURVE",
"1121 18 CURVE SMOOTH",
"1468 18 OFFCURVE",
"1792 299 OFFCURVE",
"1792 602 CURVE SMOOTH",
"1792 797 OFFCURVE",
"1656 924 OFFCURVE",
"1417 950 CURVE",
"1512 1202 LINE",
"1538 1236 OFFCURVE",
"1551 1271 OFFCURVE",
"1551 1306 CURVE SMOOTH",
"1551 1348 OFFCURVE",
"1529 1373 OFFCURVE",
"1491 1373 CURVE SMOOTH",
"1441 1373 OFFCURVE",
"1413 1336 OFFCURVE",
"1413 1269 CURVE SMOOTH",
"1413 1202 LINE SMOOTH {name = hr00;}"
);
},
{
closed = 1;
nodes = (
"1390 889 OFFCURVE",
"1401 894 OFFCURVE",
"1427 894 CURVE SMOOTH",
"1538 894 OFFCURVE",
"1609 797 OFFCURVE",
"1609 644 CURVE SMOOTH",
"1609 352 OFFCURVE",
"1357 69 OFFCURVE",
"1096 69 CURVE SMOOTH",
"1067 69 OFFCURVE",
"1061 69 OFFCURVE",
"1051 70 CURVE",
"1385 875 LINE SMOOTH"
);
}
);
width = 1881;
},
{
components = (
{
name = c;
}
);
layerId = "5CF0B95A-6341-4D13-90DE-0CF1719C21EC";
paths = (
{
closed = 1;
nodes = (
"1413 1195 OFFCURVE",
"1413 1188 OFFCURVE",
"1412 1181 CURVE",
"1376 1163 OFFCURVE",
"1331 1153 OFFCURVE",
"1285 1153 CURVE SMOOTH",
"1109 1153 OFFCURVE",
"977 1309 OFFCURVE",
"801 1309 CURVE SMOOTH",
"692 1309 OFFCURVE",
"625 1248 OFFCURVE",
"625 1148 CURVE SMOOTH",
"625 1051 OFFCURVE",
"686 961 OFFCURVE",
"801 887 CURVE",
"847 908 LINE",
"755 973 OFFCURVE",
"723 1012 OFFCURVE",
"723 1074 CURVE SMOOTH",
"723 1151 OFFCURVE",
"778 1197 OFFCURVE",
"875 1197 CURVE SMOOTH",
"1010 1197 OFFCURVE",
"1089 1100 OFFCURVE",
"1260 1100 CURVE SMOOTH",
"1309 1100 OFFCURVE",
"1355 1107 OFFCURVE",
"1396 1121 CURVE",
"1371 1063 OFFCURVE",
"1320 1003 OFFCURVE",
"1243 938 CURVE",
"1162 924 OFFCURVE",
"1084 894 OFFCURVE",
"1024 855 CURVE",
"1038 820 LINE",
"1079 848 OFFCURVE",
"1140 869 OFFCURVE",
"1223 885 CURVE",
"678 -392 LINE",
"537 -414 LINE",
"537 -440 LINE",
"1040 -440 LINE",
"1040 -408 LINE",
"861 -387 LINE",
"1031 23 LINE",
"1058 19 OFFCURVE",
"1091 18 OFFCURVE",
"1121 18 CURVE SMOOTH",
"1468 18 OFFCURVE",
"1792 299 OFFCURVE",
"1792 602 CURVE SMOOTH",
"1792 797 OFFCURVE",
"1656 924 OFFCURVE",
"1417 950 CURVE",
"1512 1202 LINE",
"1538 1236 OFFCURVE",
"1551 1271 OFFCURVE",
"1551 1306 CURVE SMOOTH",
"1551 1348 OFFCURVE",
"1529 1373 OFFCURVE",
"1491 1373 CURVE SMOOTH",
"1441 1373 OFFCURVE",
"1413 1336 OFFCURVE",
"1413 1269 CURVE SMOOTH",
"1413 1202 LINE SMOOTH {name = hr00;}"
);
},
{
closed = 1;
nodes = (
"1390 889 OFFCURVE",
"1401 894 OFFCURVE",
"1427 894 CURVE SMOOTH",
"1538 894 OFFCURVE",
"1609 797 OFFCURVE",
"1609 644 CURVE SMOOTH",
"1609 352 OFFCURVE",
"1357 69 OFFCURVE",
"1096 69 CURVE SMOOTH",
"1067 69 OFFCURVE",
"1061 69 OFFCURVE",
"1051 70 CURVE",
"1385 875 LINE SMOOTH"
);
}
);
width = 1881;
}
);
leftKerningGroup = c;
rightKerningGroup = p;
},
{
glyphname = c_t;
layers = (
{
anchors = (
{
name = caret_1;
position = "{708, 0}";
}
);
components = (
{
name = c;
}
);
layerId = master01;
paths = (
{
closed = 1;
nodes = (
"1214 876 LINE",
"1031 449 LINE SMOOTH",
"926 202 OFFCURVE",
"910 143 OFFCURVE",
"910 93 CURVE SMOOTH",
"910 16 OFFCURVE",
"933 -18 OFFCURVE",
"1003 -18 CURVE SMOOTH",
"1105 -18 OFFCURVE",
"1230 63 OFFCURVE",
"1343 206 CURVE",
"1308 227 LINE",
"1213 128 OFFCURVE",
"1160 86 OFFCURVE",
"1125 86 CURVE SMOOTH",
"1098 86 OFFCURVE",
"1086 102 OFFCURVE",
"1086 128 CURVE SMOOTH",
"1086 153 OFFCURVE",
"1100 183 OFFCURVE",
"1251 537 CURVE SMOOTH",
"1396 876 LINE",
"1556 876 LINE",
"1575 933 LINE",
"1419 933 LINE",
"1512 1202 LINE",
"1538 1236 OFFCURVE",
"1551 1271 OFFCURVE",
"1551 1306 CURVE SMOOTH",
"1551 1348 OFFCURVE",
"1529 1373 OFFCURVE",
"1491 1373 CURVE SMOOTH",
"1441 1373 OFFCURVE",
"1413 1336 OFFCURVE",
"1413 1269 CURVE SMOOTH",
"1413 1202 LINE SMOOTH",
"1413 1195 OFFCURVE",
"1413 1188 OFFCURVE",
"1412 1181 CURVE",
"1376 1163 OFFCURVE",
"1331 1153 OFFCURVE",
"1285 1153 CURVE SMOOTH",
"1109 1153 OFFCURVE",
"977 1309 OFFCURVE",
"801 1309 CURVE SMOOTH",
"692 1309 OFFCURVE",
"625 1248 OFFCURVE",
"625 1148 CURVE SMOOTH",
"625 1051 OFFCURVE",
"686 961 OFFCURVE",
"801 887 CURVE",
"847 908 LINE",
"755 973 OFFCURVE",
"723 1012 OFFCURVE",
"723 1074 CURVE SMOOTH",
"723 1151 OFFCURVE",
"778 1197 OFFCURVE",
"875 1197 CURVE SMOOTH",
"1010 1197 OFFCURVE",
"1089 1100 OFFCURVE",
"1260 1100 CURVE SMOOTH",
"1309 1100 OFFCURVE",
"1355 1107 OFFCURVE",
"1396 1121 CURVE",
"1369 1061 OFFCURVE",
"1316 998 OFFCURVE",
"1241 933 CURVE",
"1089 933 LINE",
"1070 876 LINE {name = hr00;}"
);
}
);
width = 1489;
},
{
components = (
{
name = c;
}
);
layerId = "5CF0B95A-6341-4D13-90DE-0CF1719C21EC";
paths = (
{
closed = 1;
nodes = (
"1214 876 LINE",
"1031 449 LINE SMOOTH",
"926 202 OFFCURVE",
"910 143 OFFCURVE",
"910 93 CURVE SMOOTH",
"910 16 OFFCURVE",
"933 -18 OFFCURVE",
"1003 -18 CURVE SMOOTH",
"1105 -18 OFFCURVE",
"1230 63 OFFCURVE",
"1343 206 CURVE",
"1308 227 LINE",
"1213 128 OFFCURVE",
"1160 86 OFFCURVE",
"1125 86 CURVE SMOOTH",
"1098 86 OFFCURVE",
"1086 102 OFFCURVE",
"1086 128 CURVE SMOOTH",
"1086 153 OFFCURVE",
"1100 183 OFFCURVE",
"1251 537 CURVE SMOOTH",
"1396 876 LINE",
"1556 876 LINE",
"1575 933 LINE",
"1419 933 LINE",
"1512 1202 LINE",
"1538 1236 OFFCURVE",
"1551 1271 OFFCURVE",
"1551 1306 CURVE SMOOTH",
"1551 1348 OFFCURVE",
"1529 1373 OFFCURVE",
"1491 1373 CURVE SMOOTH",
"1441 1373 OFFCURVE",
"1413 1336 OFFCURVE",
"1413 1269 CURVE SMOOTH",
"1413 1202 LINE SMOOTH",
"1413 1195 OFFCURVE",
"1413 1188 OFFCURVE",
"1412 1181 CURVE",
"1376 1163 OFFCURVE",
"1331 1153 OFFCURVE",
"1285 1153 CURVE SMOOTH",
"1109 1153 OFFCURVE",
"977 1309 OFFCURVE",
"801 1309 CURVE SMOOTH",
"692 1309 OFFCURVE",
"625 1248 OFFCURVE",
"625 1148 CURVE SMOOTH",
"625 1051 OFFCURVE",
"686 961 OFFCURVE",
"801 887 CURVE",
"847 908 LINE",
"755 973 OFFCURVE",
"723 1012 OFFCURVE",
"723 1074 CURVE SMOOTH",
"723 1151 OFFCURVE",
"778 1197 OFFCURVE",
"875 1197 CURVE SMOOTH",
"1010 1197 OFFCURVE",
"1089 1100 OFFCURVE",
"1260 1100 CURVE SMOOTH",
"1309 1100 OFFCURVE",
"1355 1107 OFFCURVE",
"1396 1121 CURVE",
"1369 1061 OFFCURVE",
"1316 998 OFFCURVE",
"1241 933 CURVE",
"1089 933 LINE",
"1070 876 LINE {name = hr00;}"
);
}
);
width = 1489;
}
);
leftKerningGroup = c;
rightKerningGroup = t;
},
{
glyphname = e_t;
layers = (
{
anchors = (
{
name = caret_1;
position = "{668, 0}";
}
);
components = (
{
name = e;
}
);
layerId = master01;
paths = (
{
closed = 1;
nodes = (
"1228 933 LINE",
"1304 998 OFFCURVE",
"1357 1061 OFFCURVE",
"1383 1121 CURVE",
"1343 1107 OFFCURVE",
"1297 1100 OFFCURVE",
"1248 1100 CURVE SMOOTH",
"1077 1100 OFFCURVE",
"998 1197 OFFCURVE",
"862 1197 CURVE SMOOTH",
"764 1197 OFFCURVE",
"711 1153 OFFCURVE",
"711 1074 CURVE SMOOTH",
"711 1012 OFFCURVE",
"743 973 OFFCURVE",
"834 908 CURVE",
"788 887 LINE",
"674 961 OFFCURVE",
"612 1051 OFFCURVE",
"612 1148 CURVE SMOOTH",
"612 1248 OFFCURVE",
"679 1309 OFFCURVE",
"788 1309 CURVE SMOOTH",
"964 1309 OFFCURVE",
"1096 1153 OFFCURVE",
"1272 1153 CURVE SMOOTH",
"1318 1153 OFFCURVE",
"1364 1163 OFFCURVE",
"1399 1181 CURVE",
"1401 1188 OFFCURVE",
"1401 1195 OFFCURVE",
"1401 1202 CURVE SMOOTH",
"1401 1269 LINE SMOOTH",
"1401 1336 OFFCURVE",
"1429 1373 OFFCURVE",
"1478 1373 CURVE SMOOTH",
"1517 1373 OFFCURVE",
"1538 1348 OFFCURVE",
"1538 1306 CURVE SMOOTH",
"1538 1271 OFFCURVE",
"1526 1236 OFFCURVE",
"1500 1202 CURVE",
"1406 933 LINE",
"1563 933 LINE",
"1544 876 LINE",
"1383 876 LINE",
"1239 537 LINE SMOOTH",
"1088 183 OFFCURVE",
"1074 153 OFFCURVE",
"1074 128 CURVE SMOOTH",
"1074 102 OFFCURVE",
"1086 86 OFFCURVE",
"1112 86 CURVE SMOOTH",
"1148 86 OFFCURVE",
"1200 128 OFFCURVE",
"1295 227 CURVE",
"1331 206 LINE",
"1218 63 OFFCURVE",
"1093 -18 OFFCURVE",
"991 -18 CURVE SMOOTH",
"920 -18 OFFCURVE",
"898 16 OFFCURVE",
"898 93 CURVE SMOOTH",
"898 143 OFFCURVE",
"913 202 OFFCURVE",
"1019 449 CURVE SMOOTH",
"1202 876 LINE",
"1058 876 LINE",
"1077 933 LINE"
);
}
);
width = 1477;
},
{
components = (
{
name = e;
}
);
layerId = "5CF0B95A-6341-4D13-90DE-0CF1719C21EC";
paths = (
{
closed = 1;
nodes = (
"1228 933 LINE",
"1304 998 OFFCURVE",
"1357 1061 OFFCURVE",
"1383 1121 CURVE",
"1343 1107 OFFCURVE",
"1297 1100 OFFCURVE",
"1248 1100 CURVE SMOOTH",
"1077 1100 OFFCURVE",
"998 1197 OFFCURVE",
"862 1197 CURVE SMOOTH",
"764 1197 OFFCURVE",
"711 1153 OFFCURVE",
"711 1074 CURVE SMOOTH",
"711 1012 OFFCURVE",
"743 973 OFFCURVE",
"834 908 CURVE",
"788 887 LINE",
"674 961 OFFCURVE",
"612 1051 OFFCURVE",
"612 1148 CURVE SMOOTH",
"612 1248 OFFCURVE",
"679 1309 OFFCURVE",
"788 1309 CURVE SMOOTH",
"964 1309 OFFCURVE",
"1096 1153 OFFCURVE",
"1272 1153 CURVE SMOOTH",
"1318 1153 OFFCURVE",
"1364 1163 OFFCURVE",
"1399 1181 CURVE",
"1401 1188 OFFCURVE",
"1401 1195 OFFCURVE",
"1401 1202 CURVE SMOOTH",
"1401 1269 LINE SMOOTH",
"1401 1336 OFFCURVE",
"1429 1373 OFFCURVE",
"1478 1373 CURVE SMOOTH",
"1517 1373 OFFCURVE",
"1538 1348 OFFCURVE",
"1538 1306 CURVE SMOOTH",
"1538 1271 OFFCURVE",
"1526 1236 OFFCURVE",
"1500 1202 CURVE",
"1406 933 LINE",
"1563 933 LINE",
"1544 876 LINE",
"1383 876 LINE",
"1239 537 LINE SMOOTH",
"1088 183 OFFCURVE",
"1074 153 OFFCURVE",
"1074 128 CURVE SMOOTH",
"1074 102 OFFCURVE",
"1086 86 OFFCURVE",
"1112 86 CURVE SMOOTH",
"1148 86 OFFCURVE",
"1200 128 OFFCURVE",
"1295 227 CURVE",
"1331 206 LINE",
"1218 63 OFFCURVE",
"1093 -18 OFFCURVE",
"991 -18 CURVE SMOOTH",
"920 -18 OFFCURVE",
"898 16 OFFCURVE",
"898 93 CURVE SMOOTH",
"898 143 OFFCURVE",
"913 202 OFFCURVE",
"1019 449 CURVE SMOOTH",
"1202 876 LINE",
"1058 876 LINE",
"1077 933 LINE"
);
}
);
width = 1477;
}
);
leftKerningGroup = e;
rightKerningGroup = t;
},
{
glyphname = f_b;
layers = (
{
anchors = (
{
name = caret_1;
position = "{430, 0}";
}
);
layerId = master01;
paths = (
{
closed = 1;
nodes = (
"1288 1443 LINE",
"1295 1436 LINE",
"1040 813 LINE",
"1049 813 LINE",
"1128 901 OFFCURVE",
"1225 950 OFFCURVE",
"1315 950 CURVE SMOOTH",
"1447 950 OFFCURVE",
"1533 854 OFFCURVE",
"1533 679 CURVE SMOOTH",
"1533 340 OFFCURVE",
"1220 -18 OFFCURVE",
"908 -18 CURVE SMOOTH",
"744 -18 OFFCURVE",
"656 76 OFFCURVE",
"656 231 CURVE SMOOTH",
"656 290 OFFCURVE",
"672 361 OFFCURVE",
"704 438 CURVE SMOOTH",
"982 1118 LINE SMOOTH",
"1007 1179 OFFCURVE",
"1012 1211 OFFCURVE",
"1012 1262 CURVE SMOOTH",
"1012 1368 OFFCURVE",
"979 1413 OFFCURVE",
"901 1413 CURVE SMOOTH",
"780 1413 OFFCURVE",
"683 1301 OFFCURVE",
"579 1038 CURVE SMOOTH",
"537 933 LINE {name = hr01;}",
"709 933 LINE",
"686 876 LINE",
"516 876 LINE",
"292 357 LINE SMOOTH",
"51 -202 OFFCURVE",
"-164 -451 OFFCURVE",
"-407 -451 CURVE SMOOTH",
"-523 -451 OFFCURVE",
"-602 -392 OFFCURVE",
"-602 -310 CURVE SMOOTH",
"-602 -260 OFFCURVE",
"-574 -232 OFFCURVE",
"-521 -232 CURVE SMOOTH",
"-398 -232 OFFCURVE",
"-451 -389 OFFCURVE",
"-357 -389 CURVE SMOOTH {name = hr02;}",
"-248 -389 OFFCURVE",
"-102 -171 OFFCURVE",
"69 252 CURVE SMOOTH",
"322 876 LINE",
"167 876 LINE",
"188 933 LINE",
"345 933 LINE",
"400 1056 LINE SMOOTH",
"512 1311 OFFCURVE",
"695 1461 OFFCURVE",
"898 1461 CURVE SMOOTH",
"980 1461 OFFCURVE",
"1052 1433 OFFCURVE",
"1096 1390 CURVE"
);
},
{
closed = 1;
nodes = (
"880 445 OFFCURVE",
"801 252 OFFCURVE",
"801 144 CURVE SMOOTH",
"801 83 OFFCURVE",
"840 44 OFFCURVE",
"894 44 CURVE SMOOTH",
"1072 44 OFFCURVE",
"1362 473 OFFCURVE",
"1362 732 CURVE SMOOTH",
"1362 825 OFFCURVE",
"1327 889 OFFCURVE",
"1271 889 CURVE SMOOTH {name = hr03;}",
"1174 889 OFFCURVE",
"1021 737 OFFCURVE",
"929 546 CURVE SMOOTH"
);
}
);
width = 1609;
},
{
layerId = "5CF0B95A-6341-4D13-90DE-0CF1719C21EC";
paths = (
{
closed = 1;
nodes = (
"1288 1443 LINE",
"1295 1436 LINE",
"1040 813 LINE",
"1049 813 LINE",
"1128 901 OFFCURVE",
"1225 950 OFFCURVE",
"1315 950 CURVE SMOOTH",
"1447 950 OFFCURVE",
"1533 854 OFFCURVE",
"1533 679 CURVE SMOOTH",
"1533 340 OFFCURVE",
"1220 -18 OFFCURVE",
"908 -18 CURVE SMOOTH",
"744 -18 OFFCURVE",
"656 76 OFFCURVE",
"656 231 CURVE SMOOTH",
"656 290 OFFCURVE",
"672 361 OFFCURVE",
"704 438 CURVE SMOOTH",
"982 1118 LINE SMOOTH",
"1007 1179 OFFCURVE",
"1012 1211 OFFCURVE",
"1012 1262 CURVE SMOOTH",
"1012 1368 OFFCURVE",
"979 1413 OFFCURVE",
"901 1413 CURVE SMOOTH",
"780 1413 OFFCURVE",
"683 1301 OFFCURVE",
"579 1038 CURVE SMOOTH",
"537 933 LINE {name = hr01;}",
"709 933 LINE",
"686 876 LINE",
"516 876 LINE",
"292 357 LINE SMOOTH",
"51 -202 OFFCURVE",
"-164 -451 OFFCURVE",
"-407 -451 CURVE SMOOTH",
"-523 -451 OFFCURVE",
"-602 -392 OFFCURVE",
"-602 -310 CURVE SMOOTH",
"-602 -260 OFFCURVE",
"-574 -232 OFFCURVE",
"-521 -232 CURVE SMOOTH",
"-398 -232 OFFCURVE",
"-451 -389 OFFCURVE",
"-357 -389 CURVE SMOOTH {name = hr02;}",
"-248 -389 OFFCURVE",
"-102 -171 OFFCURVE",
"69 252 CURVE SMOOTH",
"322 876 LINE",
"167 876 LINE",
"188 933 LINE",
"345 933 LINE",
"400 1056 LINE SMOOTH",
"512 1311 OFFCURVE",
"695 1461 OFFCURVE",
"898 1461 CURVE SMOOTH",
"980 1461 OFFCURVE",
"1052 1433 OFFCURVE",
"1096 1390 CURVE"
);
},
{
closed = 1;
nodes = (
"880 445 OFFCURVE",
"801 252 OFFCURVE",
"801 144 CURVE SMOOTH",
"801 83 OFFCURVE",
"840 44 OFFCURVE",
"894 44 CURVE SMOOTH",
"1072 44 OFFCURVE",
"1362 473 OFFCURVE",
"1362 732 CURVE SMOOTH",
"1362 825 OFFCURVE",
"1327 889 OFFCURVE",
"1271 889 CURVE SMOOTH {name = hr03;}",
"1174 889 OFFCURVE",
"1021 737 OFFCURVE",
"929 546 CURVE SMOOTH"
);
}
);
width = 1609;
}
);
leftKerningGroup = f;
rightKerningGroup = b;
},
{
glyphname = f_f;
layers = (
{
anchors = (
{
name = caret_1;
position = "{395, 0}";
}
);
layerId = master01;
paths = (
{
closed = 1;
nodes = (
"1005 1373 OFFCURVE",
"1093 1341 OFFCURVE",
"1146 1294 CURVE",
"1237 1394 OFFCURVE",
"1369 1461 OFFCURVE",
"1492 1461 CURVE SMOOTH {name = hr01;}",
"1628 1461 OFFCURVE",
"1735 1382 OFFCURVE",
"1735 1281 CURVE SMOOTH",
"1735 1227 OFFCURVE",
"1704 1193 OFFCURVE",
"1654 1193 CURVE SMOOTH",
"1603 1193 OFFCURVE",
"1568 1227 OFFCURVE",
"1568 1272 CURVE SMOOTH",
"1568 1301 OFFCURVE",
"1580 1327 OFFCURVE",
"1580 1350 CURVE SMOOTH",
"1580 1389 OFFCURVE",
"1545 1413 OFFCURVE",
"1492 1413 CURVE SMOOTH {name = hr02;}",
"1382 1413 OFFCURVE",
"1292 1302 OFFCURVE",
"1186 1038 CURVE SMOOTH",
"1144 933 LINE",
"1316 933 LINE",
"1294 876 LINE",
"1123 876 LINE",
"899 357 LINE SMOOTH",
"651 -216 OFFCURVE",
"458 -451 OFFCURVE",
"236 -451 CURVE SMOOTH",
"130 -451 OFFCURVE",
"58 -394 OFFCURVE",
"58 -310 CURVE SMOOTH {name = hr03;}",
"58 -259 OFFCURVE",
"92 -224 OFFCURVE",
"139 -224 CURVE SMOOTH",
"239 -224 OFFCURVE",
"201 -389 OFFCURVE",
"285 -389 CURVE SMOOTH",
"377 -389 OFFCURVE",
"496 -194 OFFCURVE",
"676 252 CURVE SMOOTH",
"929 876 LINE",
"516 876 LINE",
"292 357 LINE SMOOTH",
"51 -202 OFFCURVE",
"-164 -451 OFFCURVE",
"-407 -451 CURVE SMOOTH",
"-523 -451 OFFCURVE",
"-602 -392 OFFCURVE",
"-602 -310 CURVE SMOOTH",
"-602 -260 OFFCURVE",
"-574 -232 OFFCURVE",
"-521 -232 CURVE SMOOTH {name = hr04;}",
"-398 -232 OFFCURVE",
"-451 -389 OFFCURVE",
"-357 -389 CURVE SMOOTH {name = hr05;}",
"-248 -389 OFFCURVE",
"-102 -169 OFFCURVE",
"69 252 CURVE SMOOTH",
"322 876 LINE",
"167 876 LINE",
"188 933 LINE",
"345 933 LINE",
"361 968 LINE SMOOTH",
"475 1220 OFFCURVE",
"683 1373 OFFCURVE",
"906 1373 CURVE SMOOTH"
);
},
{
closed = 1;
nodes = (
"1058 1163 LINE",
"1058 1272 OFFCURVE",
"1014 1322 OFFCURVE",
"919 1322 CURVE SMOOTH",
"769 1322 OFFCURVE",
"648 1200 OFFCURVE",
"544 950 CURVE SMOOTH",
"537 933 LINE",
"952 933 LINE"
);
}
);
width = 1177;
},
{
layerId = "5CF0B95A-6341-4D13-90DE-0CF1719C21EC";
paths = (
{
closed = 1;
nodes = (
"1005 1373 OFFCURVE",
"1093 1341 OFFCURVE",
"1146 1294 CURVE",
"1237 1394 OFFCURVE",
"1369 1461 OFFCURVE",
"1492 1461 CURVE SMOOTH {name = hr01;}",
"1628 1461 OFFCURVE",
"1735 1382 OFFCURVE",
"1735 1281 CURVE SMOOTH",
"1735 1227 OFFCURVE",
"1704 1193 OFFCURVE",
"1654 1193 CURVE SMOOTH",
"1603 1193 OFFCURVE",
"1568 1227 OFFCURVE",
"1568 1272 CURVE SMOOTH",
"1568 1301 OFFCURVE",
"1580 1327 OFFCURVE",
"1580 1350 CURVE SMOOTH",
"1580 1389 OFFCURVE",
"1545 1413 OFFCURVE",
"1492 1413 CURVE SMOOTH {name = hr02;}",
"1382 1413 OFFCURVE",
"1292 1302 OFFCURVE",
"1186 1038 CURVE SMOOTH",
"1144 933 LINE",
"1316 933 LINE",
"1294 876 LINE",
"1123 876 LINE",
"899 357 LINE SMOOTH",
"651 -216 OFFCURVE",
"458 -451 OFFCURVE",
"236 -451 CURVE SMOOTH",
"130 -451 OFFCURVE",
"58 -394 OFFCURVE",
"58 -310 CURVE SMOOTH {name = hr03;}",
"58 -259 OFFCURVE",
"92 -224 OFFCURVE",
"139 -224 CURVE SMOOTH",
"239 -224 OFFCURVE",
"201 -389 OFFCURVE",
"285 -389 CURVE SMOOTH",
"377 -389 OFFCURVE",
"496 -194 OFFCURVE",
"676 252 CURVE SMOOTH",
"929 876 LINE",
"516 876 LINE",
"292 357 LINE SMOOTH",
"51 -202 OFFCURVE",
"-164 -451 OFFCURVE",
"-407 -451 CURVE SMOOTH",
"-523 -451 OFFCURVE",
"-602 -392 OFFCURVE",
"-602 -310 CURVE SMOOTH",
"-602 -260 OFFCURVE",
"-574 -232 OFFCURVE",
"-521 -232 CURVE SMOOTH {name = hr04;}",
"-398 -232 OFFCURVE",
"-451 -389 OFFCURVE",
"-357 -389 CURVE SMOOTH {name = hr05;}",
"-248 -389 OFFCURVE",
"-102 -169 OFFCURVE",
"69 252 CURVE SMOOTH",
"322 876 LINE",
"167 876 LINE",
"188 933 LINE",
"345 933 LINE",
"361 968 LINE SMOOTH",
"475 1220 OFFCURVE",
"683 1373 OFFCURVE",
"906 1373 CURVE SMOOTH"
);
},
{
closed = 1;
nodes = (
"1058 1163 LINE",
"1058 1272 OFFCURVE",
"1014 1322 OFFCURVE",
"919 1322 CURVE SMOOTH",
"769 1322 OFFCURVE",
"648 1200 OFFCURVE",
"544 950 CURVE SMOOTH",
"537 933 LINE",
"952 933 LINE"
);
}
);
width = 1177;
}
);
leftKerningGroup = f;
rightKerningGroup = f;
unicode = FB00;
},
{
glyphname = f_f_b;
layers = (
{
anchors = (
{
name = caret_1;
position = "{405, 0}";
},
{
name = caret_2;
position = "{1014, 0}";
}
);
layerId = master01;
paths = (
{
closed = 1;
nodes = (
"1588 1461 OFFCURVE",
"1660 1433 OFFCURVE",
"1704 1390 CURVE",
"1896 1443 LINE",
"1903 1436 LINE",
"1647 813 LINE",
"1656 813 LINE",
"1735 901 OFFCURVE",
"1832 950 OFFCURVE",
"1922 950 CURVE SMOOTH",
"2054 950 OFFCURVE",
"2140 854 OFFCURVE",
"2140 679 CURVE SMOOTH",
"2140 340 OFFCURVE",
"1827 -18 OFFCURVE",
"1515 -18 CURVE SMOOTH",
"1352 -18 OFFCURVE",
"1264 76 OFFCURVE",
"1264 231 CURVE SMOOTH",
"1264 290 OFFCURVE",
"1280 361 OFFCURVE",
"1311 438 CURVE SMOOTH",
"1589 1118 LINE SMOOTH",
"1614 1179 OFFCURVE",
"1619 1211 OFFCURVE",
"1619 1262 CURVE SMOOTH",
"1619 1368 OFFCURVE",
"1586 1413 OFFCURVE",
"1508 1413 CURVE SMOOTH",
"1387 1413 OFFCURVE",
"1290 1301 OFFCURVE",
"1186 1038 CURVE SMOOTH",
"1144 933 LINE {name = hr01;}",
"1316 933 LINE",
"1294 876 LINE",
"1123 876 LINE",
"899 357 LINE SMOOTH",
"658 -202 OFFCURVE",
"444 -451 OFFCURVE",
"201 -451 CURVE SMOOTH",
"84 -451 OFFCURVE",
"5 -392 OFFCURVE",
"5 -310 CURVE SMOOTH",
"5 -260 OFFCURVE",
"33 -232 OFFCURVE",
"86 -232 CURVE SMOOTH",
"209 -232 OFFCURVE",
"157 -389 OFFCURVE",
"250 -389 CURVE SMOOTH {name = hr02;}",
"359 -389 OFFCURVE",
"505 -171 OFFCURVE",
"676 252 CURVE SMOOTH",
"929 876 LINE",
"516 876 LINE",
"292 357 LINE SMOOTH",
"51 -202 OFFCURVE",
"-164 -451 OFFCURVE",
"-407 -451 CURVE SMOOTH",
"-523 -451 OFFCURVE",
"-602 -392 OFFCURVE",
"-602 -310 CURVE SMOOTH",
"-602 -260 OFFCURVE",
"-574 -232 OFFCURVE",
"-521 -232 CURVE SMOOTH {name = hr03;}",
"-398 -232 OFFCURVE",
"-451 -389 OFFCURVE",
"-357 -389 CURVE SMOOTH {name = hr04;}",
"-248 -389 OFFCURVE",
"-102 -169 OFFCURVE",
"69 252 CURVE SMOOTH",
"322 876 LINE",
"167 876 LINE",
"188 933 LINE",
"345 933 LINE",
"361 968 LINE SMOOTH",
"475 1220 OFFCURVE",
"683 1373 OFFCURVE",
"906 1373 CURVE SMOOTH",
"1010 1373 OFFCURVE",
"1100 1339 OFFCURVE",
"1153 1288 CURVE",
"1253 1399 OFFCURVE",
"1375 1461 OFFCURVE",
"1505 1461 CURVE SMOOTH"
);
},
{
closed = 1;
nodes = (
"1487 445 OFFCURVE",
"1408 252 OFFCURVE",
"1408 144 CURVE SMOOTH",
"1408 83 OFFCURVE",
"1447 44 OFFCURVE",
"1501 44 CURVE SMOOTH",
"1679 44 OFFCURVE",
"1969 473 OFFCURVE",
"1969 732 CURVE SMOOTH",
"1969 825 OFFCURVE",
"1934 889 OFFCURVE",
"1878 889 CURVE SMOOTH {name = hr05;}",
"1781 889 OFFCURVE",
"1628 737 OFFCURVE",
"1536 546 CURVE SMOOTH"
);
},
{
closed = 1;
nodes = (
"769 1322 OFFCURVE",
"648 1200 OFFCURVE",
"544 950 CURVE SMOOTH",
"537 933 LINE {name = hr06;}",
"952 933 LINE",
"1007 1056 LINE SMOOTH",
"1023 1091 OFFCURVE",
"1038 1125 OFFCURVE",
"1058 1156 CURVE",
"1058 1265 OFFCURVE",
"1014 1322 OFFCURVE",
"919 1322 CURVE SMOOTH"
);
}
);
width = 2216;
},
{
layerId = "5CF0B95A-6341-4D13-90DE-0CF1719C21EC";
paths = (
{
closed = 1;
nodes = (
"1588 1461 OFFCURVE",
"1660 1433 OFFCURVE",
"1704 1390 CURVE",
"1896 1443 LINE",
"1903 1436 LINE",
"1647 813 LINE",
"1656 813 LINE",
"1735 901 OFFCURVE",
"1832 950 OFFCURVE",
"1922 950 CURVE SMOOTH",
"2054 950 OFFCURVE",
"2140 854 OFFCURVE",
"2140 679 CURVE SMOOTH",
"2140 340 OFFCURVE",
"1827 -18 OFFCURVE",
"1515 -18 CURVE SMOOTH",
"1352 -18 OFFCURVE",
"1264 76 OFFCURVE",
"1264 231 CURVE SMOOTH",
"1264 290 OFFCURVE",
"1280 361 OFFCURVE",
"1311 438 CURVE SMOOTH",
"1589 1118 LINE SMOOTH",
"1614 1179 OFFCURVE",
"1619 1211 OFFCURVE",
"1619 1262 CURVE SMOOTH",
"1619 1368 OFFCURVE",
"1586 1413 OFFCURVE",
"1508 1413 CURVE SMOOTH",
"1387 1413 OFFCURVE",
"1290 1301 OFFCURVE",
"1186 1038 CURVE SMOOTH",
"1144 933 LINE {name = hr01;}",
"1316 933 LINE",
"1294 876 LINE",
"1123 876 LINE",
"899 357 LINE SMOOTH",
"658 -202 OFFCURVE",
"444 -451 OFFCURVE",
"201 -451 CURVE SMOOTH",
"84 -451 OFFCURVE",
"5 -392 OFFCURVE",
"5 -310 CURVE SMOOTH",
"5 -260 OFFCURVE",
"33 -232 OFFCURVE",
"86 -232 CURVE SMOOTH",
"209 -232 OFFCURVE",
"157 -389 OFFCURVE",
"250 -389 CURVE SMOOTH {name = hr02;}",
"359 -389 OFFCURVE",
"505 -171 OFFCURVE",
"676 252 CURVE SMOOTH",
"929 876 LINE",
"516 876 LINE",
"292 357 LINE SMOOTH",
"51 -202 OFFCURVE",
"-164 -451 OFFCURVE",
"-407 -451 CURVE SMOOTH",
"-523 -451 OFFCURVE",
"-602 -392 OFFCURVE",
"-602 -310 CURVE SMOOTH",
"-602 -260 OFFCURVE",
"-574 -232 OFFCURVE",
"-521 -232 CURVE SMOOTH {name = hr03;}",
"-398 -232 OFFCURVE",
"-451 -389 OFFCURVE",
"-357 -389 CURVE SMOOTH {name = hr04;}",
"-248 -389 OFFCURVE",
"-102 -169 OFFCURVE",
"69 252 CURVE SMOOTH",
"322 876 LINE",
"167 876 LINE",
"188 933 LINE",
"345 933 LINE",
"361 968 LINE SMOOTH",
"475 1220 OFFCURVE",
"683 1373 OFFCURVE",
"906 1373 CURVE SMOOTH",
"1010 1373 OFFCURVE",
"1100 1339 OFFCURVE",
"1153 1288 CURVE",
"1253 1399 OFFCURVE",
"1375 1461 OFFCURVE",
"1505 1461 CURVE SMOOTH"
);
},
{
closed = 1;
nodes = (
"1487 445 OFFCURVE",
"1408 252 OFFCURVE",
"1408 144 CURVE SMOOTH",
"1408 83 OFFCURVE",
"1447 44 OFFCURVE",
"1501 44 CURVE SMOOTH",
"1679 44 OFFCURVE",
"1969 473 OFFCURVE",
"1969 732 CURVE SMOOTH",
"1969 825 OFFCURVE",
"1934 889 OFFCURVE",
"1878 889 CURVE SMOOTH {name = hr05;}",
"1781 889 OFFCURVE",
"1628 737 OFFCURVE",
"1536 546 CURVE SMOOTH"
);
},
{
closed = 1;
nodes = (
"769 1322 OFFCURVE",
"648 1200 OFFCURVE",
"544 950 CURVE SMOOTH",
"537 933 LINE {name = hr06;}",
"952 933 LINE",
"1007 1056 LINE SMOOTH",
"1023 1091 OFFCURVE",
"1038 1125 OFFCURVE",
"1058 1156 CURVE",
"1058 1265 OFFCURVE",
"1014 1322 OFFCURVE",
"919 1322 CURVE SMOOTH"
);
}
);
width = 2216;
}
);
leftKerningGroup = f;
rightKerningGroup = b;
},
{
glyphname = f_f_h;
layers = (
{
anchors = (
{
name = caret_1;
position = "{400, 0}";
},
{
name = caret_2;
position = "{978, 0}";
}
);
layerId = master01;
paths = (
{
closed = 1;
nodes = (
"1588 1461 OFFCURVE",
"1660 1433 OFFCURVE",
"1704 1390 CURVE",
"1899 1443 LINE",
"1906 1436 LINE",
"1568 672 LINE",
"1577 669 LINE",
"1725 868 OFFCURVE",
"1839 949 OFFCURVE",
"1971 949 CURVE SMOOTH",
"2068 949 OFFCURVE",
"2133 899 OFFCURVE",
"2133 810 CURVE SMOOTH",
"2133 762 OFFCURVE",
"2121 706 OFFCURVE",
"2086 634 CURVE SMOOTH",
"1880 213 LINE SMOOTH",
"1857 165 OFFCURVE",
"1844 134 OFFCURVE",
"1844 113 CURVE SMOOTH",
"1844 95 OFFCURVE",
"1855 86 OFFCURVE",
"1871 86 CURVE SMOOTH",
"1910 86 OFFCURVE",
"1987 150 OFFCURVE",
"2072 245 CURVE",
"2108 218 LINE",
"1989 63 OFFCURVE",
"1869 -18 OFFCURVE",
"1758 -18 CURVE SMOOTH",
"1683 -18 OFFCURVE",
"1654 16 OFFCURVE",
"1654 84 CURVE SMOOTH",
"1654 132 OFFCURVE",
"1676 197 OFFCURVE",
"1716 278 CURVE SMOOTH",
"1952 752 LINE SMOOTH",
"1968 785 OFFCURVE",
"1976 815 OFFCURVE",
"1976 840 CURVE SMOOTH",
"1976 871 OFFCURVE",
"1959 889 OFFCURVE",
"1925 889 CURVE SMOOTH",
"1806 889 OFFCURVE",
"1596 653 OFFCURVE",
"1450 341 CURVE SMOOTH",
"1290 0 LINE {name = hr01;}",
"1126 0 LINE",
"1602 1151 LINE",
"1614 1192 OFFCURVE",
"1619 1221 OFFCURVE",
"1619 1262 CURVE SMOOTH",
"1619 1368 OFFCURVE",
"1586 1413 OFFCURVE",
"1508 1413 CURVE SMOOTH",
"1387 1413 OFFCURVE",
"1290 1301 OFFCURVE",
"1186 1038 CURVE SMOOTH",
"1144 933 LINE",
"1316 933 LINE",
"1294 876 LINE",
"1123 876 LINE",
"899 357 LINE SMOOTH",
"658 -202 OFFCURVE",
"444 -451 OFFCURVE",
"201 -451 CURVE SMOOTH",
"84 -451 OFFCURVE",
"5 -392 OFFCURVE",
"5 -310 CURVE SMOOTH",
"5 -260 OFFCURVE",
"33 -232 OFFCURVE",
"86 -232 CURVE SMOOTH",
"209 -232 OFFCURVE",
"157 -389 OFFCURVE",
"250 -389 CURVE SMOOTH {name = hr02;}",
"359 -389 OFFCURVE",
"505 -171 OFFCURVE",
"676 252 CURVE SMOOTH",
"929 876 LINE",
"516 876 LINE",
"292 357 LINE SMOOTH",
"51 -202 OFFCURVE",
"-164 -451 OFFCURVE",
"-407 -451 CURVE SMOOTH",
"-523 -451 OFFCURVE",
"-602 -392 OFFCURVE",
"-602 -310 CURVE SMOOTH",
"-602 -260 OFFCURVE",
"-574 -232 OFFCURVE",
"-521 -232 CURVE SMOOTH {name = hr03;}",
"-398 -232 OFFCURVE",
"-451 -389 OFFCURVE",
"-357 -389 CURVE SMOOTH {name = hr04;}",
"-248 -389 OFFCURVE",
"-102 -169 OFFCURVE",
"69 252 CURVE SMOOTH",
"322 876 LINE",
"167 876 LINE",
"188 933 LINE",
"345 933 LINE",
"361 968 LINE SMOOTH",
"475 1220 OFFCURVE",
"683 1373 OFFCURVE",
"906 1373 CURVE SMOOTH",
"1010 1373 OFFCURVE",
"1100 1339 OFFCURVE",
"1153 1288 CURVE",
"1253 1399 OFFCURVE",
"1375 1461 OFFCURVE",
"1505 1461 CURVE SMOOTH"
);
},
{
closed = 1;
nodes = (
"769 1322 OFFCURVE",
"648 1200 OFFCURVE",
"544 950 CURVE SMOOTH",
"537 933 LINE",
"952 933 LINE",
"1007 1056 LINE SMOOTH",
"1023 1091 OFFCURVE",
"1038 1125 OFFCURVE",
"1058 1156 CURVE",
"1058 1265 OFFCURVE",
"1014 1322 OFFCURVE",
"919 1322 CURVE SMOOTH"
);
}
);
width = 2235;
},
{
layerId = "5CF0B95A-6341-4D13-90DE-0CF1719C21EC";
paths = (
{
closed = 1;
nodes = (
"1588 1461 OFFCURVE",
"1660 1433 OFFCURVE",
"1704 1390 CURVE",
"1899 1443 LINE",
"1906 1436 LINE",
"1568 672 LINE",
"1577 669 LINE",
"1725 868 OFFCURVE",
"1839 949 OFFCURVE",
"1971 949 CURVE SMOOTH",
"2068 949 OFFCURVE",
"2133 899 OFFCURVE",
"2133 810 CURVE SMOOTH",
"2133 762 OFFCURVE",
"2121 706 OFFCURVE",
"2086 634 CURVE SMOOTH",
"1880 213 LINE SMOOTH",
"1857 165 OFFCURVE",
"1844 134 OFFCURVE",
"1844 113 CURVE SMOOTH",
"1844 95 OFFCURVE",
"1855 86 OFFCURVE",
"1871 86 CURVE SMOOTH",
"1910 86 OFFCURVE",
"1987 150 OFFCURVE",
"2072 245 CURVE",
"2108 218 LINE",
"1989 63 OFFCURVE",
"1869 -18 OFFCURVE",
"1758 -18 CURVE SMOOTH",
"1683 -18 OFFCURVE",
"1654 16 OFFCURVE",
"1654 84 CURVE SMOOTH",
"1654 132 OFFCURVE",
"1676 197 OFFCURVE",
"1716 278 CURVE SMOOTH",
"1952 752 LINE SMOOTH",
"1968 785 OFFCURVE",
"1976 815 OFFCURVE",
"1976 840 CURVE SMOOTH",
"1976 871 OFFCURVE",
"1959 889 OFFCURVE",
"1925 889 CURVE SMOOTH",
"1806 889 OFFCURVE",
"1596 653 OFFCURVE",
"1450 341 CURVE SMOOTH",
"1290 0 LINE {name = hr01;}",
"1126 0 LINE",
"1602 1151 LINE",
"1614 1192 OFFCURVE",
"1619 1221 OFFCURVE",
"1619 1262 CURVE SMOOTH",
"1619 1368 OFFCURVE",
"1586 1413 OFFCURVE",
"1508 1413 CURVE SMOOTH",
"1387 1413 OFFCURVE",
"1290 1301 OFFCURVE",
"1186 1038 CURVE SMOOTH",
"1144 933 LINE",
"1316 933 LINE",
"1294 876 LINE",
"1123 876 LINE",
"899 357 LINE SMOOTH",
"658 -202 OFFCURVE",
"444 -451 OFFCURVE",
"201 -451 CURVE SMOOTH",
"84 -451 OFFCURVE",
"5 -392 OFFCURVE",
"5 -310 CURVE SMOOTH",
"5 -260 OFFCURVE",
"33 -232 OFFCURVE",
"86 -232 CURVE SMOOTH",
"209 -232 OFFCURVE",
"157 -389 OFFCURVE",
"250 -389 CURVE SMOOTH {name = hr02;}",
"359 -389 OFFCURVE",
"505 -171 OFFCURVE",
"676 252 CURVE SMOOTH",
"929 876 LINE",
"516 876 LINE",
"292 357 LINE SMOOTH",
"51 -202 OFFCURVE",
"-164 -451 OFFCURVE",
"-407 -451 CURVE SMOOTH",
"-523 -451 OFFCURVE",
"-602 -392 OFFCURVE",
"-602 -310 CURVE SMOOTH",
"-602 -260 OFFCURVE",
"-574 -232 OFFCURVE",
"-521 -232 CURVE SMOOTH {name = hr03;}",
"-398 -232 OFFCURVE",
"-451 -389 OFFCURVE",
"-357 -389 CURVE SMOOTH {name = hr04;}",
"-248 -389 OFFCURVE",
"-102 -169 OFFCURVE",
"69 252 CURVE SMOOTH",
"322 876 LINE",
"167 876 LINE",
"188 933 LINE",
"345 933 LINE",
"361 968 LINE SMOOTH",
"475 1220 OFFCURVE",
"683 1373 OFFCURVE",
"906 1373 CURVE SMOOTH",
"1010 1373 OFFCURVE",
"1100 1339 OFFCURVE",
"1153 1288 CURVE",
"1253 1399 OFFCURVE",
"1375 1461 OFFCURVE",
"1505 1461 CURVE SMOOTH"
);
},
{
closed = 1;
nodes = (
"769 1322 OFFCURVE",
"648 1200 OFFCURVE",
"544 950 CURVE SMOOTH",
"537 933 LINE",
"952 933 LINE",
"1007 1056 LINE SMOOTH",
"1023 1091 OFFCURVE",
"1038 1125 OFFCURVE",
"1058 1156 CURVE",
"1058 1265 OFFCURVE",
"1014 1322 OFFCURVE",
"919 1322 CURVE SMOOTH"
);
}
);
width = 2235;
}
);
leftKerningGroup = f;
rightKerningGroup = n;
},
